<?xml version="1.0" standalone="no"?>
<!DOCTYPE svg PUBLIC "-//W3C//DTD SVG 1.1//EN" "http://www.w3.org/Graphics/SVG/1.1/DTD/svg11.dtd" >
<svg xmlns="http://www.w3.org/2000/svg" xmlns:xlink="http://www.w3.org/1999/xlink" version="1.1">
<metadata>
Created by FontForge 20170731 at Fri Nov 10 22:39:24 2017
 By Aleksey,,,
(c) 2015 Microsoft Corporation. All Rights Reserved.
</metadata>
<defs>
<font id="Aldhabi" horiz-adv-x="0" >
  <font-face 
    font-family="Aldhabi"
    font-weight="400"
    font-stretch="normal"
    units-per-em="4096"
    panose-1="1 0 0 0 0 0 0 0 0 0"
    ascent="2634"
    descent="-1462"
    x-height="1086"
    cap-height="1602"
    bbox="-1052 -2008 9950 4352"
    underline-thickness="100"
    underline-position="-440"
    unicode-range="U+000D-FDFD"
  />
<missing-glyph horiz-adv-x="1016" 
d="M1016 1584v-1584h-1016v1584h1016zM588 468q2 10 2 20v29q0 72 -10 122t-29 89t-47.5 72.5t-65.5 71.5q-29 29 -53 54t-40.5 50.5t-25.5 54t-9 64.5q0 44 13.5 82.5t39 67t61.5 45t81 16.5q48 0 86 -19t65 -52t42.5 -77t19.5 -94l128 18q-6 78 -30 143t-66 112t-102.5 73
t-138.5 26q-75 0 -136 -24t-104.5 -67.5t-67 -105t-23.5 -136.5q0 -59 14 -104t36.5 -80.5t52 -65.5t59.5 -59q41 -40 66.5 -68.5t39 -61.5t18 -78.5t4.5 -117.5h120zM614 250q0 19 -7.5 36t-20 30.5t-30 21.5t-37.5 8q-39 0 -65 -28t-26 -68q0 -41 26.5 -65.5t64.5 -24.5
q19 0 36.5 7t30.5 19t20.5 28.5t7.5 35.5z" />
    <glyph glyph-name="uniFDFA" unicode="&#xfdfa;" horiz-adv-x="7440" arabic-form="isolated" 
d="M5746 212q0 -17 -4 -34q-5 -18 -5 -47q0 -28 7 -54.5t21.5 -47.5t37 -33.5t53.5 -12.5q36 0 67 20.5t54 56.5t36.5 84.5t13.5 105.5q0 36 -2 56q-3 19 -3 24q0 3 5.5 10.5t12.5 15.5t14 14.5t9 6.5q19 0 21 -20q4 -35 13.5 -58t22.5 -37t28.5 -20t30.5 -6q21 0 41 12
t35 33.5t24 50.5t9 62q0 56 -9 101t-21.5 80.5t-24.5 62.5q-13 27 -20 46v2q-1 1 -1 3q0 6 4.5 11t10.5 9.5t12 7t9 2.5h2q25 -31 50 -72.5t45 -92.5t32.5 -112t12.5 -130q0 -67 -16 -122t-44 -94t-65 -60t-79 -21q-22 0 -46.5 10.5t-34.5 27.5q-12 -68 -33.5 -121.5
t-52.5 -91t-70 -57.5t-86 -20q-39 0 -72.5 13.5t-59 40t-42 66t-20.5 90.5h-7q-51 -143 -114 -249t-135.5 -175.5t-152 -104t-163.5 -34.5q-76 0 -142.5 23t-121 67.5t-96 109t-66.5 148.5l-9 -3q-13 -56 -36 -114q-24 -58 -48.5 -120t-46 -128t-30.5 -137q64 -16 118.5 -47
t94.5 -71t62 -87t22 -96q0 -20 -12.5 -47.5t-31 -52.5t-41 -42t-42.5 -17q-46 0 -94.5 18.5t-93 51.5t-81.5 79.5t-61 102.5q-154 -11 -296 -53.5t-276 -105.5t-262.5 -140t-255.5 -156q-128 -78 -256.5 -152.5t-262 -132t-275 -92.5t-295.5 -35q-118 0 -225 28.5t-199 81.5
t-166.5 129.5t-127 172t-81 209t-28.5 240.5q0 152 42.5 308.5t125.5 313.5v1q-140 138 -258.5 323.5t-201.5 414.5l-1 1q-83 8 -172 26.5t-175 44.5t-163 57.5t-136 66.5q-65 38 -113.5 71.5t-81.5 59.5t-49.5 43.5t-16.5 23.5q0 5 2 8.5t7 3.5q182 -134 394 -205t462 -73
l1 1q-52 177 -81 376.5t-29 425.5q0 78 7.5 158t19 144.5t24 105t23.5 40.5q8 0 10 -4.5t2 -10.5q0 -7 -1 -14.5t-3 -14.5q-5 -42 -9.5 -86.5t-8.5 -96t-6 -112t-2 -134.5q0 -221 33.5 -414.5t93.5 -361.5l1 -1q209 7 399.5 54t364 126.5t331.5 188t304 238t281 276
t261.5 302.5t246 318t235.5 321v3q-44 113 -114 278q-70 164 -169 398q-9 20 -12 31t-3 21q0 35 11.5 80.5t27 85.5t30.5 67.5t23 27.5q4 0 16 -14.5t29 -48.5q37 -77 73 -168t70.5 -191t67.5 -204.5t63 -207.5h2q223 331 424.5 560t387 371.5t357 206t333.5 63.5
q184 0 330 -73t247 -205t154.5 -315t53.5 -402q0 -137 -23 -273t-65 -265v-4q43 -151 80.5 -289t63.5 -244q26 -105 56.5 -177t65.5 -116t74 -63t83 -19q47 0 89.5 20t85 50t86.5 66q43 36 93 69l-2 7q-55 8 -99 40t-75.5 77.5t-48.5 99t-17 104.5q0 84 29 161.5t76.5 137.5
t109.5 96t128 36q26 0 48.5 -8t42.5 -29t37 -58t32 -96q19 -77 35 -163t28 -174l1 -1q79 51 149.5 132.5t118.5 187.5q3 7 7 7q8 0 17 -19t16.5 -45.5t12.5 -53t5 -41.5q0 -29 -7.5 -54.5t-23.5 -51t-42 -52t-62 -57.5q-44 -37 -86 -69l-84 -64q8 -80 12 -149.5t4 -124.5
q0 -54 -7 -79.5t-15 -25.5q-4 0 -9.5 2t-5.5 10q0 64 -9 148t-26 177q-74 -57 -155.5 -128.5t-177.5 -173.5q-44 -47 -79.5 -78.5t-68 -50.5t-64 -26.5t-67.5 -7.5q-54 0 -93 17.5t-68.5 46.5t-51 65t-39.5 74l-7 -2q1 -17 1.5 -34.5t0.5 -34.5q0 -92 -17 -165.5t-44.5 -125
t-64 -79t-75.5 -27.5q-30 0 -52.5 10.5t-41 26.5t-33.5 35q-15 18 -28.5 34t-27.5 26.5t-31 10.5q-12 0 -22.5 -3.5t-24 -13t-30.5 -28t-41 -48.5q-179 -221 -376.5 -388.5t-416.5 -285.5l-1 -2l31 -123q23 -92 57.5 -157t79.5 -105.5t101 -59t122 -18.5q79 0 154.5 24
t145 75.5t131 132.5t113.5 195q25 56 38 90t20 53t10 25t8 6q6 0 15 -5t17.5 -12.5t14 -17t5.5 -18.5zM4448 1945q21 208 59.5 374.5t93.5 282t125 177.5t154 62q99 0 151.5 -88t52.5 -253q0 -110 -24 -209.5t-65 -184.5t-95.5 -153.5t-116 -116.5t-126 -74t-125.5 -26
q-53 0 -102 13.5t-90 41.5t-73.5 69t-52.5 97h-4q-11 -89 -37 -166t-64.5 -134t-87.5 -90t-106 -33q-35 0 -71 16.5t-69 54.5t-62.5 100t-51.5 153l-7 -1q-2 -97 -34.5 -174.5t-80 -141.5t-102.5 -117q-55 -54 -102 -102t-78.5 -93.5t-31.5 -93.5q0 -42 25.5 -87t90.5 -82.5
t176 -62t282 -24.5q213 0 428 56l1 2l-59 138q-8 18 -11 28.5t-3 20.5q0 36 11.5 81t27 85t30.5 67.5t23 27.5q5 0 17 -14t28 -48q33 -69 66.5 -152.5t64.5 -171.5l1 -1q198 74 384 186.5t348 252t294.5 301t223.5 334.5v3q-49 125 -110 270.5t-134 316.5l-15 35
q-8 19 -10.5 29.5t-2.5 19.5q0 35 11.5 80.5t27 85.5t30.5 67.5t23 27.5q4 0 16 -14.5t29 -48.5q30 -64 60.5 -139t60.5 -157t58.5 -169t55.5 -174h2q31 94 48 192t17 192q0 110 -22 217t-64.5 203.5t-105.5 178.5t-145.5 141.5t-184.5 93.5t-222 34q-167 0 -333.5 -69.5
t-343.5 -212.5t-368 -361.5t-407 -515.5v-2q32 -117 60 -221t49 -189q15 -60 30.5 -99t34.5 -62.5t42.5 -33t54.5 -9.5q82 0 140 71t92 199q10 36 17 47t15 11q12 0 22.5 -10t24.5 -25q13 -16 31 -35t43.5 -37.5t61.5 -34t85 -23.5zM4590 -131q0 27 -8.5 74t-28.5 119l-2 1
q-220 -100 -456.5 -151t-485.5 -51q-370 0 -583 168.5t-257 500.5q-51 -10 -91.5 -33t-68 -55t-42 -69.5t-14.5 -75.5q0 -50 11.5 -95.5t28.5 -90.5t38 -90q20 -46 37 -96t28.5 -106.5t11.5 -122.5q0 -87 -24.5 -161.5t-72.5 -129.5t-119 -86.5t-164 -31.5q-189 0 -387 82
t-381 243h-1q-60 -128 -91 -254.5t-31 -255.5q0 -159 48.5 -282t138 -207t215.5 -127t282 -43q162 0 308 32t282 84.5t264.5 121t255.5 141.5q127 74 255 147.5t263.5 135t280.5 107t306 63.5q18 66 44 121t54.5 103t56.5 91q27 44 49.5 87.5t36 90.5t13.5 101zM4490 262
q-31 91 -73.5 204.5t-97.5 250.5l-1 1q-119 -35 -237.5 -54.5t-237.5 -19.5q-155 0 -282.5 38.5t-219 106t-142 160t-50.5 200.5q0 71 19 130.5t50 111t71 98t82 91.5q41 45 81 91t71 97.5t50 110.5t19 130q0 46 -12.5 104t-41.5 139h-2q-121 -163 -245 -329t-253 -327
t-265 -312t-280.5 -284t-299 -243.5t-321 -190t-346 -123.5t-374.5 -44h-22l-1 -1q88 -192 203.5 -342t248.5 -258h1q97 151 227 291.5t293 262.5q24 18 40 24.5t25 6.5q13 0 13 -6q0 -5 -9 -15t-22.5 -22t-29.5 -26t-29 -26q-144 -132 -257.5 -264.5t-195.5 -267.5v-1
q150 -109 306 -164.5t303 -55.5q168 0 259 66.5t91 187.5q0 63 -21 123t-46 124q-26 64 -47 134t-21 153q0 100 26 182.5t67.5 142t92.5 92t101 32.5q15 0 28 -7t23.5 -25t19.5 -49.5t17 -80.5q22 -127 84.5 -220.5t164 -155t240.5 -91.5t314 -30q235 0 447 38t404 111z
M4498 782q37 -118 70.5 -234t62.5 -225l2 -2q229 107 426 261t368 350q52 59 84 96q31 36 51.5 56.5t34 27.5t28.5 7q20 0 38 -17.5t39 -38.5q20 -21 46 -38.5t63 -17.5q103 0 103 215q0 57 -11 127.5t-34.5 160t-59.5 198.5t-87 243h-2q-91 -195 -221.5 -372t-289 -327.5
t-339 -270t-372.5 -199.5zM1484 1970q8 9 18 20t19.5 20.5t16.5 15.5t10 6q5 0 6 -2.5t1 -5.5q0 -14 -20.5 -45t-46.5 -68q-58 -80 -105.5 -162t-81 -165.5t-52 -168.5t-18.5 -170q0 -63 11 -109t30 -76t45.5 -44.5t56.5 -14.5q33 0 62.5 21t54.5 73.5t44 142.5t32 227
q14 148 49 267.5t77 203.5t84 129.5t70 45.5q13 0 18 -11.5t8 -35.5t7 -62t16 -92q14 -68 37 -123t52.5 -93.5t65 -59.5t75.5 -21q45 0 70 33.5t25 90.5q0 70 -28 144.5t-66 159.5q-35 79 -50.5 120.5t-15.5 58.5q0 16 5 46.5t12.5 61.5t16 54t16.5 23q6 0 13 -8t17 -27.5
t25 -53.5q14 -35 36 -87q37 -89 70 -150t63.5 -98.5t61 -54t63.5 -16.5q44 0 74 34t30 99q0 59 -28 118t-69 117.5t-87 116.5q-47 57 -84 112q-8 11 -13 22t-5 25q0 16 7 47.5t16.5 63t19 55t14.5 23.5q11 0 35 -39q23 -39 70 -108q60 -89 102.5 -163.5t69.5 -144t40 -138
t13 -144.5q0 -79 -15.5 -141t-42 -104.5t-61.5 -64.5t-73 -22q-45 0 -82.5 19t-59.5 42l-3 -2q0 -7 1 -13v-14q0 -66 -13.5 -125.5t-40 -105t-64.5 -72.5t-87 -27q-54 0 -102.5 31t-87.5 88.5t-66.5 140t-38.5 184.5l-1 1q-31 -29 -56 -73t-46 -111t-38.5 -161t-33.5 -222
q-16 -129 -39 -217t-53 -142t-66.5 -77.5t-79.5 -23.5q-50 0 -95.5 28t-80.5 80.5t-56 127t-21 168.5q0 89 24 189.5t66.5 202t101.5 199.5t129 181zM6859 656q-14 -39 -35.5 -69.5t-45.5 -51t-49 -31t-47 -10.5q-41 0 -72.5 18.5t-53 52t-32.5 79.5t-11 101q0 39 7.5 77.5
t25 69t47 49.5t73.5 19q75 0 140 -48t113.5 -128t76 -185t27.5 -220q0 -78 -7 -164.5t-33.5 -174.5t-78 -174t-139.5 -161q-47 -39 -114 -67.5t-148 -58.5t-172 -68t-186 -96q-17 -11 -31.5 -17t-22.5 -6q-14 0 -14 5q0 4 4 8q3 4 17 21l6 7q25 30 58 63t77 72t102 85
t133 100q120 87 206.5 172t142.5 171t83 175.5t27 185.5q0 72 -22.5 120t-51.5 79zM2564 3179q-16 27 -30.5 52.5t-25 47t-17 38t-6.5 24.5q0 32 11 73.5t25.5 78t29 62t22.5 25.5q2 0 7 -5.5t17 -24t31.5 -54.5t51.5 -97q90 -176 153.5 -313t106.5 -243.5t68 -188.5
t37.5 -146.5t16 -117.5t3.5 -103t-5 -93t-14.5 -82.5t-24.5 -78t-35 -80.5q-19 -40 -45.5 -76t-52 -63t-47 -43t-30.5 -16q-5 0 -12 3.5t-7 8.5q0 2 1.5 3.5l2.5 2.5q35 35 62.5 74.5t46 86t28 100.5t9.5 119q0 202 -94 454t-284 572zM5013 2513q0 49 -33.5 71.5t-79.5 22.5
q-118 0 -216 -161.5t-162 -498.5l1 -2q58 2 117.5 29.5t113.5 72t101.5 101.5t82.5 119.5t55 126t20 119.5zM6843 1667q-8 38 -16 75t-16 72q-14 61 -30 99t-34 59t-37.5 28t-40.5 7q-47 0 -89.5 -22t-74.5 -56.5t-51 -76t-19 -80.5q0 -24 17 -49.5t47.5 -46.5t74.5 -34.5
t98 -13.5q84 0 171 39zM6253 2397q-5 -9 -10 -9t-5.5 10.5t-0.5 25.5q0 53 3 87.5t21 60.5q37 54 90.5 103.5t115.5 96t128 90.5q65 43 124.5 86t109 85.5t79.5 86.5q6 9 10 10q2 0 4 -3l-1 -2v-2q-2 -13 -3 -33q-2 -21 -5 -43t-9 -43t-15 -34q-27 -40 -74 -79.5
t-104.5 -81.5t-121.5 -87t-125.5 -95.5t-116.5 -107.5t-94 -122zM3823 3489q-6 -9 -10 -9q-5 0 -5.5 10.5t-0.5 25.5q0 53 3 87.5t21 60.5q36 54 90 103.5t116 96t127 90.5q65 43 125 86t109.5 85.5t79.5 86.5q4 8 10 10q1 0 3 -3l-1 -2v-2q-1 -13 -2 -33q-2 -21 -5 -43
t-9 -43t-15 -34q-28 -40 -74.5 -79.5t-104 -81.5t-121.5 -87t-125.5 -95.5t-116.5 -107.5t-94 -122zM1694 2830q5 23 15 23q9 0 17 -15q4 -23 5 -44q0 -21 5 -41q6 -21 19.5 -41t32 -35t40 -24t41.5 -9q19 0 34 10.5t15 30.5v4q-1 1 -1 3q-3 17 -15.5 36.5t-26.5 38.5
t-26 37.5t-14 34.5q0 27 1 48.5t8 34.5q1 1 3 1q4 0 7 -5q12 -18 21 -32q9 -15 18.5 -28t20 -24.5t24.5 -23.5q23 -20 47 -29.5t45 -9.5q17 0 28.5 6.5t11.5 13.5q0 6 -12 20t-28.5 34t-34.5 44.5t-30 51.5q-4 8 -5.5 19.5t-1.5 22.5q0 22 9 70q1 8 8 10q2 0 7 -5.5t7 -13.5
l4 -19q2 -11 7.5 -21t14.5 -22l21 -28t27 -37q26 -38 40.5 -84.5t14.5 -91.5q0 -37 -15.5 -62.5t-53.5 -25.5q-20 0 -39 8q-19 7 -35 12l-5 -2q1 -8 2 -16.5t1 -16.5q0 -59 -22.5 -83.5t-60.5 -24.5q-41 0 -77 21.5t-63 57.5t-43 84t-16 101q0 9 1 18zM2863 3789q5 22 16 22
q9 0 16 -14q4 -23 5 -44t6 -41q5 -21 19 -41t32.5 -35t39.5 -24t42 -9q18 0 33 10t15 30v4q-1 2 -1 4q-3 17 -15 36t-26 39q-15 19 -27 37.5t-14 34.5q0 27 1 48.5t8 34.5q1 1 3 1q4 0 7 -6q12 -18 21 -32q9 -15 18.5 -27.5t20 -24t24.5 -23.5q23 -20 47 -29.5t45 -9.5
q17 0 28.5 6.5t11.5 13.5q0 6 -12 20t-28.5 34t-34.5 44.5t-30 51.5q-4 8 -5.5 19.5t-1.5 21.5q0 13 2.5 29.5t6.5 41.5q2 8 8 10q2 0 7 -5.5t8 -13.5l3 -19q4 -21 23 -43q18 -23 47 -66q26 -38 40.5 -84t14.5 -92q0 -36 -15.5 -61.5t-53.5 -25.5q-20 0 -39 7t-35 13l-4 -2
q1 -8 1.5 -17t0.5 -17q0 -58 -22.5 -82.5t-60.5 -24.5q-41 0 -77 21.5t-63 57.5t-42.5 84t-15.5 101q0 8 0.5 17.5t1.5 18.5zM3507 -718q-26 0 -49 13t-40.5 34t-27.5 46.5t-10 50.5q0 48 24 80.5t69 32.5q28 0 51 -14t39.5 -35t25.5 -47t9 -50q0 -20 -6 -39.5t-17.5 -35.5
t-28.5 -26t-39 -10zM3785 -640q-26 0 -49 13t-40.5 34t-27.5 46.5t-10 50.5q0 48 24 80.5t69 32.5q28 0 51 -14t39.5 -35t25.5 -47t9 -50q0 -20 -6 -39.5t-17.5 -35.5t-28.5 -26t-39 -10z" />
    <glyph glyph-name="uniFDFB" unicode="&#xfdfb;" horiz-adv-x="6585" arabic-form="isolated" 
d="M5122 -823q41 70 70 134t47.5 125t27 121t8.5 124q0 62 -9.5 122t-32.5 114l-2 1q-70 -35 -147.5 -54.5t-163.5 -19.5q-108 0 -201 25t-169.5 73t-135.5 117t-101 156l-9 -2q0 -17 1 -33v-33q0 -174 -28.5 -353t-86 -345t-145 -312t-206 -254t-269 -170.5t-333.5 -62.5
q-144 0 -260 44.5t-197 124t-124.5 189.5t-43.5 240q0 156 65 303t204 289.5t356.5 283t523.5 283.5q68 32 106.5 44t44.5 12q9 0 9 -5q0 -8 -9.5 -18.5t-24.5 -22t-35 -23.5t-41 -21q-543 -245 -811 -499t-268 -530q0 -97 31 -177t93.5 -137.5t157.5 -89t223 -31.5
q119 0 237 39.5t226 113.5t200 180.5t160 239.5t106.5 291t38.5 335q0 110 -15.5 243.5t-45.5 284.5l-1 1q-23 -2 -45 -4t-42 -2q-114 0 -206 36.5t-161.5 98t-116.5 141.5t-72 168l-11 -2q3 -47 3 -95q0 -98 -16 -194.5t-49 -184.5t-82 -164t-115 -131.5t-148.5 -87
t-182.5 -31.5q-17 0 -33 1t-32 4q-39 -119 -98.5 -233t-145 -220t-199.5 -203.5t-262 -183.5q-145 -84 -315.5 -159t-356.5 -140t-382 -120t-391 -99.5t-383.5 -78.5t-359 -57t-318.5 -34.5t-262 -11.5q-49 0 -81.5 3.5t-52.5 9.5t-28.5 15t-8.5 20q326 46 609 99t531 113
t463 127t405 140.5t357 153t319 165.5q288 163 487 350.5t317 388.5q-96 46 -177 132.5t-140 212.5t-92 290.5t-33 365.5q0 92 8.5 209t35.5 246.5t77.5 265t134.5 264.5q8 14 13.5 22t10.5 8q12 0 27.5 -19t34.5 -53q83 -147 149 -290.5t112 -293t70.5 -310.5t24.5 -342
q0 -127 -8 -251t-30 -247q111 6 204.5 53.5t161.5 128.5t106 193t38 247q0 184 -115.5 534.5t-339.5 875.5q-8 19 -11 30t-3 21q0 36 11.5 82.5t27.5 87.5t31.5 69.5t23.5 28.5q5 0 17 -15t29 -50q43 -90 86 -200.5t83.5 -230t78.5 -243.5t71.5 -242t61.5 -225t50 -192
q37 -145 88.5 -242.5t115 -156.5t140 -84t165.5 -25q16 0 35 0.5t31 1.5l1 3q-70 275 -176 577t-242 614q-11 19 -12.5 30t-1.5 21q0 36 12 82.5t27.5 87.5t31 69.5t23.5 28.5q5 0 17 -15t29 -50q54 -113 110.5 -265.5t113 -334.5t111.5 -390t106 -432l2 -1q58 12 112 32
t101.5 45t87 53.5t68.5 57.5q-36 65 -73 131q-38 65 -69.5 132t-51.5 135t-20 138q0 99 32 176.5t99.5 136.5t172.5 100t251 67q102 18 178.5 33.5t133.5 29.5t97.5 28t70.5 29t52.5 31.5t43.5 36.5q64 59 99 94q35 34 43 34q15 0 27 -18t12 -66q0 -14 -1.5 -32t-3.5 -36
t-4.5 -33t-4.5 -24q-5 -14 -14 -30.5t-25 -36.5t-40.5 -43t-58.5 -51q-39 -44 -70.5 -80t-59 -71t-53.5 -71t-55 -79.5t-63 -97t-77 -122.5q-61 -98 -111.5 -174.5t-98 -142.5t-96 -126t-104.5 -125v-3q14 -45 23 -91.5t9 -96.5q0 -51 -8.5 -101.5t-21.5 -96.5t-29 -85.5
t-31.5 -69t-29 -46.5t-21.5 -17q-9 0 -10.5 3t-1.5 7q22 39 37 86t24 95.5t13 95.5t4 88q0 40 -4.5 77t-18.5 83h-2q-80 -83 -185.5 -146t-219.5 -95l-1 -1l22 -102q51 -233 182.5 -351.5t334.5 -118.5q75 0 150 11t145 37v1q-68 118 -107 229t-39 210q0 96 31 173.5
t101 138t183.5 104t279.5 69.5q95 15 168.5 29.5t131 28.5t101.5 29t78.5 32.5t63 37t55.5 43.5q39 36 64.5 58t41.5 34t25 16.5t15 4.5q15 0 25 -14.5t10 -38.5q0 -17 -1 -38.5t-3.5 -43.5t-7 -42.5t-10.5 -35.5q-12 -28 -45.5 -64t-101.5 -87q-60 -58 -113 -118
t-104.5 -127t-103.5 -143t-110 -165q-69 -107 -125 -184.5t-107.5 -135t-103 -100t-111.5 -79.5v-2q19 -55 31 -117t12 -129q0 -64 -11.5 -129.5t-30.5 -126t-42 -113.5t-46.5 -92t-44.5 -62t-35 -24q-5 0 -9.5 2.5t-4.5 7.5zM1162 1096q1 4 10 19t20 32t21 30.5t13 13.5
q6 0 8.5 -10t7.5 -42q6 -46 15 -95.5t24.5 -110.5t39.5 -136t59 -171q82 -228 179 -335.5t213 -107.5q44 0 80.5 20t62.5 55.5t40.5 85t14.5 108.5q0 54 -11 123t-35.5 159t-63 203.5t-93.5 257.5t-128 321.5t-166 394.5q-8 20 -11 30.5t-3 20.5q0 36 12 82.5t27.5 88
t31 69.5t23.5 28q5 0 17 -15t29 -50q29 -60 64 -140t73 -174.5t77 -200t75 -217t68 -225.5t55.5 -225t37 -216t13.5 -199q0 -144 -19.5 -263t-58.5 -205t-97 -133.5t-135 -47.5q-47 0 -94.5 15t-95 52t-94 98.5t-91 154.5t-87 221t-81.5 296h-8q-17 -78 -62.5 -140.5
t-103.5 -114t-121 -93.5q-64 -43 -117 -80.5t-87 -72t-34 -70.5q0 -30 34.5 -45.5t92.5 -15.5q88 0 161.5 23.5t127 62.5t85 88t35.5 100q0 7 2.5 19t6.5 12q11 0 18.5 -15.5t12.5 -38t7 -48t2 -45.5q0 -74 -31.5 -141t-84 -117.5t-121 -80t-143.5 -29.5q-53 0 -103 24
t-89 64t-62.5 92t-23.5 108q0 82 35 147.5t89.5 121.5t120.5 108q66 51 128.5 105.5t113.5 115t75 136.5q-3 27 -4 56t-1 52q0 21 0.5 35.5t1.5 16.5zM2850 830q0 127 -26.5 259.5t-73.5 264.5t-113 260.5t-144 247.5q-44 -59 -79.5 -139.5t-61 -174t-39 -195.5t-13.5 -202
q0 -155 39 -277.5t105 -211t153 -141.5t183 -70q35 96 52.5 190.5t17.5 188.5zM5208 181q57 30 110 67.5t105 84.5t105 104.5t110 127.5q71 88 147 184q75 95 165 196l-3 3q-20 -13 -44.5 -23.5t-64.5 -22.5t-101.5 -26.5t-154.5 -33.5q-127 -27 -214.5 -59.5t-141.5 -75.5
t-78 -99.5t-24 -129.5q0 -35 7 -72.5t18.5 -75.5t26.5 -75.5t32 -73.5zM4679 1168q45 47 86.5 95t81 99t78.5 105.5t81 114.5q73 107 151 209t164 199l-4 2q-26 -14 -57.5 -25t-76 -22t-103.5 -23q-60 -13 -141 -31q-118 -27 -194 -66.5t-119.5 -87.5t-60 -101t-16.5 -105
q0 -45 10.5 -89t28.5 -88.5t41.5 -90.5t49.5 -95zM237 1349q218 59 374 137t249 178v2q-48 4 -83.5 11.5t-59 23t-35 40.5t-11.5 63q0 42 16 84.5t44 77t66.5 56.5t83.5 22q32 0 57 -17t42.5 -45t26.5 -64.5t9 -74.5q0 -15 -1.5 -30.5t-5.5 -31.5v-4q31 -3 50.5 -8t30 -11
t14.5 -13.5t4 -16.5q0 -20 -10 -45.5t-24 -48.5h-7q-17 14 -44.5 22t-68.5 8q-34 -58 -80.5 -105t-99.5 -83.5t-108 -63t-104 -43.5t-88.5 -25.5t-62.5 -8.5q-24 0 -44 4q-21 3 -38 3q-12 0 -26 -1.5t-26 -3.5q-13 -3 -23 -4.5t-16 -1.5q-8 0 -14 2t-6 6q0 6 19 10z
M901 2486q219 60 374.5 137.5t249.5 177.5v3q-48 3 -83.5 10.5t-59 23t-35 40.5t-11.5 64q0 41 16 83.5t44 77t66 56.5t83 22q32 0 57.5 -17t43 -45t26.5 -64t9 -74q0 -34 -7 -62v-5q31 -3 50.5 -7.5t30 -10.5t14.5 -13.5t4 -16.5q0 -20 -10.5 -45.5t-24.5 -48.5h-6
q-17 14 -44.5 21.5t-68.5 7.5q-34 -58 -81 -105t-100 -83.5t-107.5 -62.5t-103.5 -43.5t-89 -25.5t-62 -8q-24 0 -45 3t-38 3q-12 0 -25.5 -1.5t-26.5 -3.5q-13 -3 -23 -4.5t-16 -1.5q-8 0 -13.5 2t-5.5 6q0 5 18 10zM2356 2744q-5 -9 -10 -9t-5.5 10t-0.5 21q0 33 0.5 57
t3 42t7 32t13.5 26q19 28 41.5 54.5t51.5 51.5q29 26 82 69t132 104t134.5 102t89.5 64t66.5 45t62.5 44q32 22 85 62.5t130 100.5q156 123 185 166q6 9 11 10q1 0 3 -3l-1 -3v-2q-1 -13 -2 -33q-2 -21 -5.5 -43.5t-9.5 -44t-15 -35.5q-31 -42 -180 -158
q-75 -59 -127.5 -98.5t-82.5 -61.5q-29 -20 -84 -60.5t-136 -101.5q-81 -60 -136 -103.5t-87 -69.5t-61 -53.5t-58 -56.5t-53 -60t-44 -65zM4335 2355q-5 -9 -10 -9q-6 0 -6 32q0 60 3 95t21 62q28 41 67 80t84 76t94 72t97 68l129 90q31 22 84 62.5t131 100.5
q155 123 185 166q4 8 10 10q1 0 4 -3l-2 -2v-3q-1 -13 -2 -33q-2 -21 -5.5 -43.5t-9.5 -44t-15 -35.5q-29 -41 -179 -158q-148 -115 -211 -160l-124 -88q-48 -35 -97 -73t-94 -79.5t-84.5 -87t-69.5 -95.5zM3381 2959q5 23 16 23q8 0 17 -15q4 -23 5 -45q0 -22 5 -42
q6 -22 20 -42.5t33 -36t41 -24.5t43 -9q19 0 34.5 10.5t15.5 30.5q0 2 -1 4t-1 5q-2 18 -14.5 37.5t-26.5 39.5q-15 19 -27.5 37.5t-14.5 35.5q0 28 1 50t8 35q1 1 3 1q4 0 7 -5l22 -33q9 -16 18.5 -29t20.5 -25t25 -24q49 -40 95 -40q17 0 29 7t12 14q0 6 -12 20.5
t-29 35.5q-18 20 -36.5 45t-30.5 53q-4 8 -5.5 20t-1.5 22q0 14 2 30.5t7 42.5q1 8 8 10q3 0 8 -5.5t7 -13.5l4 -20q2 -11 8 -21.5t15 -23t21 -28.5t27 -38q27 -39 42 -86.5t15 -94.5q0 -37 -16 -63.5t-55 -26.5q-20 0 -39 8q-20 7 -37 13l-4 -2q1 -9 1.5 -18t0.5 -17
q0 -60 -23 -85t-62 -25q-42 0 -79 22t-64.5 59t-44 86t-16.5 104q0 17 3 37zM5426 1212q-28 0 -52.5 14t-43 36t-29.5 49t-11 54q0 51 25.5 85.5t74.5 34.5q30 0 54.5 -15t42 -37.5t27.5 -50.5t10 -53q0 -21 -6.5 -41.5t-18.5 -37.5t-30.5 -27.5t-42.5 -10.5zM5889 -102
q-28 0 -53 14t-43.5 35.5t-29.5 49t-11 54.5q0 50 26 84.5t74 34.5q30 0 54.5 -14.5t42.5 -37.5t28 -50.5t10 -52.5q0 -21 -6.5 -41.5t-19 -37.5t-30.5 -27.5t-42 -10.5zM1623 2921q-9 69 -38 108t-83 39q-27 0 -47 -7t-34 -16.5t-21 -20.5t-7 -20q0 -26 17 -43t47 -27
t72 -14t92 -4zM959 1784q-10 69 -39 108t-83 39q-26 0 -46.5 -7t-34 -17t-20.5 -21t-7 -20q0 -26 16.5 -43t46.5 -26.5t72 -13.5t92 -4z" />
    <glyph glyph-name="uniFDFC" unicode="&#xfdfc;" horiz-adv-x="2616" arabic-form="isolated" 
d="M844 2036q12 -39 39 -106.5t67.5 -158.5t94 -202.5t116.5 -238.5l9 -5q16 8 36.5 18t42.5 20t43.5 19.5t39.5 16.5v9q-48 104 -90.5 197.5t-77 172.5t-59.5 141t-38 103q15 60 37.5 127t54.5 145h8q8 -31 28.5 -84.5t49 -121.5t62.5 -146t68 -158.5t65.5 -160
t55.5 -148.5l6 -5q61 23 125 45.5t127.5 42.5t124 36.5t114.5 29t99.5 19.5t78.5 7h13.5t15 -1t12.5 -2.5t5 -4.5q0 -7 -6 -9.5t-15 -4.5q-170 -32 -337 -89.5t-335 -126.5l-3 -8q11 -32 22 -74.5t22 -91.5l6 -6q108 40 206 73.5t180 57.5t145.5 37t102.5 13h15t17.5 -1
t14 -3t5.5 -5q0 -6 -6 -9t-15 -5q-135 -28 -299.5 -86t-348.5 -132l-9 -5q6 -37 12 -69q5 -33 9.5 -63.5t8.5 -59.5q4 -30 9 -61q35 -248 145 -248q35 0 73 26t70 75t54 118t24 155q0 24 20 24q9 0 16 -12t7 -26q0 -42 -6.5 -97t-20 -117t-34 -127.5t-48.5 -127.5
q-49 -108 -101 -156t-104 -48q-45 0 -83 33.5t-63 113.5q-8 26 -16.5 72.5t-16.5 99.5t-16 107t-15 96q-5 30 -10.5 58.5t-12 56.5t-15 57t-18.5 61l-6 5q-18 -7 -40 -17t-44 -21.5t-41 -22.5t-31 -20v-5q45 -143 63.5 -254.5t18.5 -197.5q0 -54 -8 -130t-24 -164
q-29 -157 -90 -286t-143.5 -225t-179.5 -156.5t-196 -80.5l-4 -8q24 -26 54.5 -48.5t66 -39t74.5 -26.5t81 -10q87 0 167.5 34.5t154.5 94t143 139t133.5 168.5t126.5 183q61 94 119.5 183t115.5 168.5t113 139t112.5 94t113.5 34.5q43 0 75 -20t53 -56.5t31 -87.5t10 -113
q0 -59 -12 -129.5t-33 -139.5q-5 -13 -10 -19.5t-14 -6.5q-8 0 -11 7.5t-3 18.5q0 6 4 20l7.5 32.5t8 44t3.5 52.5q0 32 -7 60t-21 49t-36 33t-52 12q-49 0 -97.5 -34t-97.5 -91.5t-99 -135t-102 -164.5q-53 -87 -108.5 -178.5t-115.5 -178.5t-124.5 -164.5t-136 -135
t-149.5 -91.5t-165 -34q-63 0 -127 20.5t-126.5 62t-122 105t-114.5 150.5q-87 6 -167 50.5t-142 122.5t-99 187t-37 244q0 154 43.5 301t141.5 287t255.5 271.5t386.5 253.5v5q-102 192 -162 327.5t-76 201.5q11 52 31 117.5t55 140.5h9zM498 -146q-14 52 -21 104.5
t-7 103.5q0 158 43.5 293t124.5 250t197 212.5t262 181.5l4 8q-14 35 -36 79q-23 44 -44 89l-5 3q-389 -212 -578 -448.5t-189 -498.5q0 -70 17 -130t48.5 -109t75.5 -86t99 -61zM580 -172q16 -7 30 -9t34 -2q66 0 137.5 22t140 61.5t130 94.5t108 120.5t74 139t27.5 151.5
q0 122 -29.5 250t-99.5 277l-9 3q-151 -91 -261 -193t-181 -214t-105.5 -234t-34.5 -252q0 -79 10 -129.5t29 -85.5zM1920 -269q0 23 6.5 44.5t18.5 37.5t30.5 25.5t42.5 9.5q31 0 54.5 -15.5t40 -39t25 -50.5t8.5 -50t-7.5 -44.5t-20.5 -37.5t-30.5 -25.5t-36.5 -9.5
q-27 0 -50.5 13.5t-41.5 35.5t-28.5 49.5t-10.5 56.5zM1261 1092q15 8 35 18t41.5 20t43.5 20t40 18l2 5q-17 52 -33 96t-29 73l-5 2q-19 -8 -41.5 -18t-44.5 -20t-42 -20t-33 -19l-3 -6q13 -30 30 -72.5t34 -90.5zM2206 -176q0 48 25 82.5t73 34.5q31 0 54.5 -15t40 -38
t25 -50t8.5 -50q0 -24 -7.5 -45.5t-20.5 -37.5t-30.5 -25.5t-36.5 -9.5q-27 0 -50.5 13.5t-41.5 35.5t-28.5 49.5t-10.5 55.5z" />
    <glyph glyph-name=".notdef" horiz-adv-x="1016" 
d="M1016 1584v-1584h-1016v1584h1016zM588 468q2 10 2 20v29q0 72 -10 122t-29 89t-47.5 72.5t-65.5 71.5q-29 29 -53 54t-40.5 50.5t-25.5 54t-9 64.5q0 44 13.5 82.5t39 67t61.5 45t81 16.5q48 0 86 -19t65 -52t42.5 -77t19.5 -94l128 18q-6 78 -30 143t-66 112t-102.5 73
t-138.5 26q-75 0 -136 -24t-104.5 -67.5t-67 -105t-23.5 -136.5q0 -59 14 -104t36.5 -80.5t52 -65.5t59.5 -59q41 -40 66.5 -68.5t39 -61.5t18 -78.5t4.5 -117.5h120zM614 250q0 19 -7.5 36t-20 30.5t-30 21.5t-37.5 8q-39 0 -65 -28t-26 -68q0 -41 26.5 -65.5t64.5 -24.5
q19 0 36.5 7t30.5 19t20.5 28.5t7.5 35.5z" />
    <glyph glyph-name="glyph1" 
d="M0 0z" />
    <glyph glyph-name="glyph1" 
d="M0 0z" />
    <glyph glyph-name="uni000D" unicode="&#xd;" horiz-adv-x="512" 
d="M0 0z" />
    <glyph glyph-name="space" unicode=" " horiz-adv-x="550" 
d="M0 0z" />
    <glyph glyph-name="space" unicode="&#xa0;" horiz-adv-x="550" 
d="M0 0z" />
    <glyph glyph-name="exclam" unicode="!" horiz-adv-x="666" 
d="M282 476q-8 74 -15.5 169.5t-15 200t-15 212t-13 205.5t-9.5 181q-5 82 -8 136l320 34q-10 -60 -22.5 -150.5t-26 -197t-26.5 -221t-25 -222t-22 -201t-16 -156.5zM336 275q72 0 108.5 -38.5t36.5 -107.5q0 -77 -41.5 -120t-116.5 -43q-71 0 -110 38.5t-39 110.5
q0 77 43 118.5t119 41.5z" />
    <glyph glyph-name="quotedbl" unicode="&#x22;" horiz-adv-x="958" 
d="M232 986q-24 156 -42.5 303.5t-33.5 294.5l288 28q-7 -34 -17 -84t-21 -108q-12 -59 -24 -122q-13 -63 -24 -122q-11 -60 -20.5 -111t-15.5 -87zM632 986q-23 156 -40.5 303.5t-31.5 294.5l288 28q-8 -34 -19 -84t-23 -108.5t-24 -121.5t-23 -122q-12 -60 -21.5 -111
t-15.5 -87z" />
    <glyph glyph-name="numbersign" unicode="#" horiz-adv-x="1306" 
d="M803 28l-130 -8l83 490h-301l-82 -482l-130 -8l83 490h-246l8 118h258l57 332h-273l8 118h285l81 478l130 10l-83 -488h302l81 478l130 10l-83 -488h245l-10 -118h-255l-56 -332h271l-10 -118h-281zM475 628h301l57 332h-302z" />
    <glyph glyph-name="dollar" unicode="$" horiz-adv-x="1254" 
d="M747 1901l-16 -297q82 -1 151 -20t118.5 -50.5t77 -72.5t27.5 -86q0 -31 -13 -53t-34.5 -36.5t-49.5 -21t-58 -6.5q-11 0 -25 1t-24 3q-12 88 -58 144t-119 75l-31 -571q78 -40 155.5 -82.5t140 -96.5t101 -124t38.5 -166q0 -101 -43 -179.5t-112 -134t-155.5 -88
t-173.5 -41.5l-18 -332l-108 7l17 325q-39 3 -85 11.5t-92 22.5t-89 33.5t-76.5 45.5t-53.5 58.5t-20 71.5q0 31 12.5 55t33 40t47 24t54.5 8q30 0 57 -9q20 -88 76.5 -151.5t141.5 -86.5l29 556q-77 42 -151 85t-131.5 97.5t-92.5 124t-35 163.5q0 91 34 167.5t95 135
t145 96.5t184 52l16 300zM678 628l-28 -520q52 1 98 15.5t80.5 42.5t54.5 69.5t20 98.5q0 54 -18 97t-49 78.5t-71.5 64t-86.5 54.5zM585 960l27 528q-51 -3 -96 -17.5t-78 -42t-52 -69.5t-19 -101q0 -57 17 -101t47 -79t69.5 -63.5t84.5 -54.5z" />
    <glyph glyph-name="percent" unicode="%" horiz-adv-x="1992" 
d="M481 862q54 0 88 27.5t54 74.5t27.5 109t7.5 131q0 76 -8.5 139t-29.5 108t-55.5 69.5t-86.5 24.5q-56 0 -90.5 -27.5t-54.5 -73t-27 -105.5t-7 -125q0 -78 9 -143t30.5 -111.5t56.5 -72t86 -25.5zM500 1624q72 0 135 -26.5t110.5 -78t74.5 -127.5t27 -175
q0 -114 -34.5 -196t-89 -135t-123 -78.5t-137.5 -25.5q-71 0 -134.5 26t-112.5 77.5t-77.5 128.5t-28.5 180q0 118 36.5 200t93.5 133t126 74t134 23zM316 -78q117 152 234.5 317t229.5 331.5t216 328.5t194 306.5t163 266t123 207.5l111 -38q-38 -63 -88 -145t-109 -177.5
t-125 -201t-136.5 -216t-143.5 -222t-145.5 -219t-143 -207t-135.5 -185.5q-39 -52 -69.5 -84t-54 -49t-41.5 -23t-32 -6q-18 0 -30.5 5.5t-17.5 10.5zM1506 56q54 0 88 27.5t54 74.5t27.5 109t7.5 131q0 76 -8.5 139t-29.5 108t-55.5 69.5t-86.5 24.5q-56 0 -90.5 -27.5
t-54.5 -73t-27 -105.5t-7 -125q0 -78 9 -143t30.5 -111.5t56.5 -72t86 -25.5zM1525 818q72 0 135 -26.5t110.5 -78t74.5 -127.5t27 -175q0 -114 -34.5 -196t-89 -135t-123 -78.5t-137.5 -25.5q-71 0 -134.5 26t-112.5 77.5t-77.5 128.5t-28.5 180q0 118 36.5 200t93.5 133
t126 74t134 23z" />
    <glyph glyph-name="ampersand" unicode="&#x26;" horiz-adv-x="1925" 
d="M462 860q-19 34 -35.5 73t-28.5 80t-19 82.5t-7 81.5q0 79 29 159t87 144t146 104t207 40q152 0 233.5 -67t81.5 -183q0 -72 -32.5 -137.5t-90 -126t-136.5 -117t-173 -111.5q72 -117 169 -229t205 -209q58 83 106 174.5t85 177t63 158t40 118.5q58 0 104 1t85.5 2.5
t76.5 4t78 6.5q0 -24 -11.5 -46.5t-41.5 -40.5t-82.5 -28.5t-134.5 -10.5q-14 -43 -39.5 -108.5t-61.5 -143t-83.5 -163t-105.5 -169.5q65 -53 129 -96.5t123.5 -74.5t112.5 -48t97 -17q22 0 49.5 4.5t56 12.5t56 19.5t48.5 25.5l42 -70q-43 -33 -96.5 -63t-109 -53
t-108.5 -36.5t-94 -13.5q-44 0 -97 16t-111.5 45t-120.5 70t-125 91q-49 -50 -104.5 -90.5t-116.5 -70t-127 -45.5t-137 -16q-88 0 -168.5 26t-142 76t-98 122.5t-36.5 166.5q0 85 30 157.5t80.5 135t116 114.5t137.5 96zM659 148q78 0 148 31t133 85q-62 55 -122.5 116
t-116 126t-104.5 132.5t-89 135.5q-72 -58 -116 -132t-44 -176q0 -78 26 -137.5t69 -99.5t99.5 -60.5t116.5 -20.5zM674 966q123 73 191.5 161.5t68.5 196.5q0 39 -9.5 74t-29.5 61t-51 41.5t-73 15.5q-47 0 -82.5 -19t-58.5 -52t-34.5 -77t-11.5 -94q0 -76 24 -156.5
t66 -151.5z" />
    <glyph glyph-name="quotesingle" unicode="'" horiz-adv-x="574" 
d="M232 986q-24 156 -42.5 303.5t-33.5 294.5l298 28q-8 -34 -19 -84t-23 -108.5t-24 -121.5t-23 -122q-12 -60 -21.5 -111t-15.5 -87z" />
    <glyph glyph-name="parenleft" unicode="(" horiz-adv-x="990" 
d="M850 1824q-110 -108 -192.5 -241.5t-137 -282t-82 -308t-27.5 -318.5q0 -158 27 -317t82 -307.5t137 -282.5t193 -243l-80 -76q-131 117 -228.5 258t-162.5 297t-97 324.5t-32 341.5q0 168 31 336.5t94.5 327.5t161.5 303.5t233 263.5z" />
    <glyph glyph-name="parenright" unicode=")" horiz-adv-x="995" 
d="M140 -476q110 108 192.5 241.5t137 282t82 308t27.5 318.5q0 158 -27 317t-82 307.5t-137 282.5t-193 243l80 76q131 -117 228.5 -258t162.5 -297.5t97 -325t32 -340.5q0 -168 -31 -336.5t-94.5 -327.5t-161.5 -303.5t-233 -263.5z" />
    <glyph glyph-name="asterisk" unicode="*" horiz-adv-x="1034" 
d="M704 1150l-7 -16l-153 -59q-5 39 -11 82t-13.5 87t-15.5 88t-17 86l-249 -248l-18 3l-100 128q37 16 78.5 35.5t84 41t84 44.5t79.5 46l-305 146l-3 18l99 138q52 -60 115.5 -125.5t127.5 -122.5l53 327l16 8l156 -44q-40 -67 -82.5 -148.5t-76.5 -159.5l325 59l14 -13
l9 -162q-78 17 -168 30.5t-177 20.5z" />
    <glyph glyph-name="plus" unicode="+" horiz-adv-x="1336" 
d="M1206 482h-474v-482l-126 -8v490h-486l8 118h478v478l126 10v-488h484z" />
    <glyph glyph-name="comma" unicode="," horiz-adv-x="574" 
d="M124 163q0 33 11 61t31 48.5t49.5 32t65.5 11.5q40 0 70.5 -14t51 -39t31 -59.5t10.5 -74.5q0 -50 -15 -107t-41 -112.5t-60.5 -106.5t-73 -90t-78.5 -62t-77 -23q-11 0 -23.5 3t-23.5 11q48 37 87 81.5t66 92.5t42 98t15 98q-29 4 -54.5 16t-44 31t-29 45t-10.5 59z" />
    <glyph glyph-name="hyphen" unicode="-" horiz-adv-x="834" 
d="M96 652h642l-18 -164h-612z" />
    <glyph glyph-name="hyphen" unicode="&#x2010;" horiz-adv-x="834" 
d="M96 652h642l-18 -164h-612z" />
    <glyph glyph-name="hyphen" unicode="&#xad;" horiz-adv-x="834" 
d="M96 652h642l-18 -164h-612z" />
    <glyph glyph-name="period" unicode="." horiz-adv-x="574" 
d="M295 282q75 0 112 -39t37 -111q0 -78 -42 -122t-120 -44q-72 0 -112 39.5t-40 113.5q0 79 44 121t121 42z" />
    <glyph glyph-name="slash" unicode="/" horiz-adv-x="858" 
d="M838 1736l-630 -2100l-128 30l630 2098z" />
    <glyph glyph-name="zero" unicode="0" horiz-adv-x="1338" 
d="M675 76q62 0 109 20.5t81 55.5t56 81.5t35 99t18.5 108t5.5 107.5q0 90 -15.5 174.5t-51.5 150t-96 104.5t-150 39q-64 0 -112 -20t-82 -54.5t-56.5 -80.5t-35.5 -97t-18 -104t-5 -103q0 -90 16 -176.5t53 -154t97.5 -109t150.5 -41.5zM705 1126q113 0 210.5 -37
t169.5 -108.5t113.5 -176t41.5 -240.5q0 -105 -24.5 -189.5t-67 -151t-100 -115t-124 -80t-138 -47t-142.5 -15.5q-109 0 -208 35.5t-174 106t-119.5 177t-44.5 247.5q0 108 26 194t71 152t105 113t127.5 77t138.5 44t139 14z" />
    <glyph glyph-name="one" unicode="1" horiz-adv-x="757" 
d="M309 520q0 60 -0.5 107.5t-1 85.5t-1 68t-1.5 57q-1 18 -4 29.5t-13 19t-28 10.5t-49 3q-32 0 -71 -2.5t-73.5 -5.5l-57.5 -5q-24 -3 -26 -3l18 80q97 15 182.5 35t155.5 42t123 44t87 41l16 -12q-12 -143 -15 -308t-3 -374v-41q0 -30 1 -70v-86t1 -90.5t2.5 -82.5
t3.5 -62q-85 -9 -145.5 -18.5t-90.5 -15.5l-18 12q4 115 6 252.5t2 289.5z" />
    <glyph glyph-name="two" unicode="2" horiz-adv-x="1109" 
d="M357 760q-10 -18 -26 -32.5t-35 -24.5t-40.5 -15.5t-43.5 -5.5q-23 0 -44.5 6.5t-37.5 19t-25.5 31t-9.5 43.5q0 38 22 78.5t60.5 78.5t89.5 72t108.5 59.5t118.5 40.5t120 15q84 0 144 -30.5t98.5 -77.5t56.5 -105.5t18 -113.5q0 -68 -23.5 -128.5t-63 -115t-91 -104
t-106.5 -95.5q-23 -18 -42 -33q-19 -16 -42.5 -34.5t-55.5 -42.5l-80 -60l2 -6q26 0 46 1h42t51 1h72q45 0 94.5 -0.5t100.5 -1.5t100.5 -3t93.5 -5l-68 -182q-48 4 -107 6t-115 3t-103 1h-69q-95 0 -166 -0.5t-129 -2t-108.5 -4t-102.5 -7.5q0 30 20.5 58t56.5 57t85 60
t106 69q70 46 134 95.5t113 108t78 130t29 161.5q0 69 -17.5 117t-47.5 77.5t-70.5 43t-85.5 13.5q-68 0 -111.5 -28t-43.5 -85q0 -25 10.5 -51t39.5 -52zM429 180z" />
    <glyph glyph-name="three" unicode="3" horiz-adv-x="1076" 
d="M320 786q-18 -41 -59 -61.5t-83 -20.5q-21 0 -40.5 5.5t-34.5 16.5t-24 28t-9 41q0 37 23 76t61.5 76t90 69.5t108.5 57t116 38.5t114 14q75 0 133 -26t97.5 -68t60 -95.5t20.5 -108.5q0 -42 -13 -87t-43.5 -91t-80 -92.5t-121.5 -91.5l2 -8q57 -4 119 -27t113 -65.5
t84.5 -105t33.5 -145.5q0 -77 -29 -152.5t-79 -144.5t-117.5 -128t-144 -102t-158 -67.5t-160.5 -24.5q-57 0 -102 12.5t-76.5 34t-48.5 49.5t-17 60q0 33 19 67.5t61 66.5q75 -71 146.5 -97.5t144.5 -26.5q59 0 115.5 15.5t101 53t71.5 99.5t27 155q0 71 -18 132
t-55.5 105.5t-95 70t-136.5 25.5q-38 0 -72 -6.5t-81 -21.5q0 32 12 52.5t33 35t49 26.5q28 11 60 26q37 18 76.5 39.5t71 55t52 83.5t20.5 126q0 70 -17.5 117.5t-47 77t-67.5 42.5t-79 13q-36 0 -67 -8.5t-54 -23t-36.5 -34.5t-13.5 -43q0 -39 44 -89z" />
    <glyph glyph-name="four" unicode="4" horiz-adv-x="1304" 
d="M666 1078q51 11 96.5 22.5t81.5 25.5l16 -12q-36 -98 -97 -204t-139 -222t-168 -242q-91 -126 -186 -264l2 -6q93 3 197 4.5t229 1.5q2 54 4 106q1 51 6 114q1 22 3 36.5t5.5 25.5t8.5 20t13 20q8 10 29.5 32t50.5 48.5t61 53t61 44.5l20 -12q-7 -59 -12 -112.5
t-8 -110.5t-5 -121.5t-3 -145.5q88 -2 172.5 -4.5t159.5 -5.5l-66 -176q-38 5 -107.5 6.5t-162.5 3.5v-235q0 -48 0.5 -93t1.5 -83.5t2 -64.5q-85 -9 -141.5 -18.5t-86.5 -15.5l-18 12q2 52 3.5 119.5t2.5 136.5t1.5 133t0.5 111q-221 0 -387.5 -4.5t-266.5 -13.5
q0 32 25.5 76t73.5 110t117 159q68 92 154 221q51 77 89 140t68 123.5t53.5 123t45.5 137.5z" />
    <glyph glyph-name="five" unicode="5" horiz-adv-x="1055" 
d="M140 306q30 198 47 388.5t23 391.5q69 -8 144.5 -11t159.5 -3q107 0 214 4t202 12l-70 -192q-41 -5 -83 -7t-79 -3.5t-67 -1.5h-44q-69 0 -110.5 0.5t-68.5 1.5q-28 1 -48.5 1.5t-47.5 0.5q-3 -51 -7 -98t-9 -92t-10 -90.5t-10 -93.5q53 12 101.5 17t93.5 5
q131 0 223.5 -37t151.5 -96t86.5 -133t27.5 -148q0 -77 -26.5 -153t-72.5 -145.5t-109 -129.5t-137 -104t-155.5 -69t-163.5 -25q-59 0 -104.5 12.5t-77 34t-48 51t-16.5 63.5q0 30 15.5 62t56.5 63q73 -71 145 -97.5t143 -26.5q64 0 121 18.5t100 59t68 105.5t25 158
q0 87 -23.5 149t-68 101.5t-109 58t-145.5 18.5q-54 0 -107.5 -8t-116.5 -26z" />
    <glyph glyph-name="six" unicode="6" horiz-adv-x="1251" 
d="M356 746q0 -170 28 -294t76.5 -205t114 -120t140.5 -39q109 0 164 74.5t55 208.5q0 91 -25 169t-69 135t-103.5 89t-129.5 32q-18 0 -40.5 -2.5t-46 -8.5t-47 -16t-43.5 -25q-4 11 -4 20q0 24 20 56.5t60 61t99 48.5t136 20q100 0 177.5 -36t130 -98t80 -145t27.5 -176
q0 -117 -41 -214.5t-112 -167t-167 -108.5t-207 -39q-119 0 -214.5 45t-163.5 129t-104.5 205t-36.5 273q0 144 32.5 274.5t89 242.5t133.5 202t166.5 154t187 98.5t195.5 34.5q57 0 98.5 -11.5t68.5 -30t40 -42t13 -47.5q0 -29 -17 -55t-49 -44q-66 38 -128 57t-127 19
q-88 0 -170.5 -38t-146 -123.5t-102 -224t-38.5 -338.5z" />
    <glyph glyph-name="seven" unicode="7" horiz-adv-x="1106" 
d="M92 1088q87 -9 186 -12.5t200 -3.5q93 0 181.5 2.5t162.5 6t129 7.5t81 8q0 -37 -12 -77.5t-35 -90t-56 -110t-75 -136.5q-42 -77 -93 -172t-109 -214q-56 -113 -95.5 -203t-69 -173t-52.5 -168t-45 -188q-57 -15 -104.5 -31.5t-89.5 -36.5l-16 12q44 163 113 320
t155 322.5t186 345.5q99 180 204 388l-2 6q-88 -5 -194 -8.5t-233 -3.5q-98 0 -196 3t-179 11z" />
    <glyph glyph-name="eight" unicode="8" horiz-adv-x="1186" 
d="M1047 1310q0 -67 -22.5 -122.5t-62 -105.5t-93.5 -98t-118 -100q65 -44 128.5 -93.5t113.5 -106t81 -120t31 -135.5q0 -43 -12.5 -94t-40.5 -102.5t-72 -99.5t-106.5 -85t-144.5 -59.5t-186 -22.5q-115 0 -201.5 27.5t-144 76.5t-86 114.5t-28.5 142.5q0 55 16.5 109
t54.5 110.5t101.5 117.5t157.5 132q-54 37 -105.5 80t-91 91.5t-63.5 102.5t-24 114q0 39 11.5 87t37.5 96.5t67 95t99 82t135 57.5t175 22q103 0 177.5 -25t122.5 -68t70.5 -100t22.5 -121zM339 1310q0 -56 26 -104t71 -92t105 -86.5t128 -87.5q96 66 138 144.5t42 158.5
q0 54 -18.5 101.5t-53.5 83t-86 56t-117 20.5q-52 0 -95.5 -13.5t-74.5 -38.5t-48 -61t-17 -81zM889 312q0 66 -32.5 122.5t-84 106.5t-116.5 95.5t-131 87.5l-28 18q-104 -75 -153 -165t-49 -181q0 -67 25 -124.5t69 -99.5t104 -66t131 -24q62 0 111 18t83.5 49.5t52.5 73
t18 89.5z" />
    <glyph glyph-name="nine" unicode="9" horiz-adv-x="1252" 
d="M894 351q0 164 -27 286.5t-74 204t-112 122t-140 40.5q-54 0 -94.5 -20t-67.5 -57t-41 -89.5t-14 -116.5q0 -88 24 -165.5t67.5 -135t102.5 -91t130 -33.5q18 0 40 2.5t45.5 8.5t47 16t43.5 25q2 -4 3 -9t1 -10q0 -28 -23 -61t-65 -62t-101.5 -48.5t-132.5 -19.5
q-100 0 -175.5 38.5t-126.5 102.5t-76.5 148t-25.5 175q0 123 43.5 220.5t117 165t169 103t200.5 35.5q121 0 215.5 -47t159.5 -132t99 -203.5t34 -262.5q0 -141 -31.5 -269t-86.5 -237t-129.5 -198t-160.5 -151t-180 -96t-188 -34q-53 0 -97.5 11t-76 30.5t-49 46.5
t-17.5 59q0 62 60 121q34 -34 68.5 -56t68.5 -35t67 -18t64 -5q88 0 168.5 38t141 121.5t96.5 217t36 324.5z" />
    <glyph glyph-name="colon" unicode=":" horiz-adv-x="574" 
d="M315 282q75 0 112 -39t37 -111q0 -78 -42 -122t-120 -44q-72 0 -112 39.5t-40 113.5q0 79 44 121t121 42zM315 1086q75 0 112 -39t37 -111q0 -78 -42 -122t-120 -44q-72 0 -112 39.5t-40 113.5q0 79 44 121t121 42z" />
    <glyph glyph-name="semicolon" unicode=";" horiz-adv-x="574" 
d="M144 163q0 33 11 61t31 48.5t49.5 32t65.5 11.5q40 0 70.5 -14t51 -39t31 -59.5t10.5 -74.5q0 -50 -15 -107t-41 -112.5t-60.5 -106.5t-73 -90t-78.5 -62t-77 -23q-11 0 -23.5 3t-23.5 11q48 37 87 81.5t66 92.5t42 98t15 98q-29 4 -54.5 16t-44 31t-29 45t-10.5 59z
M315 1086q75 0 112 -39t37 -111q0 -78 -42 -122t-120 -44q-72 0 -112 39.5t-40 113.5q0 79 44 121t121 42z" />
    <glyph glyph-name="less" unicode="&#x3c;" horiz-adv-x="1336" 
d="M1092 28l-972 454l8 118l964 452l50 -110l-856 -402l856 -402z" />
    <glyph glyph-name="equal" unicode="=" horiz-adv-x="1336" 
d="M1206 262h-1086l8 118h1088zM1206 702h-1086l8 118h1088z" />
    <glyph glyph-name="greater" unicode="&#x3e;" horiz-adv-x="1336" 
d="M242 1054l974 -454l-10 -118l-964 -452l-50 110l858 404l-858 400z" />
    <glyph glyph-name="question" unicode="?" horiz-adv-x="1093" 
d="M348 1249q-22 -32 -59.5 -51t-77.5 -19q-45 0 -78 25t-33 74q0 38 22.5 78.5t60.5 79t90 73t110 60t120.5 40.5t122.5 15q81 0 140.5 -27t98.5 -70.5t58.5 -100t19.5 -114.5q0 -79 -30.5 -143.5t-76 -121.5t-98.5 -109q-54 -53 -99.5 -106.5t-76 -111.5t-30.5 -126
q0 -30 7 -60t24 -67q-13 -5 -26.5 -7.5t-23.5 -2.5q-28 0 -47 15.5t-30.5 39t-16.5 52t-5 54.5q0 59 21 111t52.5 101t68.5 97q36 48 67.5 99t52.5 107t21 121q0 60 -18.5 102.5t-49.5 69.5t-71.5 39t-84.5 12q-77 0 -123.5 -33t-46.5 -90q0 -50 45 -105zM504 275
q72 0 108.5 -38.5t36.5 -107.5q0 -77 -41.5 -120t-116.5 -43q-71 0 -110 38.5t-39 110.5q0 77 43 118.5t119 41.5z" />
    <glyph glyph-name="at" unicode="@" horiz-adv-x="2152" 
d="M1473 157q60 0 109.5 25t89 68t69.5 100t49.5 121t29.5 131t10 131q0 136 -44.5 251t-129 198.5t-208 130.5t-280.5 47q-133 0 -247 -34t-207.5 -96t-165.5 -149.5t-121 -194t-74.5 -229.5t-25.5 -257q0 -174 44 -313t133.5 -236.5t224.5 -149.5t318 -52q49 0 101.5 4
t109.5 14q0 -33 -26.5 -59t-72.5 -44t-106.5 -27.5t-128.5 -9.5q-171 0 -313.5 60t-244.5 169t-159 262t-57 340q0 152 38 294t107.5 266.5t167.5 227t218.5 176t259.5 114t290 40.5q168 0 308 -50.5t240.5 -143.5t156.5 -225.5t56 -296.5q0 -130 -34 -237.5t-89.5 -192.5
t-127 -148t-146 -104.5t-146.5 -62t-129 -20.5q-32 0 -57.5 7t-44.5 24t-29 46.5t-10 73.5q0 25 3 53.5t7.5 57t9.5 55.5t9 49l-9 2q-75 -108 -143.5 -179t-127.5 -113t-107 -59t-81 -17q-45 0 -75 25t-48 65.5t-25.5 90t-7.5 99.5q0 104 28 200t78.5 179.5t120 151.5
t153 116.5t178 75t193.5 26.5q47 0 96.5 -6.5t100.5 -20.5q-18 -51 -36 -116.5t-35.5 -137t-32.5 -145t-26 -139t-17.5 -119.5t-6.5 -87q0 -48 19.5 -72t75.5 -24zM883 204q38 0 80 25.5t82.5 65.5t77.5 89t65.5 96.5t46 87.5t18.5 61q0 7 4 27t11 46q6 25 13 53t14 52
q6 23 10 38.5t4 16.5q-77 24 -139 24q-65 0 -118 -22.5t-96 -60.5t-74.5 -89t-52.5 -107.5t-31.5 -116t-10.5 -114.5q0 -86 24.5 -129t71.5 -43z" />
    <glyph glyph-name="A" unicode="A" horiz-adv-x="1768" 
d="M1258 844q48 -138 85 -243.5t65 -183.5t49 -131.5t37 -87.5q15 -35 28 -56t40.5 -34t77 -19.5t136.5 -12.5l-40 -90q-12 1 -44 3.5t-77.5 4.5t-101 4t-115.5 2q-64 0 -126.5 -2t-113.5 -5t-84.5 -5.5t-39.5 -3.5q0 10 3.5 26.5t23 33.5t59.5 32t114 22q-26 84 -63.5 196
t-88.5 252q-165 0 -301 -1t-257 -5q-35 -81 -59 -137t-39.5 -94.5t-25.5 -63.5t-16 -43q-11 -31 -15.5 -47t-4.5 -26q0 -12 8.5 -20t31 -13.5t62 -9.5t102.5 -8l-40 -90q-8 1 -39 3t-73 4t-88 3.5t-83 1.5q-41 0 -88.5 -2t-89 -4t-71 -4.5t-34.5 -3.5q0 10 4 26.5t25 34
t65 32.5t124 21q28 52 66 129t82 171t92 200.5t98 217.5q60 135 104 235.5t76 175t54 128t38 95t28.5 76.5t25.5 72q16 1 36 3t41.5 5t43 6.5t41.5 7.5q16 -61 35.5 -128t48 -156.5t69.5 -209t99 -284.5zM1238 91zM1530 76zM189 94zM335 78zM570 644q117 5 234 7
q117 1 240 3l-56 158q-36 106 -73 213q-37 106 -73 217h-8q-48 -112 -95.5 -222t-98.5 -222z" />
    <glyph glyph-name="B" unicode="B" horiz-adv-x="1542" 
d="M300 502v732q0 93 -0.5 151.5t-1.5 98.5q-66 -9 -125.5 -19t-116.5 -21l24 100q64 16 146 30.5t170.5 25.5t178 17.5t168.5 6.5q67 0 136.5 -6t135 -20.5t123.5 -40t101 -64.5t68 -94t25 -128q0 -72 -24.5 -130t-67.5 -104t-102.5 -81.5t-129.5 -63.5v-6
q87 -11 167 -36.5t140.5 -72t96.5 -117.5t36 -173q0 -126 -55 -220t-149 -156.5t-217.5 -93.5t-261.5 -31q-40 0 -80 2t-82 5q-43 3 -89.5 5t-99.5 2q-57 0 -115.5 -2.5t-106.5 -5.5t-79 -6q-32 -2 -35 -2q0 9 3.5 25.5t23 34.5t62 33t121.5 21q4 45 6.5 108t4 138t1.5 158z
M700 796q-18 0 -39.5 -0.5t-42 -1.5t-36.5 -2t-24 -2q0 -165 0.5 -273.5t1.5 -176t2.5 -101.5t3.5 -49q4 -30 17.5 -48t35 -27t50.5 -12t65 -3q108 0 185.5 18t127 57t72.5 101t23 149q0 105 -31 176.5t-88.5 114.5t-139.5 61.5t-183 18.5zM558 886q61 1 122 6.5t117 18.5
t104 36t83.5 60t55.5 89t20 123q0 83 -28 139.5t-79.5 91t-124.5 49.5t-164 15q-21 0 -48.5 -1t-53.5 -3q-2 -53 -3 -121.5t-1 -149.5v-353z" />
    <glyph glyph-name="C" unicode="C" horiz-adv-x="1676" 
d="M1428 1136q-17 97 -55 165t-97 111.5t-138.5 63.5t-178.5 20q-279 0 -417 -152.5t-138 -462.5q0 -105 16 -204.5t49 -188t83.5 -162.5t119.5 -127t157 -83t196 -30q102 0 175 27t126 78t90.5 123.5t69.5 163.5l90 -20q-17 -88 -32 -153t-29 -111t-28.5 -75t-30.5 -45
q-27 -26 -86 -46t-133 -33.5t-153.5 -21t-147.5 -7.5q-185 0 -336 53t-258.5 153.5t-166.5 245t-59 326.5q0 204 72 367t197.5 277t294 175t362.5 61q64 0 126.5 -6.5t118 -16.5t101.5 -23t76 -26q23 -11 33.5 -22.5t12.5 -43.5q1 -12 1.5 -49.5t1 -87t1.5 -104.5
q0 -55 2 -101z" />
    <glyph glyph-name="D" unicode="D" horiz-adv-x="1849" 
d="M84 1546q101 20 201 35t193.5 24.5t177.5 14t153 4.5q231 0 404.5 -50t289 -145t173.5 -233t58 -313q0 -104 -21.5 -211.5t-67.5 -207t-119.5 -187t-177.5 -153t-240.5 -103t-309.5 -37.5q-47 0 -90.5 2.5t-88.5 5.5q-46 3 -95.5 5.5t-107.5 2.5q-59 0 -118 -2.5
t-107 -5.5t-79 -6q-31 -2 -34 -2q0 9 3.5 25.5t23 34.5t62 33t121.5 21q4 45 6.5 108.5t4 139t1.5 158.5v832q0 47 -0.5 81.5t-1.5 62.5l-120 -18q-60 -9 -120 -20zM712 1514q-68 0 -150 -6q-2 -50 -3 -114.5t-1 -154.5v-487q0 -155 0.5 -258t1 -166.5t2 -93.5t4.5 -40
q3 -32 18.5 -51.5t42 -30t62.5 -13.5t80 -3q146 0 253 25.5t182 70t121.5 105.5t72.5 132t35 149.5t9 157.5q0 207 -49 354.5t-142.5 241.5t-229.5 138t-309 44z" />
    <glyph glyph-name="E" unicode="E" horiz-adv-x="1489" 
d="M560 770v-386q0 -75 1 -125t3 -69q2 -29 11.5 -45.5t32.5 -25t63 -11t103 -2.5q94 0 163 4.5t120 17.5t88.5 37t67.5 63.5t57 95.5t58 134l90 -20q-24 -108 -42 -183.5t-33 -126t-29 -80t-30.5 -44t-37 -18.5t-48.5 -4q-22 0 -69 1.5t-109 3.5t-135.5 4t-149 4
t-148.5 3.5t-135 1.5q-177 0 -268 -8q-92 -8 -112 -8q0 9 3.5 25.5t23.5 34.5t64 33t125 21q4 42 6.5 106t4 137t1.5 149v415q0 114 -0.5 194.5t-1.5 132t-2 85.5t-2 55t-2 40q-2 28 -6.5 44t-25.5 25t-65.5 14.5t-126.5 12.5l34 88q25 -4 120.5 -8t251.5 -4q78 0 162.5 1
t167 3t157 4t133.5 4q58 2 94.5 3t42.5 1q14 0 29 -9.5t16 -40.5q2 -58 2 -144t4 -178l-88 -10q-13 62 -26 106t-32 72.5t-47.5 45t-73.5 24.5t-109 10t-154 2h-182q-3 -54 -5 -114t-3 -132t-1.5 -159.5t-0.5 -196.5q121 9 220 16t171 12t115 7.5t52 2.5q31 0 43.5 -24.5
t12.5 -54.5q0 -28 -7 -50.5t-13 -38.5q-78 4 -152 7.5t-146.5 6.5t-146 5.5t-149.5 4.5z" />
    <glyph glyph-name="F" unicode="F" horiz-adv-x="1356" 
d="M560 734v-181q0 -76 0.5 -132t1 -94t1 -65t1.5 -46.5t2 -37.5q1 -28 6.5 -45t32.5 -27.5t84.5 -17t162.5 -12.5l-40 -92q-27 3 -70.5 6t-95 5t-107 3.5t-106.5 1.5q-72 0 -135 -2.5t-111 -5.5t-78 -6q-30 -2 -37 -2q0 9 3.5 25.5t23.5 34.5t64 33t125 21q4 42 6.5 106
t4 137t1.5 149v415q0 114 -0.5 194.5t-1.5 132t-2 85.5t-2 55t-2 40q-2 28 -6.5 44t-25.5 25t-65.5 14.5t-126.5 12.5l34 88q26 -4 119.5 -8t260.5 -4q83 0 168.5 1t165.5 3t150.5 4t124.5 4q53 2 86.5 3t38.5 1q13 0 28 -9.5t16 -40.5q1 -29 1.5 -68.5t1 -84.5t1.5 -93
q0 -48 2 -94l-88 -10q-12 68 -24.5 115.5t-32 78.5t-48.5 48.5t-74 25.5t-109.5 10t-153.5 2h-166q-6 -109 -8 -264.5t-2 -373.5q253 18 388 25t153 7q36 0 48.5 -24.5t12.5 -54.5t-7 -53t-13 -40q-78 6 -150 11t-142.5 9t-142 7t-147.5 5z" />
    <glyph glyph-name="G" unicode="G" horiz-adv-x="1806" 
d="M1449 1152q-30 175 -146 259.5t-333 84.5q-157 0 -265.5 -42.5t-175.5 -122.5t-96.5 -195t-29.5 -260q0 -102 14.5 -200t45.5 -185.5t80 -161.5t119 -127.5t161.5 -83.5t206.5 -30q26 0 60 2t70 6.5t71 11.5t64 18q0 82 -0.5 147t-1.5 115.5t-2.5 88t-3.5 65.5t-7 44
t-30.5 25t-78 14t-148.5 13l32 88q9 -2 50 -4t96.5 -3.5t117.5 -3t113 -1.5q77 0 139 3t106 6t68 6t26 3q0 -12 -4 -29.5t-23.5 -35.5t-62 -33t-118.5 -22q-6 -102 -6 -262q0 -40 0.5 -75t1.5 -71t3 -74t5 -84q-35 -3 -99 -16t-146.5 -27t-177.5 -25.5t-192 -11.5
q-197 0 -352 53.5t-263 154.5t-165 245.5t-57 326.5q0 143 34.5 264t97 218.5t149 171.5t190.5 124t221.5 75t241.5 25q61 0 124.5 -5.5t121.5 -15t106.5 -22.5t79.5 -27q12 -5 21 -9.5t15 -11.5t9.5 -17t4.5 -26q1 -17 1.5 -54t1 -83.5t1.5 -97.5q0 -51 2 -95z" />
    <glyph glyph-name="H" unicode="H" horiz-adv-x="1936" 
d="M1636 817v-202q0 -86 0.5 -150.5t1 -109.5t1 -77.5t1.5 -56.5t2 -45q1 -28 6.5 -44.5t28.5 -27t72 -16.5t137 -12l-40 -90q-11 1 -45.5 3.5t-82 4.5t-103.5 4t-110 2q-65 0 -124.5 -2.5t-105.5 -5.5t-75 -6q-30 -2 -36 -2q0 9 3.5 25.5t23 34.5t59.5 33t114 21
q9 100 10.5 254.5t1.5 377.5v48q-221 0 -422.5 -3.5t-393.5 -10.5q0 -151 0.5 -253.5t1 -169.5t1.5 -105t3 -60q2 -28 7.5 -44.5t27.5 -27t67.5 -16.5t127.5 -12l-40 -90q-11 1 -43.5 3.5t-78 4.5t-100.5 4t-109 2q-66 0 -127 -2.5t-109.5 -5.5t-79.5 -6q-32 -2 -37 -2
q0 9 3.5 25.5t23.5 34.5t64 33t125 21q4 42 6.5 106t4 137t1.5 149v415q0 114 -0.5 194.5t-1.5 132t-2 85.5t-2 55t-2 40q-2 28 -6.5 44t-25.5 25t-65.5 14.5t-126.5 12.5l34 88q8 -2 42.5 -4t82.5 -4t102.5 -3t102.5 -1q76 0 139.5 3t109.5 6t73 6t30 3q0 -12 -4.5 -29.5
t-25.5 -35.5t-63.5 -33t-118.5 -22q-4 -53 -6.5 -109.5t-3.5 -127.5t-1.5 -162.5t-0.5 -212.5q197 9 398 13.5t418 6.5q0 136 -1 224.5t-2 145.5t-2 91q-2 34 -3 61q-2 28 -7.5 44t-26 25t-62 14.5t-116.5 12.5l34 88q8 -2 41.5 -4t80 -4t100 -3t101.5 -1q77 0 142 3t113 6
t76 6t30 3q0 -12 -4 -29.5t-25.5 -35.5t-67.5 -33t-129 -22q-4 -57 -6.5 -118t-3.5 -138.5t-1.5 -177t-0.5 -231.5z" />
    <glyph glyph-name="I" unicode="I" horiz-adv-x="860" 
d="M560 817v-202q0 -86 0.5 -150.5t1 -109.5t1 -77.5t1.5 -56.5t2 -45q1 -28 6.5 -44.5t28.5 -27t72 -16.5t137 -12l-40 -90q-11 1 -45 3.5t-82 4.5t-104.5 4t-111.5 2q-68 0 -129.5 -2.5t-110 -5.5t-78.5 -6q-31 -2 -37 -2q0 9 3.5 25.5t23.5 34.5t64 33t125 21
q4 42 6.5 105.5t4 137t1.5 151.5v427q0 112 -0.5 187t-1.5 120.5t-2 76t-2 54.5q-1 23 -2 55q-2 28 -6.5 44t-26 25t-66 14.5t-125.5 12.5l34 88q9 -2 43.5 -4t82 -4t102.5 -3t104 -1q79 0 145 3t114 6t75 6t30 3q0 -12 -4 -29.5t-25.5 -35.5t-67.5 -33t-129 -22
q-4 -57 -6.5 -118t-3.5 -138.5t-1.5 -177t-0.5 -231.5z" />
    <glyph glyph-name="J" unicode="J" horiz-adv-x="822" 
d="M290 877q0 92 -0.5 161t-1 121t-1 89t-1.5 66t-2 52l-2 46q-2 28 -7 44t-27 25t-67 14.5t-127 12.5l34 88q9 -2 44 -4t83.5 -4t104 -3t104.5 -1q79 0 145 3t114 6t75 6t30 3q0 -12 -4.5 -29.5t-27 -35.5t-69 -33t-129.5 -22q-7 -105 -8.5 -208.5t-1.5 -196.5
q0 -150 1 -260.5t2 -191.5t2 -136q1 -56 1 -95q0 -141 -14 -248.5t-42.5 -190.5t-71 -146.5t-99.5 -116.5t-128 -100t-157 -98l-58 82q56 40 101 78.5t79 84t58.5 101.5t40 131.5t22.5 174t7 228.5q0 62 -1 184.5t-1 318.5z" />
    <glyph glyph-name="K" unicode="K" horiz-adv-x="1777" 
d="M560 817v-202q0 -86 0.5 -150.5t1 -109.5t1 -77.5t1.5 -56.5t2 -45q1 -28 6.5 -44.5t28 -27t69 -16.5t130.5 -12l-40 -90q-11 1 -43.5 3.5t-78.5 4.5t-101 4t-110 2q-68 0 -129.5 -2.5t-110 -5.5t-78.5 -6q-31 -2 -37 -2q0 9 3.5 25.5t23.5 34.5t64 33t125 21
q4 42 6.5 105.5t4 137t1.5 151.5v427q0 112 -0.5 187t-1.5 120.5t-2 76t-2 54.5q-1 23 -2 55q-2 28 -6.5 44t-26 25t-66 14.5t-125.5 12.5l34 88q9 -2 43.5 -4t82 -4t102.5 -3t104 -1q79 0 144 3t111 6t72 6t29 3q0 -13 -4.5 -30.5t-25.5 -35t-65 -32.5t-123 -22
q-4 -57 -6.5 -118t-3.5 -138.5t-1.5 -177t-0.5 -231.5zM588 782q97 78 191 162.5t181 165.5q95 91 155.5 152.5t95.5 102t48 63.5t13 37q0 10 -6 16t-21.5 9.5t-42.5 5.5t-68 4l26 92q14 -1 39.5 -2.5t58 -2.5t70.5 -2t77 -1q98 0 185 5t148 13q0 -24 -11 -43.5t-37 -34.5
t-68.5 -25t-105.5 -15q-38 -32 -91 -79.5t-113.5 -104t-124.5 -117t-123.5 -118t-111.5 -109t-88 -88.5q204 -242 349 -418q144 -176 233 -264q31 -31 57.5 -50t60.5 -30.5t80.5 -17.5t117.5 -10l-40 -90q-12 1 -44 3t-78 4t-102 3.5t-114 1.5q-39 0 -79 -1t-65 -3
q-162 213 -321.5 408t-330.5 378zM1515 1489zM1363 1500zM1537 78z" />
    <glyph glyph-name="L" unicode="L" horiz-adv-x="1448" 
d="M560 811v-422q0 -79 1 -129.5t3 -69.5q2 -29 11.5 -45.5t32.5 -25t62.5 -11t102.5 -2.5q91 0 158.5 4.5t118 17.5t87 37t66.5 63t57 95.5t58 134.5l90 -20q-24 -108 -42 -183.5t-33 -126t-29 -80t-30.5 -44t-37 -18.5t-48.5 -4q-22 0 -68 1.5t-107 3.5t-133.5 4t-146.5 4
t-146.5 3.5t-134.5 1.5q-177 0 -268 -8q-92 -8 -112 -8q0 9 3.5 25.5t23.5 34.5t64 33t125 21q4 42 6.5 106t4 137t1.5 149v415q0 114 -0.5 194.5t-1.5 132t-2 85.5t-2 55t-2 40q-2 28 -6.5 44t-25.5 25t-65.5 14.5t-126.5 12.5l34 88q9 -2 43.5 -4t82 -4t102.5 -3t104 -1
q79 0 145 3t114 6t75 6t30 3q0 -12 -4 -29.5t-25.5 -35.5t-67.5 -33t-129 -22q-4 -57 -6.5 -118t-3.5 -139t-1.5 -178.5t-0.5 -235.5z" />
    <glyph glyph-name="M" unicode="M" horiz-adv-x="2314" 
d="M1785 1586q6 0 38 -1t75 -1q64 0 125.5 3t109.5 6t78 6t32 3q0 -12 -4 -29.5t-26.5 -35.5t-72.5 -33t-141 -22q-2 -37 -2 -70v-73q0 -89 3.5 -232.5t8.5 -328.5q4 -157 7.5 -260.5t6.5 -170.5t6 -105.5t6 -65.5q2 -28 7.5 -44.5t29 -27t72 -16.5t137.5 -12l-40 -90
q-11 1 -45.5 3.5t-82 4.5t-103.5 4t-110 2q-65 0 -123.5 -2.5t-104 -5.5t-74.5 -6q-29 -2 -35 -2q0 9 3.5 25.5t22.5 33.5t58.5 32t111.5 21q2 31 2 62v78q0 96 -2.5 224t-7.5 286q-5 147 -9 264q-5 117 -7 198l-8 2q-148 -272 -301.5 -572.5t-316.5 -637.5q-18 -2 -37 -5.5
t-37 -8.5q-124 329 -268 631.5t-298 586.5l-6 -2q-8 -93 -16.5 -196.5t-16 -207.5t-14.5 -203.5t-12 -182.5t-8 -145.5t-3 -92.5q0 -27 5.5 -43.5t29.5 -26.5t71.5 -16t131.5 -12l-40 -90q-10 1 -38 3.5t-68.5 4.5t-90 4t-102.5 2q-63 0 -116.5 -2.5t-93 -5.5t-63.5 -6
q-25 -2 -30 -2q0 9 5 26t29 35t73.5 33.5t138.5 21.5q10 66 21 164.5t22 214.5t21 242t19 246t16 226.5t11 184.5q-29 37 -54.5 60t-58.5 37t-78.5 21t-114.5 12l34 88q12 -2 53 -4t96 -3.5t116 -3t113 -1.5q37 0 75 1t59 3q161 -272 305.5 -563t276.5 -595h8
q112 224 264.5 512.5t345.5 643.5zM240 94zM384 76zM361 1508z" />
    <glyph glyph-name="N" unicode="N" horiz-adv-x="1893" 
d="M1613 944v-508q0 -71 1 -140t3 -141t6 -155q-20 -2 -43.5 -6t-47 -9t-45.5 -10t-38 -9q-244 330 -496.5 642t-515.5 616l-6 -2q-3 -56 -4 -108t-1.5 -110.5t-0.5 -128.5v-163q0 -127 0.5 -217t1 -152.5t1.5 -101.5t3 -65q1 -28 7.5 -44.5t31.5 -27t74.5 -16.5t136.5 -12
l-40 -90q-10 1 -39.5 3.5t-71 4.5t-92 4t-102.5 2q-63 0 -118 -2.5t-97 -5.5t-68 -6q-26 -2 -30 -2q0 9 4 25.5t27.5 34.5t73 33t141.5 21q7 67 11.5 134.5t7 148.5t3 182.5t0.5 236.5q0 190 -1 335.5t-9 258.5q-35 34 -61 53.5t-58 31t-76.5 17.5t-114.5 12l34 88
q12 -2 50 -4t89 -3.5t109 -3t110 -1.5q37 0 74 1t58 3q111 -125 236.5 -271t253 -299t249.5 -305.5t227 -288.5h8q4 68 6 131t3 116t1 94v65q0 106 -0.5 184.5t-1 135.5t-2 96.5t-3 69t-3.5 51.5t-4 45q-3 28 -8.5 44t-29 25.5t-72.5 15t-138 11.5l26 88q7 -2 40.5 -4
t78.5 -4t95.5 -3t91.5 -1q65 0 123 3t101.5 6t69.5 6t28 3q0 -12 -3.5 -29.5t-26 -35.5t-71 -33t-137.5 -22q-7 -69 -11 -144.5t-6 -147.5t-2.5 -136t-0.5 -110z" />
    <glyph glyph-name="O" unicode="O" horiz-adv-x="1904" 
d="M399 882q0 -182 45 -326t127 -244t197.5 -153t255.5 -53q97 0 184.5 28.5t154 97.5t105.5 184.5t39 288.5q0 183 -45.5 328t-127.5 245.5t-196.5 154t-253.5 53.5q-97 0 -185 -29.5t-154.5 -99.5t-106 -186t-39.5 -289zM1018 1624q159 0 299 -52.5t245 -154t166 -250
t61 -339.5q0 -154 -39 -277.5t-106.5 -219t-157 -164.5t-190 -114t-206.5 -66t-206 -21q-104 0 -201 22t-182.5 66t-156.5 110t-122 154t-79 198t-28 241q0 160 40.5 286.5t109.5 223t160 164.5t191.5 111t204 62.5t197.5 19.5z" />
    <glyph glyph-name="P" unicode="P" horiz-adv-x="1464" 
d="M300 502v839q0 47 -0.5 81.5t-1.5 61.5q-60 -8 -120.5 -17.5t-117.5 -20.5l24 100q65 16 149 30.5t174.5 25t181 16.5t170.5 6q70 0 143 -6.5t141.5 -23t129 -46.5t106 -77.5t71.5 -114t26 -157.5q0 -100 -32 -179.5t-88.5 -140.5t-134 -105t-168 -72t-191 -41
t-202.5 -13v-194q0 -75 1 -125t2 -83t3 -64q3 -29 8.5 -47t31.5 -29t81.5 -17.5t158.5 -12.5l-40 -92q-26 3 -68 6t-93 5t-106 3.5t-106 1.5q-72 0 -135 -2.5t-111 -5.5t-78 -6q-30 -2 -37 -2q0 9 3.5 25.5t23.5 34.5t64 33t125 21q4 45 6.5 108t4 138t1.5 158zM671 1516
q-21 0 -49.5 -1t-57.5 -3q-2 -60 -3 -132t-1 -164v-468q69 1 134.5 7.5t124.5 23t108 45t85 73t56 108t20 150.5q0 103 -28.5 172t-82.5 111t-131.5 60t-174.5 18z" />
    <glyph glyph-name="Q" unicode="Q" horiz-adv-x="1904" 
d="M1018 1624q159 0 299 -52.5t245 -154t166 -249.5t61 -340q0 -145 -35 -263.5t-95.5 -211.5t-142 -162.5t-173.5 -116.5q82 -115 178 -191.5t198 -122.5t205.5 -65t200.5 -19q85 0 165 12.5t152.5 33.5t137.5 50t121 62l44 -74q-194 -134 -390.5 -200t-393.5 -66
q-122 0 -242.5 27t-236.5 85.5t-226.5 151t-210.5 224.5q-42 -6 -83.5 -9t-80.5 -3q-104 0 -200.5 22t-182 65.5t-156 109t-121 153t-78.5 196.5t-28 240q0 160 40.5 287t109.5 223.5t160 164.5t191.5 111t204 62.5t197.5 19.5zM399 882q0 -182 45 -326t127 -244t197.5 -153
t255.5 -53q97 0 184.5 28.5t154 97.5t105.5 184.5t39 288.5q0 183 -45.5 328t-127.5 245.5t-196.5 154t-253.5 53.5q-97 0 -185 -29.5t-154.5 -99.5t-106 -186t-39.5 -289z" />
    <glyph glyph-name="R" unicode="R" horiz-adv-x="1652" 
d="M300 502v839q0 47 -0.5 81.5t-1.5 61.5q-60 -8 -120.5 -17.5t-117.5 -20.5l24 100q64 16 147.5 30.5t173 25t179.5 16.5t168 6q73 0 147.5 -6.5t143 -23.5t129 -46t105 -74.5t70 -108.5t25.5 -147q0 -87 -27.5 -157t-75.5 -125t-113.5 -95t-141.5 -67q77 -139 138 -244.5
t113 -183.5t100 -130.5t99.5 -85t111 -48t134.5 -18.5l-34 -78q-54 -9 -107.5 -13.5t-91.5 -4.5q-77 0 -139.5 18t-116 53.5t-101.5 88.5t-96.5 124t-99 159t-110.5 193l-26 46q-9 15 -16.5 23.5t-16 13t-18 6t-21.5 1.5h-21q-13 -1 -31 -1h-43q-26 -1 -61 -1
q0 -201 0.5 -326.5t5.5 -189.5q2 -28 7 -44.5t28 -27t71.5 -16.5t137.5 -12l-40 -90q-26 3 -65 5.5t-85 4.5t-95 3t-93 1q-71 0 -134 -2.5t-111 -5.5t-78 -6q-30 -2 -37 -2q0 9 3.5 25.5t23.5 34.5t64 33t125 21q4 45 6.5 108t4 138t1.5 158zM672 1516q-28 0 -52 -1.5
t-56 -4.5q-2 -58 -3 -125.5t-1 -153.5v-443h28q63 0 124.5 5.5t117 20t103 41t82 68t54 101t19.5 139.5q0 96 -28.5 163t-82 109.5t-131 61.5t-174.5 19z" />
    <glyph glyph-name="S" unicode="S" horiz-adv-x="1264" 
d="M219 474q10 -110 50.5 -184.5t98.5 -119.5t128 -64.5t139 -19.5q61 0 113.5 14t90 42.5t59 71t21.5 100.5q0 69 -30 119.5t-81 91.5t-119 76t-144 73q-52 25 -103.5 52t-98.5 58t-87.5 67t-70.5 80t-47 96.5t-17 115.5q0 107 47.5 195.5t129.5 152t192.5 98.5t235.5 35
q82 0 165.5 -14t147.5 -34q13 -5 21 -9t12 -10t5.5 -15t1.5 -24v-130q0 -50 1 -106t3 -102l-88 -8q-21 166 -110 246t-244 80q-60 0 -112.5 -12.5t-91.5 -40.5t-61.5 -71.5t-22.5 -104.5q0 -69 28.5 -120.5t77.5 -93.5t115 -77.5t141 -71.5q84 -41 166 -84t147 -97.5
t105 -125.5t40 -167q0 -73 -24 -135.5t-66.5 -114t-100.5 -92t-126.5 -68t-145 -42t-155.5 -14.5q-71 0 -148 11t-140.5 29.5t-104.5 43.5t-41 52v3q0 3 1 15q0 11 1 34q0 22 1 62.5t3 101.5t4 148z" />
    <glyph glyph-name="T" unicode="T" horiz-adv-x="1620" 
d="M920 1203v-854q0 -44 1 -75.5t2 -54t3 -41.5q1 -27 7.5 -44t34 -27.5t84.5 -16.5t160 -12l-40 -94q-11 1 -45.5 3.5t-86.5 5.5t-118 5t-139 2q-79 0 -148.5 -2.5t-122 -5.5t-84.5 -6t-36 -4q0 9 4 26.5t28 35.5t76.5 34t149.5 22q4 50 6 114.5t3 145.5t1 180v437v163
q-1 69 -1 119v86q-1 36 -1 64v55q-109 0 -184 -2t-126 -11.5t-82 -30t-51 -58t-33 -94.5t-28 -140l-92 8q6 72 13 174q6 102 15 228q3 32 18 41t29 9q6 0 33 -1t70 -2t99 -3t120 -3t134 -2t140 -1q155 0 283 4t224 9t159 9q62 4 87 4q26 0 38.5 -9t15.5 -41q0 -6 1 -29
q0 -23 0.5 -57t1.5 -76q0 -42 1 -84t2 -82t2 -70l-92 -8q-12 73 -22 125.5t-23.5 88.5t-32.5 57.5t-48 33.5t-70.5 15.5t-99.5 3.5h-72q-27 0 -66.5 -0.5t-97.5 -1.5q-2 -54 -3 -119t-1 -146z" />
    <glyph glyph-name="U" unicode="U" horiz-adv-x="1883" 
d="M557 1482q-3 -14 -5.5 -55t-4 -97t-3 -120t-1.5 -123q-1 -59 -1 -108q-1 -49 -1 -74q0 -201 23.5 -350t79 -247.5t147.5 -147t229 -48.5q116 0 196 32.5t133 90.5t82.5 137t43.5 171.5t17 194.5t3 207q0 116 -1 193.5t-3 129t-4.5 84.5t-5.5 60q-3 28 -8 44t-27 25
t-67.5 14.5t-129.5 12.5l26 88q7 -2 37 -4t71 -4t88 -3t88 -1q65 0 123 3t101.5 6t69.5 6t28 3q0 -12 -4 -29.5t-25.5 -35.5t-67.5 -33t-129 -22q-8 -73 -11.5 -148t-5 -145.5t-1.5 -132.5q-1 -63 -2 -110q-2 -137 -12 -263t-36 -235.5t-73.5 -198.5t-125 -152.5t-188.5 -98
t-266 -34.5q-166 0 -290 43.5t-207 138t-124.5 244t-41.5 361.5q0 19 1 66v106q0 58 1 121v116q0 64 -0.5 108t-1.5 72.5t-2 45t-2 26.5q-2 28 -6.5 44t-26 25t-66 14.5t-125.5 12.5l34 88q9 -2 45 -4t85.5 -4t106 -3t105.5 -1q79 0 143.5 3t110 6t71.5 6t29 3
q0 -12 -5 -29.5t-26 -35.5t-64.5 -33t-120.5 -22z" />
    <glyph glyph-name="V" unicode="V" horiz-adv-x="1734" 
d="M509 1486q26 -84 63.5 -196t88.5 -252l94 -268q38 -106 74 -210q36 -105 78 -216h8q17 39 43 97t58 129q31 71 67 150q35 79 70 159t69 157t62.5 143.5t50 119t32.5 83.5q11 30 15.5 46.5t4.5 25.5q0 13 -8 21t-30.5 13t-62 9t-103.5 9l40 90q7 -2 38.5 -4t73.5 -4t87 -3
t80 -1q43 0 91.5 2t90 4t71 4.5t34.5 3.5q0 -10 -4 -26.5t-25 -34t-65 -32.5t-124 -21q-62 -112 -144 -289t-194 -429q-60 -134 -105 -236.5t-78.5 -180.5t-57 -134t-40 -98t-27.5 -72.5t-20 -56.5q-32 -3 -75.5 -8.5t-82.5 -11.5q-19 61 -40.5 127t-51.5 154.5t-71 207
t-99 283.5q-48 138 -85 243t-65.5 183t-49 131.5t-36.5 88.5q-16 34 -29 55.5t-40 34t-76 19.5t-137 13l40 90q10 -2 42.5 -4.5t79 -4.5t101.5 -3.5t110 -1.5q67 0 131 2t115 5t84 5.5t39 3.5q0 -10 -3.5 -26.5t-23 -33.5t-60 -32t-113.5 -22zM504 1493zM206 1508z
M1562 1490zM1422 1506z" />
    <glyph glyph-name="W" unicode="W" horiz-adv-x="2539" 
d="M1305 1520q15 1 33.5 2.5t38 3.5t38 4.5t34.5 5.5q10 -41 25 -98.5t32.5 -123.5t37 -137t39.5 -141l76 -266q25 -87 55 -198q30 -112 67 -228h8q23 60 57 146q34 85 72.5 183t79 201.5t77 198.5t66 176t46.5 133q13 38 15.5 54.5t2.5 18.5q0 13 -9.5 21t-33.5 13t-64 8.5
t-101 8.5l40 90q7 -2 38.5 -4t73.5 -4t87 -3t80 -1q43 0 91.5 2t90 4t71 4.5t34.5 3.5q0 -10 -4 -26.5t-25 -34t-65 -32.5t-124 -21q-56 -108 -137.5 -300.5t-188.5 -461.5q-47 -119 -82 -209t-61.5 -159t-45.5 -120.5t-33.5 -93.5t-26 -78t-23.5 -74q-18 -2 -40 -4
t-45.5 -4.5t-46.5 -5.5t-42 -6l-324 1148h-4q-17 -42 -36 -87q-19 -46 -41.5 -101.5t-50 -124.5t-62.5 -157q-61 -150 -102 -257t-69 -183t-45 -127q-17 -52 -30 -91q-18 -2 -40 -4t-45.5 -4.5t-46.5 -5.5t-42 -6q-3 13 -15 56t-30 108q-19 64 -42 147q-23 82 -49.5 174
t-54.5 189t-55.5 191.5t-53.5 182.5t-48 161t-39 127.5t-27 81.5q-13 35 -28 56.5t-44 34.5t-78.5 19.5t-131.5 11.5l40 90q10 -2 43 -4.5t79.5 -4.5t102 -3.5t110.5 -1.5q67 0 131 2t115 5t84 5.5t39 3.5q0 -10 -3.5 -26.5t-23 -33.5t-60 -32t-113.5 -22q20 -84 52 -195
t70 -251l74 -270q16 -59 30 -109.5t28.5 -100t30.5 -101.5q15 -53 33 -115h8q15 39 40.5 103.5t57 144.5t68 171.5t73 184.5t71 182.5t64 165.5t51 134.5t31.5 89.5zM519 1493zM223 1508zM2373 1490zM2234 1506z" />
    <glyph glyph-name="X" unicode="X" horiz-adv-x="1756" 
d="M728 812q-64 103 -113 180.5t-86 135.5t-64 99t-46.5 70.5t-34.5 50.5q-15 20 -28 38q-23 31 -41.5 52t-48.5 35t-78 22t-130 13l40 90q10 -2 44 -4.5t81.5 -4.5t103.5 -3.5t112 -1.5q67 0 132.5 2t118 5t86.5 5.5t40 3.5q0 -10 -4 -26t-22.5 -33t-57 -31.5t-106.5 -21.5
q42 -75 103 -178t139 -232l74 -122q52 65 99 125.5t86.5 114t71.5 98.5t53 78q23 36 31.5 55t8.5 30q0 12 -8.5 19.5t-28 12.5t-52 8.5t-81.5 8.5l40 90q8 -2 39 -4t71.5 -4t84.5 -3t80 -1q45 0 94 2t91.5 4t72 4.5t35.5 3.5q0 -10 -4 -26.5t-25 -34t-65 -32.5t-124 -21
q-96 -102 -220 -256.5t-290 -367.5l12 -18q85 -137 150.5 -241.5t115.5 -182.5t86.5 -131.5t63.5 -88.5q23 -31 41.5 -52t48 -35t77.5 -22t131 -13l-40 -90q-12 1 -44.5 3.5t-78.5 4.5t-102.5 4t-115.5 2q-65 0 -128.5 -2t-114.5 -5t-84.5 -5.5t-39.5 -3.5q0 10 3.5 26
t21 33t54 31.5t101.5 21.5q-45 84 -114 198t-156 254l-70 112q-54 -68 -105 -134t-95 -124.5t-79 -107t-57 -82.5q-14 -21 -22 -35t-12 -23.5t-5 -15t-1 -8.5q0 -13 8 -21t27.5 -13.5t53 -9.5t85.5 -8l-40 -90q-9 1 -40 3t-72.5 4t-86.5 3.5t-83 1.5q-42 0 -91.5 -2t-93 -4
t-74 -4.5t-35.5 -3.5q0 10 4.5 26.5t26 34t67 32.5t128.5 21q49 52 105 119.5t121.5 149.5t141.5 179q75 97 164 210zM1167 89zM1506 76zM620 1495zM276 1508zM228 94zM388 78zM1512 1490zM1352 1506z" />
    <glyph glyph-name="Y" unicode="Y" horiz-adv-x="1620" 
d="M680 480q0 44 -1 75t-6.5 57.5t-15.5 54t-28.5 64t-45.5 86.5q-28 50 -67 123q-22 41 -47.5 88t-56 102t-67 118.5t-81.5 137.5q-20 33 -36 54t-44 34t-76 20.5t-130 13.5l40 90q10 -2 42.5 -4.5t77.5 -4.5t99 -3.5t108 -1.5q69 0 133 2t115 5t84 5.5t39 3.5
q0 -10 -3.5 -26.5t-22 -33.5t-59 -32t-113.5 -22q22 -45 49 -98.5t56 -109t59 -110.5t58 -104q27 -49 48 -85q20 -37 36 -66t29 -53t25 -48h6q57 93 109.5 181.5t96.5 163.5t77 133t51 92q15 29 21.5 46t6.5 28q0 12 -9.5 20t-33 13t-63 8.5t-100.5 8.5l40 90q8 -2 39.5 -4
t73.5 -4t87.5 -3t80.5 -1q43 0 93 2t93 4t73.5 4.5t35.5 3.5q0 -10 -3.5 -26.5t-24 -34t-64.5 -32.5t-124 -21q-81 -114 -189.5 -277.5t-236.5 -386.5q-18 -30 -30 -52.5t-20.5 -43t-13 -41t-7 -47t-3 -61.5t-0.5 -84q0 -54 0.5 -103t1 -89.5t1.5 -71.5t3 -49q3 -27 9 -44
t33 -27.5t83.5 -16.5t160.5 -12l-40 -94q-11 1 -45.5 3.5t-86.5 5.5t-118 5t-139 2q-79 0 -148.5 -2.5t-122 -5.5t-84.5 -6t-36 -4q0 9 4 26.5t28 35.5t76.5 34t149.5 22q3 37 5 86.5t3 101.5t1.5 102t0.5 90zM1437 1490zM1291 1506zM510 1493zM199 1508z" />
    <glyph glyph-name="Z" unicode="Z" horiz-adv-x="1594" 
d="M684 0q-68 0 -138 -0.5t-136 -2.5q-66 -1 -125 -2t-103.5 -2.5t-72 -2.5t-31.5 -2l-10 30q20 25 58 75t87.5 116t106.5 143.5t114.5 157t112 157t99.5 143.5l25 37q19 29 48 71q28 42 62.5 93.5t71.5 106.5q36 54 73 108q36 54 67 101q30 46 54 82q24 35 35 53
q-53 1 -98 1.5t-88 0.5h-172q-112 0 -189.5 -2.5t-130.5 -13.5t-85 -32.5t-53 -59.5t-34 -96t-28 -140l-94 8q2 30 5 70t9 127t8 122.5t3.5 60t2.5 30.5q3 33 17 41.5t34 8.5q28 0 187 -6t461 -6q131 0 243.5 1.5t196.5 3.5t135 4t60 3l10 -30q-24 -30 -62 -82t-86.5 -120
t-104.5 -148t-114 -165q-59 -85 -119 -172t-116 -169q-56 -83 -112 -164.5t-108 -156.5q-53 -76 -100 -144t-84 -123q97 -2 189 -2h178q105 0 181.5 2.5t132.5 14t95.5 34t71.5 62t61 99t63 144.5l90 -20q-24 -108 -42 -184.5t-33.5 -128t-30 -81.5t-31.5 -45.5t-38.5 -20
t-50.5 -4.5q-33 0 -84 2.5t-126.5 5.5t-178.5 5.5t-239 2.5z" />
    <glyph glyph-name="bracketleft" unicode="[" horiz-adv-x="990" 
d="M310 1852h550l-16 -128h-388v-2100h404l-16 -128h-534v2356z" />
    <glyph glyph-name="backslash" unicode="\" horiz-adv-x="858" 
d="M148 1764l630 -2098l-128 -30l-630 2100z" />
    <glyph glyph-name="bracketright" unicode="]" horiz-adv-x="990" 
d="M680 -504h-550l16 128h388v2100h-404l16 128h534v-2356z" />
    <glyph glyph-name="asciicircum" unicode="^" horiz-adv-x="1052" 
d="M840 782l-316 640l-316 -640l-108 50l368 748l118 10l366 -758z" />
    <glyph glyph-name="underscore" unicode="_" horiz-adv-x="1024" 
d="M-70 -268h1164v-128h-1164v128z" />
    <glyph glyph-name="grave" unicode="`" horiz-adv-x="800" 
d="M322 1740q27 -65 60.5 -131.5t70.5 -130.5t76 -122.5t77 -107.5q-20 -14 -52 -14t-74.5 16.5t-94 63.5t-110.5 130.5t-123 217.5z" />
    <glyph glyph-name="a" unicode="a" horiz-adv-x="1216" 
d="M1216 68q-36 -22 -82 -40.5t-93 -32t-90 -21.5t-73 -8q-38 0 -64 12t-42.5 31.5t-24 44t-7.5 50.5v60h-6q-104 -94 -199.5 -146t-190.5 -52q-56 0 -102.5 18.5t-79.5 50.5t-51.5 76t-18.5 95q0 65 28.5 118t78 96t115 77t139.5 61t152.5 48t152.5 38v30q0 84 -18.5 140.5
t-51 91t-76.5 49.5t-96 15q-77 0 -117.5 -28t-40.5 -79q0 -28 13.5 -53.5t44.5 -53.5q-11 -17 -28.5 -32t-39 -26t-45 -17.5t-46.5 -6.5q-24 0 -45 7t-37 20.5t-25.5 32.5t-9.5 43q0 37 23.5 77t63.5 79t93.5 74t113 61.5t122.5 42t123 15.5q94 0 156.5 -38t99.5 -97.5
t52 -132.5t15 -143q0 -25 -1.5 -66.5t-3.5 -91.5t-5 -103t-5 -101t-3.5 -85.5t-1.5 -56.5q0 -33 5 -54t15 -33t25 -17t35 -5q53 0 130 30zM742 258q3 59 6.5 131t5.5 173q-122 -26 -200.5 -56t-125 -64.5t-64.5 -73.5t-18 -82q0 -41 12.5 -69.5t32.5 -46.5t46 -26t52 -8
q40 0 83 15.5t79 36.5t61 41t30 29z" />
    <glyph glyph-name="b" unicode="b" horiz-adv-x="1383" 
d="M454 924q39 38 84.5 74.5t97 65t110 45.5t124.5 17q98 0 176.5 -39t133.5 -106.5t84.5 -159t29.5 -195.5q0 -86 -20 -168.5t-59 -155.5t-95.5 -135t-129.5 -106.5t-161 -69.5t-190 -25q-21 0 -54.5 2t-75.5 8t-91.5 18t-101.5 32q-24 -9 -56 -24t-62 -36l-16 8
q8 87 12.5 189t7 213t3.5 227.5t1 232.5q0 133 -0.5 258.5t-1.5 229t-2.5 178.5t-2.5 108q-1 34 -6 52.5t-24.5 26.5t-58.5 9.5t-108 1.5l20 82q67 4 132.5 12.5t122 18.5t100.5 20.5t67 18.5l20 -14q-4 -59 -6.5 -131.5t-4.5 -152.5t-3 -164.5t-1.5 -166t-0.5 -158.5v-139z
M450 714q0 -186 0.5 -325t5.5 -245q33 -21 68.5 -33.5t67.5 -18.5t59 -8t43 -2q99 0 166.5 38t108.5 99.5t59 139t18 157.5q0 81 -18 157.5t-56 135.5t-98.5 95t-145.5 36t-153 -33.5t-125 -84.5v-108z" />
    <glyph glyph-name="c" unicode="c" horiz-adv-x="1109" 
d="M1069 166q-46 -38 -103.5 -74t-122 -64t-134.5 -45t-140 -17q-95 0 -182.5 33.5t-155 101t-108 168t-40.5 234.5q0 111 28 200t76 158t111 118.5t132.5 81t141 46.5t136.5 15q81 0 142.5 -20t103.5 -52.5t63.5 -73t21.5 -82.5q0 -34 -13.5 -58t-36.5 -39.5t-53 -23
t-63 -7.5q-11 0 -22 1t-20 3q-14 50 -34.5 92t-50 72t-69 47t-90.5 17q-54 0 -101.5 -20.5t-82 -65.5t-54.5 -115.5t-20 -169.5q0 -117 29 -206.5t81.5 -149.5t126.5 -90.5t165 -30.5q69 0 144.5 18.5t153.5 63.5z" />
    <glyph glyph-name="d" unicode="d" horiz-adv-x="1392" 
d="M914 166q-50 -49 -96.5 -86.5t-94 -62.5t-98.5 -38t-109 -13q-104 0 -184.5 38t-136 106.5t-84.5 163.5t-29 208q0 156 52 276t140 202t204.5 124t244.5 42q97 0 195 -24q-2 99 -2 174q-1 74 -1.5 132.5t-1 106t-1.5 92.5q-1 34 -6 53t-26.5 28t-67 10.5t-126.5 1.5
l20 82q77 4 148.5 12.5t131 18.5t103.5 20.5t67 18.5l20 -14q-5 -59 -7.5 -154t-4 -212.5t-2 -252.5t-0.5 -274v-484q0 -81 0.5 -132.5t1.5 -78t2 -40.5q2 -33 7.5 -54t15.5 -33t24.5 -16.5t34.5 -4.5q57 0 132 30l24 -64q-37 -22 -83 -40.5t-92.5 -32t-89.5 -21.5t-74 -8
q-75 0 -108 43.5t-33 118.5v36zM916 266q0 73 1 155v168q0 86 1 176v179q-35 22 -72 35t-70.5 20t-62 9t-46.5 2q-96 0 -160.5 -35.5t-103.5 -94t-56 -135t-17 -158.5q0 -115 28 -198t75 -136.5t108 -79t128 -25.5q72 0 134 29t113 89z" />
    <glyph glyph-name="e" unicode="e" horiz-adv-x="1130" 
d="M332 578q4 -116 33.5 -197.5t81 -133t123 -75.5t158.5 -24q35 0 68 4t67.5 14t73 26t85.5 40l40 -66q-248 -200 -498 -200q-88 0 -174 27t-154 88.5t-110 161t-42 244.5q0 162 52.5 282t138 199.5t193.5 118.5t219 39q97 0 163.5 -28t106.5 -75.5t57.5 -110.5t17.5 -133
q0 -45 -6.5 -87.5t-17.5 -85.5zM776 686q5 20 6.5 38.5t1.5 32.5q0 51 -12 96t-37.5 78t-64 52t-92.5 19q-47 0 -90.5 -16.5t-77.5 -55.5t-55.5 -103t-24.5 -159z" />
    <glyph glyph-name="f" unicode="f" horiz-adv-x="775" 
d="M685 -10q-9 1 -41 3t-76 3.5t-95 2.5t-97 1q-58 0 -111 -2t-94 -4t-67.5 -4.5t-30.5 -3.5q0 6 3 21.5t18.5 33t48.5 33.5t94 24q2 41 3.5 102.5t2.5 135.5t2 156.5t1.5 164.5t0.5 160v143q-69 -2 -110 -6t-58 -6q0 10 5.5 28.5t23 37t50.5 34.5t89 22v12q0 141 28 253.5
t75.5 198.5t110.5 147.5t132.5 100.5t142 57.5t138.5 18.5q61 0 103 -13.5t68 -36t38 -51t12 -58.5q0 -63 -47.5 -100.5t-150.5 -40.5q-10 66 -51.5 109t-122.5 43q-56 0 -94.5 -21.5t-64.5 -58.5t-40.5 -87t-21.5 -107t-9 -118.5t-2 -121.5v-118h232q61 0 124 -2l-32 -116
q-48 1 -89 2q-42 1 -81 1.5t-77 0.5h-77v-506q0 -60 0.5 -100t1 -70.5t1 -56.5t1.5 -59q1 -27 5.5 -43t25.5 -25.5t66.5 -16t128.5 -13.5z" />
    <glyph glyph-name="g" unicode="g" horiz-adv-x="1186" 
d="M566 1122q47 0 90 -7t97 -15t126.5 -15t178.5 -7h60q28 0 63 2l-34 -116q-34 -3 -58.5 -3.5t-33.5 -0.5q-28 0 -56.5 1t-75.5 7l-4 -6q42 -69 61 -137t19 -131q0 -90 -34.5 -168.5t-97 -136.5t-149.5 -91.5t-191 -33.5q-73 0 -136 18q-29 -29 -43.5 -50t-14.5 -41
q0 -23 19 -37t53.5 -22.5t83 -13t106.5 -8.5q61 -4 125.5 -9t126 -16.5t116.5 -31t96.5 -53t65.5 -83t24 -119.5t-25 -136t-69.5 -123.5t-107 -105t-138 -81.5t-161 -53t-177.5 -19q-105 0 -190 24.5t-145 67t-92.5 100t-32.5 123.5q0 81 51.5 161.5t160.5 161.5
q-57 17 -86.5 42.5t-29.5 70.5q0 27 12 56.5t36.5 63t62.5 73t89 86.5q-105 51 -157.5 147.5t-52.5 218.5q0 115 42 199t108.5 139t150.5 81.5t168 26.5zM309 -100q-45 -54 -62.5 -111t-17.5 -100q0 -60 27.5 -110t76.5 -86t117.5 -55.5t151.5 -19.5q90 0 154.5 22.5
t106.5 59t62 83.5t20 95q0 57 -26.5 93.5t-72 57.5t-107.5 31t-132.5 15.5t-146.5 9.5q-76 5 -151 15zM775 624q0 62 -13.5 129.5t-44 123.5t-81 92.5t-124.5 36.5q-55 0 -92 -21t-59 -56t-31 -80t-9 -93q0 -62 14.5 -129t46.5 -122.5t83 -91t125 -35.5q54 0 90 20.5
t57 54.5t29.5 78.5t8.5 92.5z" />
    <glyph glyph-name="h" unicode="h" horiz-adv-x="1437" 
d="M230 910q0 103 -0.5 210t-1.5 202t-2 171t-2 117q-2 34 -7 52t-24.5 26.5t-58.5 10t-108 1.5l20 82q67 4 132.5 12.5t122 18.5t100.5 20.5t67 18.5l20 -14q-4 -58 -6.5 -132t-4.5 -156.5t-3 -170t-1.5 -171.5t-0.5 -162v-140l4 -2q47 44 95.5 84t101 71t110 49t123.5 18
q90 0 150.5 -35t96.5 -96.5t51.5 -146t15.5 -182.5q0 -53 -3.5 -123.5t-7.5 -139t-7 -126.5q-4 -59 -4 -88q0 -30 6 -49t27 -31.5t61.5 -20t109.5 -14.5l-36 -84q-8 1 -34 3t-65 3.5t-88 2.5t-103 1q-41 0 -77 -1t-65 -3q10 88 16.5 162.5t10.5 142.5t5.5 133.5t1.5 137.5
q0 66 -4 131t-24 116t-61.5 83t-116.5 32q-43 0 -83 -11t-76.5 -29t-69 -42.5t-61.5 -51.5v-288q0 -144 2 -228t4 -116q1 -26 5.5 -41t22.5 -24.5t55.5 -15.5t104.5 -13l-36 -84q-8 1 -35 3t-65.5 3.5t-85 2.5t-93.5 1q-59 0 -110 -2t-89.5 -4t-62 -4.5t-27.5 -3.5
q0 7 2.5 22.5t17.5 32.5t47 33t91 24q4 48 6 100.5t3 106.5t1 107v498z" />
    <glyph glyph-name="i" unicode="i" horiz-adv-x="719" 
d="M507 1114q-6 -72 -9.5 -146.5t-5.5 -158t-2.5 -180t-0.5 -212.5v-67q0 -36 0.5 -71t1.5 -64.5t3 -46.5q1 -26 5.5 -41t23 -24.5t56 -15.5t104.5 -13l-36 -84q-8 1 -34 3t-63.5 3.5t-83 2.5t-93.5 1q-59 0 -111 -2t-91 -4t-64 -4.5t-30 -3.5q0 7 2.5 22.5t17.5 32.5
t47.5 33t92.5 24q4 37 6 81.5t3 87t1 78.5v55q0 117 -1 199t-2 137t-2.5 87t-2.5 47q-2 33 -7 51t-23 27t-53 10.5t-97 1.5l20 82q69 7 133.5 18t118.5 23t95.5 23.5t64.5 19.5zM461 1598v-24q0 -48 11.5 -88t46.5 -76q-26 -42 -72 -63t-94 -21q-29 0 -56 8.5t-48 26
t-33.5 44.5t-12.5 65q0 21 4.5 47.5t13.5 50.5l236 36z" />
    <glyph glyph-name="j" unicode="j" horiz-adv-x="651" 
d="M-14 -640q73 54 119.5 116t73.5 146.5t37 200t10 277.5q0 96 -2 193t-2 201q0 58 -1 116.5t-2 109.5t-2.5 90.5t-2.5 59.5q-2 33 -8 51t-24.5 27t-54.5 10.5t-97 1.5l20 82q69 7 134 18t120 23t97.5 23.5t66.5 19.5l16 -12q-5 -63 -8 -119t-5 -111t-2.5 -113t-0.5 -126
v-79q0 -44 1 -92v-96t1 -90v-74v-47q0 -122 -10 -220.5t-31.5 -179.5t-55 -147t-81.5 -123.5t-110.5 -109.5t-141.5 -103zM438 1598v-24q0 -48 11.5 -88t46.5 -76q-13 -21 -32 -36.5t-40.5 -26t-45.5 -16t-47 -5.5q-29 0 -56.5 8.5t-48.5 26t-33.5 44.5t-12.5 65
q0 21 4.5 47.5t13.5 50.5l236 36z" />
    <glyph glyph-name="k" unicode="k" horiz-adv-x="1351" 
d="M489 1838q-6 -84 -9 -214t-4 -292t-1 -349v-588q0 -89 1 -160.5t3 -129t6 -107.5q-30 2 -62 2h-66q-56 0 -108 -2t-93.5 -4t-68 -4.5t-30.5 -3.5q0 6 3 21.5t18.5 33t48.5 33.5t94 24q2 41 3.5 100t2.5 127.5t2 143.5t1.5 150t0.5 146v131q0 111 -0.5 220t-1.5 204
t-2 170.5t-2 119.5q-2 34 -7 52t-24.5 26.5t-58.5 10t-108 1.5l20 82q70 5 136 13.5t122 18.5t98.5 20t65.5 18zM503 572q103 83 174 147.5t115 112.5t63.5 79t19.5 47q0 10 -8 15.5t-22 8.5t-34 5q-20 1 -44 3l24 84q14 -1 36 -1.5t48 -0.5h110q52 0 95 1t80.5 2.5t72.5 4
t72 6.5q0 -22 -10.5 -41.5t-35 -34.5t-65 -25.5t-99.5 -14.5q-35 -30 -76.5 -68t-85 -80t-87.5 -86t-85 -86q70 -89 125 -161q55 -73 100 -131.5t82 -104t69 -79.5q26 -29 48.5 -46.5t50 -27.5t64.5 -15.5t91 -10.5l-36 -84q-8 1 -35.5 3t-66.5 3.5t-85.5 2.5t-92.5 1
q-35 0 -71 -1t-59 -3q-110 157 -218 298.5t-224 277.5zM1095 974zM963 990zM1215 74z" />
    <glyph glyph-name="l" unicode="l" horiz-adv-x="705" 
d="M489 1838q-4 -55 -6.5 -132t-4 -169t-2.5 -194t-1 -207v-738q0 -72 1 -129.5t3 -96.5q1 -27 5.5 -43t22.5 -25.5t56 -16t106 -13.5l-36 -84q-8 1 -33.5 3t-63 3.5t-83 2.5t-92.5 1q-59 0 -112 -2t-94 -4t-67 -4.5t-31 -3.5q0 6 3 21.5t18.5 33t48.5 33.5t94 24
q2 41 3.5 100t2.5 127.5t2 143.5t1.5 150t0.5 146v131q0 111 -0.5 220t-1.5 204t-2 170.5t-2 119.5q-2 34 -7 52t-24.5 26.5t-58.5 10t-108 1.5l20 82q70 5 136 13.5t122 18.5t98.5 20t65.5 18z" />
    <glyph glyph-name="m" unicode="m" horiz-adv-x="2170" 
d="M495 1116q-3 -38 -5.5 -89.5t-2.5 -120.5l6 -2q46 43 94.5 83t101.5 71t110.5 49.5t121.5 18.5q58 0 103.5 -16t79.5 -45t57.5 -70.5t37.5 -92.5h8q46 46 95.5 87t103.5 71.5t112.5 48t122.5 17.5q89 0 149 -34.5t96 -95.5t51.5 -144.5t15.5 -181.5q0 -56 -4 -127
t-8 -139q-5 -69 -8.5 -127t-3.5 -89q0 -30 6.5 -49t27.5 -31t61.5 -19.5t108.5 -14.5l-36 -84q-8 1 -34.5 3t-65.5 3.5t-87.5 2.5t-101.5 1q-42 0 -78 -1t-65 -3q10 88 17 162.5t11 142.5t6 134t2 137q0 66 -4.5 131t-24 116t-61 83t-114.5 32q-41 0 -79.5 -10t-73.5 -28
t-66.5 -41.5t-58.5 -50.5q5 -32 6.5 -65t1.5 -63q0 -62 -3 -134t-6 -140t-6 -125t-3 -88q0 -30 5.5 -49t25.5 -31.5t59 -20t106 -14.5l-36 -84q-8 1 -33 3t-62.5 3.5t-85 2.5t-100.5 1q-42 0 -77 -1t-64 -3q8 89 13.5 163.5t9.5 143t5.5 134.5t1.5 139q0 63 -4 127
t-23.5 115.5t-60 83.5t-113.5 32q-41 0 -79.5 -10t-74.5 -28t-68 -41.5t-59 -50.5q-2 -36 -3 -74.5t-1 -74.5v-256q0 -58 1 -100t2 -73t3 -58q1 -26 5.5 -41t22.5 -24.5t55.5 -15.5t104.5 -13l-36 -84q-8 1 -34.5 3t-65 3.5t-85 2.5t-94.5 1q-60 0 -111.5 -2t-90.5 -4.5
t-63 -4.5t-28 -3q0 7 2.5 22.5t17.5 32.5t47.5 33t92.5 24q4 39 6 86.5t3 93t1 82.5v54q0 108 -1 186.5t-2 133t-2.5 87.5t-2.5 51q-2 33 -7 50.5t-23 26t-53.5 10t-98.5 1.5l20 82q68 7 130.5 18t114.5 23t92 23.5t63 19.5z" />
    <glyph glyph-name="n" unicode="n" horiz-adv-x="1462" 
d="M495 1116q-3 -38 -5.5 -89.5t-2.5 -120.5l6 -2q47 44 96 84t102.5 71t112 49t124.5 18q90 0 151 -35t98 -96.5t52.5 -145t15.5 -181.5q0 -36 -2 -80t-4.5 -90.5t-5.5 -93.5t-5.5 -88t-4.5 -74.5t-2 -53.5q0 -30 6.5 -49t27.5 -31t61.5 -19.5t108.5 -14.5l-36 -84
q-8 1 -34.5 3t-65.5 3.5t-87.5 2.5t-101.5 1q-42 0 -78 -1t-65 -3q10 88 17 162.5t11 142.5t6 134t2 137q0 66 -4.5 131t-25 116t-62.5 83t-118 32q-42 0 -82 -10t-76.5 -28t-69 -41.5t-60.5 -50.5q-2 -36 -2 -74q-1 -39 -1 -75q-1 -36 -1 -67v-189q0 -58 1 -100t2 -73
t3 -58q1 -25 5.5 -40.5t22.5 -25t55.5 -15.5t104.5 -13l-36 -84q-8 1 -34.5 3t-64.5 3.5t-85 2.5t-95 1q-60 0 -111.5 -2t-90.5 -4t-62.5 -4.5t-28.5 -3.5q0 7 2.5 22.5t17.5 32.5t47.5 33t92.5 24q4 39 6 86.5t3 93t1 82.5v54q0 108 -1 186.5t-2 133t-2.5 87.5t-2.5 51
q-2 33 -7 50.5t-23 26t-53.5 10t-98.5 1.5l20 82q68 7 130.5 18t114.5 23t92 23.5t63 19.5z" />
    <glyph glyph-name="o" unicode="o" horiz-adv-x="1288" 
d="M954 449q0 96 -21 193t-65 176t-113.5 128.5t-166.5 49.5q-76 0 -125.5 -30.5t-78.5 -80t-40.5 -112t-11.5 -126.5q0 -96 22.5 -193t69 -176t117 -128.5t165.5 -49.5q75 0 123 30t75.5 79t38.5 112t11 128zM690 1126q106 0 198.5 -36.5t161.5 -106.5t108.5 -173.5
t39.5 -236.5q0 -108 -26.5 -195t-71 -154.5t-104.5 -116t-127 -80t-137.5 -46.5t-136.5 -15q-105 0 -197 35.5t-161 105.5t-109 173.5t-40 239.5q0 112 27 200.5t73.5 156t107 115t127.5 77.5t136 43.5t131 13.5z" />
    <glyph glyph-name="p" unicode="p" horiz-adv-x="1393" 
d="M672 -688q-8 1 -43 2.5t-81.5 2.5t-97.5 2t-91 1q-65 0 -120 -2t-96 -5t-66 -5.5t-31 -3.5q0 6 3 21.5t18.5 33t48.5 33.5t94 24q2 41 3.5 103.5t3 137.5t2.5 159.5t2 168.5q0 84 1 164v147q0 87 -0.5 175.5t-1.5 166t-2.5 139t-3.5 95.5q-2 33 -7.5 51t-25 26t-58 9.5
t-105.5 1.5l20 82q73 7 138 18t118 23t93 23.5t63 19.5l18 -10q-5 -38 -5 -84q-1 -47 -3 -118l6 -2q39 40 84 78.5t97 68.5t111 48.5t126 18.5q96 0 174 -39t132.5 -106.5t84 -159t29.5 -195.5q0 -86 -20.5 -168.5t-59 -155.5t-94.5 -135t-127.5 -106.5t-157.5 -69.5
t-185 -25q-33 0 -80 4.5t-116 21.5v-181q0 -78 1 -137t2 -103t3 -79q1 -27 5.5 -42.5t27 -25t69.5 -15.5t134 -13zM464 808q-1 -48 -1.5 -98t-0.5 -105v-298q0 -28 0.5 -58t1 -58t2.5 -47q34 -21 69.5 -33.5t68 -18.5t59 -8t43.5 -2q66 0 118 18t90.5 49t65.5 73t44 91
t24.5 102t7.5 106q0 82 -17.5 157.5t-55.5 133t-97 92t-141 34.5q-87 0 -155 -36.5t-126 -93.5z" />
    <glyph glyph-name="q" unicode="q" horiz-adv-x="1344" 
d="M1158 210v-573q0 -45 0.5 -70t1.5 -39q2 -37 7.5 -60t26.5 -37t62 -22t114 -15l-36 -84q-8 1 -35 3t-67.5 3.5t-90 2.5t-102.5 1q-42 0 -77 -1t-64 -3q7 171 11 317t5.5 256.5t1.5 180.5v90l-10 2q-50 -49 -96.5 -85.5t-93.5 -61t-97.5 -37t-108.5 -12.5q-103 0 -183 38
t-135 106t-83.5 162t-28.5 207q0 157 52.5 278t142 203t207 124t248.5 42q26 0 61 -2t75 -8t84.5 -17t89.5 -29q32 11 59.5 23.5t66.5 32.5l20 -8q-17 -176 -22.5 -405t-5.5 -503zM912 266q0 319 12 676q-35 22 -72.5 35t-72.5 20.5t-65 10t-50 2.5q-93 0 -157 -35.5
t-104 -95.5t-57.5 -137.5t-17.5 -161.5q0 -113 27.5 -194.5t73.5 -134t107 -78t127 -25.5q72 0 135 29t114 89z" />
    <glyph glyph-name="r" unicode="r" horiz-adv-x="1010" 
d="M494 1116q-9 -108 -12 -226l12 -2q53 60 96 105t81.5 74.5t76 44t79.5 14.5q43 0 74.5 -13.5t52.5 -35.5t31.5 -50.5t10.5 -57.5q0 -30 -11.5 -58t-34 -49.5t-56.5 -34.5t-80 -13q-12 51 -46 71.5t-76 20.5q-66 0 -116 -38t-86 -98q-2 -58 -2 -126v-156q0 -63 0.5 -112.5
t1 -88t1.5 -67t3 -50.5q1 -27 6 -42.5t27 -25.5t67.5 -15.5t127.5 -12.5l-36 -84q-9 1 -41.5 3t-77.5 3.5t-96 2.5t-98 1q-59 0 -111.5 -2t-92 -4t-64.5 -4.5t-29 -3.5q0 7 2.5 22.5t17.5 32.5t47.5 33t92.5 24q4 46 6 97t3 101.5t1 96.5v82q0 155 -2.5 256t-5.5 139
q-2 33 -7.5 51t-24 27t-54 10.5t-96.5 1.5l20 82q69 7 131.5 18t115 23t91.5 23.5t62 19.5z" />
    <glyph glyph-name="s" unicode="s" horiz-adv-x="1005" 
d="M214 360q7 -79 36 -133.5t71 -89t92 -50t100 -15.5q40 0 73.5 9.5t57.5 27.5t37 44.5t13 61.5q0 43 -20 74.5t-54.5 57t-80.5 47t-97 44.5q-61 25 -121 53t-108 65.5t-77.5 89t-29.5 125.5q0 81 36.5 146.5t98 112t143 71.5t172.5 25q76 0 138.5 -17.5t107 -46.5
t68.5 -66.5t24 -77.5q0 -29 -12 -49.5t-32 -33.5t-45.5 -19t-52.5 -6q-10 0 -23 1t-23 3q-26 97 -79 149.5t-143 52.5q-79 0 -124.5 -37.5t-45.5 -102.5q0 -42 20 -74t56 -58t87 -49.5t113 -48.5q59 -26 118 -54.5t106 -67t76.5 -90.5t29.5 -124q0 -77 -34 -140
t-96.5 -108.5t-150.5 -70.5t-195 -25q-57 0 -114 8t-102.5 25t-73.5 45t-28 68q0 5 0.5 20t2.5 44q1 29 3 73t6 107z" />
    <glyph glyph-name="t" unicode="t" horiz-adv-x="923" 
d="M927 136q-41 -35 -85.5 -65.5t-95.5 -54t-110 -37t-129 -13.5q-86 0 -143 23t-91 76t-48 138.5t-14 210.5q0 33 1 77t2 94q1 49 3 101.5t4.5 102.5t5 94t4.5 77q-33 -1 -62.5 -2.5t-53.5 -3.5t-40.5 -3.5t-23.5 -2.5q0 10 5.5 28.5t24.5 37.5t56 35t100 21l14 160
q1 16 2.5 28t4 21.5t6.5 17t11 15.5q10 12 33.5 36t53.5 51t63 54t62 45l20 -12q-21 -204 -30 -414q40 0 89.5 0.5t104.5 1.5t112 2.5t112 3.5l-32 -116q-183 -6 -324 -6h-68q-1 -26 -3 -76q-3 -50 -5 -111.5t-4 -128.5t-2 -126q0 -114 9 -189t31 -120t59 -63t94 -18
q67 0 126 20t115 52z" />
    <glyph glyph-name="u" unicode="u" horiz-adv-x="1430" 
d="M952 198q-44 -48 -91.5 -90.5t-100 -74t-112 -49.5t-126.5 -18q-88 0 -148 31.5t-97 91t-53 144.5t-16 192q0 51 3 112l6 122q3 61 6 117q3 55 3 93q0 37 -5 58.5t-24.5 33t-58 14.5t-104.5 3l20 82q69 6 134.5 14.5t121 17.5t97.5 18t65 16l16 -12q-6 -66 -11 -142.5
t-9 -157.5t-6 -161.5t-2 -153.5q0 -66 4.5 -128.5t24.5 -111t61 -78t113 -29.5q87 0 161 41.5t128 104.5q1 32 2 70t1.5 72t0.5 60v37q0 73 -0.5 128.5t-1.5 98t-2 72.5t-2 52q-2 33 -7.5 51t-23.5 27t-53 10.5t-96 1.5l20 82q69 6 133.5 14.5t118.5 17.5t95.5 18t64.5 16
l18 -12q-6 -68 -10 -134t-6.5 -139t-3 -156t-0.5 -185v-81q0 -43 0.5 -83t1.5 -73.5t2 -52.5q2 -32 7.5 -53t16 -33t25 -17t34.5 -5q53 0 131 30l24 -64q-36 -22 -82 -40.5t-92.5 -32t-90 -21.5t-73.5 -8q-40 0 -67.5 13.5t-44.5 38t-24.5 58t-7.5 73.5v19q0 5 0.5 11.5
t1.5 16.5z" />
    <glyph glyph-name="v" unicode="v" horiz-adv-x="1243" 
d="M-5 1086q7 -1 31 -2.5t60 -2.5t81.5 -2t94.5 -1q45 0 75.5 1t51.5 3q25 -62 59 -150t72 -190.5t78.5 -215.5t78.5 -226h8q59 130 106.5 240.5t80.5 193.5t51 136t18 68q0 26 -47.5 38t-132.5 18l24 84q7 -1 32.5 -2t60 -2t73 -1.5t72.5 -0.5q58 0 102.5 1.5t78.5 3.5
t58.5 4.5t42.5 4.5q0 -22 -9.5 -40.5t-32 -33.5t-59 -25.5t-91.5 -16.5q-20 -34 -52.5 -99.5t-72 -150.5t-83.5 -182.5t-86.5 -194t-81.5 -185.5t-68 -158q-39 -5 -73 -12t-67 -16q-28 92 -60.5 188t-66 189t-66.5 180t-62.5 160t-54 128.5t-40.5 86.5q-16 29 -33 46
t-40 26.5t-55.5 14t-79.5 9.5zM147 1000zM1110 976zM975 994z" />
    <glyph glyph-name="w" unicode="w" horiz-adv-x="1866" 
d="M924 1050q14 1 35 3q20 2 42 4t43 4.5t36 4.5q60 -185 119 -376t125 -378h8q61 159 105 272q43 112 71 186t41 114t13 54q0 26 -41.5 38t-128.5 18l24 84q7 -1 30.5 -2t56 -2t69.5 -1.5t70 -0.5q58 0 102 1.5t77.5 3.5t58.5 5q24 2 44 4q0 -22 -9.5 -40.5t-32 -33.5
t-59 -25.5t-91.5 -16.5q-20 -33 -51 -98.5t-68 -150.5t-78.5 -182.5t-81.5 -194.5t-76 -186q-37 -90 -65 -158q-39 -5 -74 -9.5t-68 -10.5q-29 92 -60 193q-32 100 -63.5 198.5t-61 190t-55.5 166.5h-8q-32 -86 -67 -185q-36 -100 -71.5 -199t-68.5 -189t-59 -155
q-39 -5 -76 -10q-37 -4 -70 -10q-26 92 -56.5 188t-62 189t-63 179t-59.5 157.5t-51 126t-38 84.5q-15 29 -30.5 46t-37.5 26.5t-52.5 14t-75.5 9.5l24 86q7 -1 31 -2.5t60 -2.5t81.5 -2t94.5 -1q45 0 75.5 1t51.5 3q22 -62 52 -148t64 -186.5t70 -211.5t70 -224h8
q34 90 63 169t58.5 163t62 181.5t74.5 224.5zM144 1000zM1728 976zM1591 994z" />
    <glyph glyph-name="x" unicode="x" horiz-adv-x="1331" 
d="M787 600q43 -68 84.5 -132t80 -119.5t71.5 -100.5t58 -74q24 -29 46 -46.5t51 -27.5t68.5 -15.5t98.5 -10.5l-36 -84q-7 1 -38.5 3t-75.5 3.5t-94.5 2.5t-95.5 1q-35 0 -74 -1t-62 -3l-250 416q-50 -56 -90 -105.5t-67.5 -88t-42 -65t-14.5 -37.5q0 -10 10.5 -16
t29 -10.5t44 -7.5t54.5 -6l-32 -82q-34 2 -86 4t-127 2q-95 0 -167.5 -3.5t-139.5 -10.5q0 22 10 41.5t35 35.5t67 26.5t106 14.5q33 34 77 82.5t92 103.5t95 111t86 105q-42 67 -82.5 130t-76 115.5t-64.5 93t-49 63.5q-25 27 -45.5 43t-45.5 25t-59.5 14t-87.5 10l24 86
q7 -1 36 -2.5t70 -2.5t88.5 -2t89.5 -1q38 0 75.5 1t60.5 3q45 -79 106 -181t130 -211q44 51 78.5 95t58.5 79t36.5 59t12.5 35q0 19 -33 23.5t-87 8.5l24 84q14 -1 36 -1.5t48 -0.5h110q52 0 95 1t80.5 2.5t72.5 4t72 6.5q0 -22 -11.5 -41.5t-38 -34.5t-69.5 -25.5
t-107 -14.5q-34 -35 -73 -79t-80.5 -92.5t-84 -99t-82.5 -99.5zM1145 74zM210 100zM360 76zM1107 974zM962 990z" />
    <glyph glyph-name="y" unicode="y" horiz-adv-x="1246" 
d="M768 1078q7 -1 32 -2t59 -2t73 -1.5t73 -0.5q130 0 198 6t85 8q0 -22 -9.5 -40.5t-32 -33.5t-60.5 -25.5t-94 -16.5q-50 -132 -96.5 -261t-90.5 -252t-86.5 -238t-84.5 -219q-64 -159 -130 -291.5t-138.5 -227.5t-154 -148t-175.5 -53q-84 0 -130 40t-46 114
q0 18 3.5 40.5t12.5 45.5q39 -11 75 -15.5t67 -4.5q100 0 173.5 37.5t131 104.5t103 158.5t90.5 199.5h-2q-5 0 -14 -1t-20 -2q-12 -1 -23 -3q-12 -1 -21 -2q-33 94 -68.5 191t-70.5 190t-68.5 178t-62 154.5t-51.5 121t-37 77.5q-17 28 -34 45t-40.5 26.5t-56.5 14.5
t-81 10l24 86q7 -1 31 -2.5t60 -2.5t81.5 -2t94.5 -1q45 0 74.5 1t50.5 3q25 -62 62 -151q36 -90 78.5 -198.5t89 -231.5t92.5 -253h8q21 54 44.5 117.5t47 129.5t45 130.5t38 121.5t26 102.5t9.5 72.5q0 20 -7 32t-26.5 19.5t-54.5 11.5t-90 9zM147 1000zM1103 976z
M964 994z" />
    <glyph glyph-name="z" unicode="z" horiz-adv-x="1223" 
d="M94 684q3 40 7 92t7 103t6 95q2 43 4 66q1 16 9.5 32t37.5 16q21 0 142 -7t336 -7q103 0 187.5 2t147 5t99.5 6t45 5l10 -36q-32 -39 -84 -107t-116 -153.5t-134 -181t-137 -188t-126.5 -175.5t-100.5 -143q66 -2 127 -2h125q70 0 120 2t86 11.5t61 28t45 51t37.5 82.5
t38.5 121l86 -16q-17 -92 -29 -157q-12 -66 -22 -110.5t-20 -70.5t-22.5 -40t-29 -18t-40.5 -4q-48 0 -163 7t-305 7q-91 0 -172.5 -2t-144.5 -5t-102.5 -5.5t-45.5 -3.5l-10 36q47 55 109 134.5t130.5 170.5t138 186.5t132 183t113.5 159.5t81 116q-54 1 -113 1.5t-119 0.5
q-70 0 -119 -2t-83 -11t-56 -27.5t-36.5 -51.5t-25 -82t-22.5 -120z" />
    <glyph glyph-name="braceleft" unicode="{" horiz-adv-x="1036" 
d="M298 671q64 -12 109.5 -34t76 -50.5t48.5 -61.5t27 -66.5t11.5 -66t2.5 -58.5q0 -50 -4 -106t-9 -113q-6 -57 -10 -111t-4 -98q0 -74 16.5 -126.5t57.5 -87t110.5 -54t175.5 -28.5l-11 -118q-131 8 -228 37.5t-160.5 86t-95 143t-31.5 208.5q0 43 3 98t7 112t7 109.5
t3 90.5q0 57 -11 100.5t-43.5 74t-91 48.5t-154.5 23l10 103q89 6 145.5 23.5t88.5 47.5t44 73.5t12 102.5q0 37 -3 88t-7 106q-4 54 -7 108t-3 96q0 121 31 209t95 146.5t160.5 90t228.5 39.5l11 -118q-106 -9 -175.5 -28.5t-110.5 -54t-57.5 -87t-16.5 -126.5
q0 -44 4 -97.5t10 -110.5q5 -57 9 -114t4 -108q0 -26 -2.5 -57t-11.5 -62.5t-26.5 -63t-48 -59.5t-76 -51t-110.5 -38v-10z" />
    <glyph glyph-name="bar" unicode="|" horiz-adv-x="746" 
d="M446 1864v-2544l-146 -10v2542z" />
    <glyph glyph-name="braceright" unicode="}" horiz-adv-x="1036" 
d="M738 681q-64 12 -109.5 34t-76 50.5t-48.5 61.5t-27 66.5t-11.5 65.5t-2.5 59q0 49 4 105t10 112q5 56 9 109t4 98q0 74 -16.5 126.5t-57.5 87t-110.5 54t-175.5 28.5l11 118q131 -8 228 -37.5t160.5 -86t95 -143t31.5 -209.5q0 -42 -3 -96.5t-7 -110.5t-7 -108t-3 -89
q0 -56 11 -100t43.5 -75t91 -49t154.5 -23l-10 -103q-89 -6 -145.5 -23.5t-88.5 -47.5t-44 -74t-12 -102q0 -36 3 -87.5t7 -107.5t7 -110.5t3 -96.5q0 -122 -31 -210t-95 -146.5t-160.5 -89.5t-228.5 -39l-11 118q106 9 175.5 28.5t110.5 54.5t57.5 87t16.5 127q0 44 -4 98
t-9 112q-6 57 -10 114.5t-4 109.5q0 26 2.5 56.5t11 62t26.5 63t48.5 60t76 51.5t110.5 37v10z" />
    <glyph glyph-name="asciitilde" unicode="~" horiz-adv-x="1336" 
d="M1229 595q-42 -53 -82 -89t-78.5 -57.5t-75.5 -30.5t-72 -9q-62 0 -128.5 21.5t-131.5 47.5q-66 26 -129.5 47.5t-119.5 21.5q-30 0 -58.5 -8t-57 -26t-57.5 -48t-60 -74l-70 96q42 53 82 89t78.5 57.5t75.5 30.5t72 9q62 0 128 -21.5t132 -47.5t129.5 -47.5t119.5 -21.5
q30 0 58.5 8t57 26t57.5 48t60 74z" />
    <glyph glyph-name="exclamdown" unicode="&#xa1;" horiz-adv-x="666" 
d="M384 576q8 -74 16 -169.5t15.5 -200t14.5 -212.5q6 -107 12 -205t11 -181q4 -82 7 -136l-320 -34q10 60 22.5 150.5t26 197t26.5 221t25 222t22 200.5t16 157zM347 1086q72 0 108.5 -38.5t36.5 -107.5q0 -77 -41.5 -120t-116.5 -43q-71 0 -110 38.5t-39 110.5
q0 77 43 118.5t119 41.5z" />
    <glyph glyph-name="cent" unicode="&#xa2;" horiz-adv-x="1192" 
d="M749 1416l-17 -308q12 0 23 1h25q75 0 135 -19.5t101 -51t63 -71.5t22 -82q0 -32 -11.5 -54t-30.5 -36t-42.5 -20.5t-47.5 -6.5q-9 0 -19 1t-18 3q-9 40 -26 76t-42.5 64.5t-60 49t-78.5 29.5l-47 -846q28 -3 60 -3q80 0 168 22.5t185 70.5l40 -66q-41 -33 -97 -65
t-118 -58.5t-126 -44.5t-121 -23l-18 -322l-108 7l16 317q-100 9 -185 46t-147.5 101t-97.5 156.5t-35 212.5q0 93 21 170t57.5 139.5t86.5 111t108 84t121.5 59t127.5 36.5l17 317zM325 614q0 -163 60.5 -279t183.5 -164l42 825q-62 -5 -114.5 -28t-90.5 -68.5
t-59.5 -115.5t-21.5 -170z" />
    <glyph glyph-name="sterling" unicode="&#xa3;" horiz-adv-x="1402" 
d="M567 763q-3 -111 -22 -199.5t-53 -161.5t-83 -133.5t-113 -114.5l8 -8q53 28 111.5 43t119.5 15q45 0 93.5 -7t96.5 -16q47 -9 90.5 -16t79.5 -7q45 0 85 14.5t77 50t69.5 95t62.5 149.5l86 -19q-26 -109 -52 -188.5t-53.5 -135.5t-56 -91t-59.5 -55t-65.5 -27t-72.5 -7
q-70 0 -143.5 16.5t-146.5 35.5q-74 20 -146 36.5t-141 16.5q-66 0 -121 -20t-106 -69l-62 67q96 70 151.5 145.5t83 152t35 153t7.5 148.5q0 32 -0.5 69t-1.5 64q-35 0 -70.5 -1.5t-66.5 -3.5t-54 -4t-32 -3q0 11 5.5 29t27.5 36.5t67 33.5t123 20v12q0 133 28 240.5
t75 190.5t109.5 142.5t131.5 98t141.5 56.5t138.5 18q61 0 103.5 -13.5t69 -36t38 -51t11.5 -58.5q0 -63 -47 -97t-144 -36q-10 66 -53.5 109t-124.5 43q-56 0 -95 -22t-65 -59.5t-41 -88.5t-22.5 -109t-9.5 -120.5t-2 -122.5v-88h304q64 0 143 -2l-32 -113q-63 1 -116 2
q-54 1 -103.5 1.5t-97.5 0.5h-98z" />
    <glyph glyph-name="currency" unicode="&#xa4;" horiz-adv-x="1444" 
d="M263 540q0 81 23 151.5t66 128.5l-192 192l88 90l193 -192q58 45 129.5 68.5t152.5 23.5t152.5 -23.5t128.5 -68.5l192 192l88 -90l-191 -191q42 -58 65 -129t23 -152q0 -82 -24 -153.5t-69 -129.5l196 -199l-90 -90l-196 200q-58 -43 -128 -66.5t-151 -23.5t-151.5 23.5
t-127.5 66.5l-190 -190l-90 90l191 191q-42 58 -65 129t-23 152zM407 541q0 -80 21.5 -143.5t62.5 -107.5t99 -67.5t132 -23.5t132.5 23.5t99 67.5t62 106.5t21.5 140.5q0 80 -22.5 144t-64 108.5t-100.5 68t-132 23.5q-74 0 -131.5 -23.5t-97.5 -67.5t-61 -107t-21 -142z
" />
    <glyph glyph-name="yen" unicode="&#xa5;" horiz-adv-x="1529" 
d="M1276 668q-54 1 -105 1h-192q-44 0 -87 -1v-166q93 2 186 3q93 0 190 1l-7 -112q-97 0 -187.5 -0.5t-181.5 -1.5q0 -78 0.5 -131.5t1.5 -87.5q0 -27 5.5 -43t32 -26t81.5 -15.5t154 -11.5l-38 -93q-10 1 -42.5 3.5t-81 5.5t-110.5 5t-131 2q-74 0 -139.5 -2.5t-115 -5.5
t-79.5 -6t-34 -4q0 9 4 26t27 35t73 33.5t143 21.5q2 58 3 133q0 74 1 159q-94 -2 -186.5 -4t-192.5 -6l6 111q94 3 186 4t188 3v151q0 9 -1 17l-364 -8l6 106l339 9q-8 22 -20 47t-28 56.5t-37 71.5t-48 93q-57 109 -105 196.5t-89 156.5q-19 32 -34 52t-41.5 32t-71 18.5
t-122.5 12.5l38 89q10 -2 40 -4.5t72 -4.5t92.5 -3.5t101.5 -1.5q61 0 118.5 2t103.5 5t75.5 5.5t35.5 3.5q0 -9 -3 -25.5t-20 -34t-52.5 -32t-101.5 -20.5q19 -39 41.5 -83.5t47 -91.5t49.5 -93.5t48 -88.5q23 -41 40.5 -72t31.5 -55q14 -25 24.5 -45t20.5 -41h5
q54 92 98 165q43 73 76 130t57 100.5t41 76.5q14 29 20.5 45t6.5 27q0 12 -8.5 18.5t-29.5 11t-56 7.5q-36 3 -90 8l38 89q7 -2 35 -4t65.5 -4t78 -3t72.5 -1q40 0 85.5 2t85.5 4t68.5 4.5t34.5 3.5q0 -9 -3.5 -25.5t-22.5 -34t-60.5 -32t-116.5 -20.5q-75 -105 -166 -244.5
t-188 -314.5q-13 -24 -23 -42.5t-17.5 -36t-12.5 -34.5t-9 -36q94 2 190.5 2.5t193.5 1.5zM526 1494zM237 1509zM1310 1492zM1180 1507z" />
    <glyph glyph-name="brokenbar" unicode="&#xa6;" horiz-adv-x="750" 
d="M450 1592v-690l-150 -10v688zM450 690v-690l-150 -10v688z" />
    <glyph glyph-name="section" unicode="&#xa7;" horiz-adv-x="1272" 
d="M174 1234q0 80 37 151t102.5 124.5t155 84.5t193.5 31q85 0 148 -19.5t105 -49.5t63 -67t21 -72q0 -24 -10 -43.5t-27 -33t-40 -20.5t-49 -7q-25 0 -49 6q-24 105 -84.5 152t-148.5 47q-55 0 -96 -16t-68 -42t-40.5 -60.5t-13.5 -71.5q0 -57 28.5 -106t76 -93.5
t107.5 -86t123 -83.5q62 -43 122 -87.5t107.5 -96t76 -110.5t28.5 -129q0 -54 -17.5 -105t-47 -98t-69 -91t-83.5 -83q29 -29 53 -59.5t41.5 -63.5t27 -69.5t9.5 -77.5q0 -84 -39 -156t-106.5 -124.5t-158.5 -82t-194 -29.5q-85 0 -149 19.5t-107 50t-64.5 67t-21.5 70.5
q0 48 37 76.5t91 28.5q12 0 24.5 -1.5t24.5 -5.5q11 -55 33.5 -92.5t53.5 -61t69.5 -34t81.5 -10.5q55 0 97.5 15t71 41t43 61t14.5 75q0 58 -28 107t-74.5 92.5t-105.5 84.5t-120 83q-62 41 -121 85t-105.5 95t-74.5 110t-28 130q0 100 57 191.5t157 182.5
q-63 57 -101.5 125t-38.5 152zM861 418q0 51 -22 95.5t-59 84.5t-86 78t-103 75t-109 75q-56 37 -107 78q-93 -102 -93 -205q0 -52 22 -96.5t59 -85t86 -78t102.5 -74.5t109.5 -74q55 -38 105 -79q46 51 70.5 102t24.5 104z" />
    <glyph glyph-name="dieresis" unicode="&#xa8;" horiz-adv-x="800" 
d="M702 1596v-24q0 -45 11.5 -80.5t44.5 -71.5q-24 -39 -67 -60.5t-90 -21.5q-27 0 -51.5 7.5t-43.5 24t-30.5 42t-11.5 61.5q0 25 5.5 47.5t14.5 45.5l214 36zM94 1560l210 26q24 -57 24 -110q0 -38 -11.5 -65.5t-30.5 -45t-44 -25.5t-52 -8q-45 0 -85.5 19.5t-64.5 54.5
q15 14 24.5 27t15.5 28t8 32.5t2 40.5v20z" />
    <glyph glyph-name="copyright" unicode="&#xa9;" horiz-adv-x="2012" 
d="M160 785q0 196 58 354.5t167.5 269.5t267 171t357.5 60q193 0 349 -57t265.5 -165t168.5 -264.5t59 -355.5q0 -196 -57.5 -353t-167 -267t-267.5 -169t-359 -59q-196 0 -352 56.5t-264.5 164t-166.5 262.5t-58 352zM304 794q0 -175 49 -313.5t140.5 -235t222 -148
t294.5 -51.5q166 0 295.5 52.5t219 149.5t136.5 234.5t47 307.5q0 175 -49.5 315t-141 237.5t-222 149.5t-293.5 52q-164 0 -293.5 -53t-219.5 -151t-137.5 -236.5t-47.5 -309.5zM1314 968q-20 140 -89 202t-193 62q-73 0 -129.5 -21.5t-94.5 -66.5t-58 -115t-20 -167
q0 -98 21 -188t64 -159t109.5 -110t158.5 -41q61 0 103.5 19.5t72.5 55.5t51 87.5t40 115.5l72 -18q-10 -62 -19 -108t-17 -79t-16 -54t-16 -33q-17 -20 -53 -36t-81 -26.5t-95.5 -16t-96.5 -5.5q-116 0 -213 34.5t-167.5 100.5t-110 161t-39.5 216q0 132 46 234.5
t124.5 173t183 107.5t220.5 37q49 0 93 -6t80 -15t64 -20t47 -21q5 -4 9.5 -8t7.5 -11t5 -17.5t2 -26.5v-29q0 -24 1 -57q1 -34 2 -72t3 -71z" />
    <glyph glyph-name="ordfeminine" unicode="&#xaa;" horiz-adv-x="870" 
d="M834 856q-29 -16 -63.5 -29.5t-68.5 -23.5t-65.5 -15.5t-54.5 -5.5q-29 0 -48.5 8t-31.5 21.5t-17 30.5t-5 34v24h-6q-127 -118 -243 -118q-33 0 -61 9.5t-48.5 27.5t-32 43.5t-11.5 57.5q0 40 17.5 72t48 57.5t71.5 45t87 34t95 24.5t95 17v28q0 46 -11 78.5t-30 52
t-43 28.5t-51 9q-43 0 -64 -20t-21 -52q0 -18 7.5 -36.5t24.5 -35.5q-20 -23 -51 -36.5t-61 -13.5q-32 0 -52 16.5t-20 49.5q0 44 35 86.5t88.5 75.5t116 53.5t118.5 20.5q57 0 95.5 -21.5t62.5 -55.5t34 -75.5t10 -80.5q0 -23 -2.5 -65t-5.5 -87t-5.5 -83.5t-2.5 -53.5
q0 -36 16.5 -50t44.5 -14q20 0 44 5t47 13zM482 958q5 29 6 64q0 35 2 88q-22 -3 -58.5 -10t-71.5 -21t-60.5 -39t-25.5 -64q0 -31 18 -53.5t53 -22.5q20 0 43 7t43.5 17t34.5 19.5t16 14.5z" />
    <glyph glyph-name="guillemotleft" unicode="&#xab;" horiz-adv-x="1264" 
d="M528 52q-27 57 -63 115.5t-81 113.5t-98.5 105t-115.5 90l20 114q63 43 125.5 97t118 114t101 124.5t73.5 128.5q15 -24 21.5 -50.5t6.5 -52.5q0 -51 -23 -102t-60.5 -101.5t-85.5 -100t-97 -95.5l-2 -14q31 -30 67 -67t71.5 -82t68.5 -99.5t59 -119.5zM964 60
q-27 57 -63.5 115.5t-81.5 113.5t-99 105t-116 90l20 114q62 43 125.5 95t120 110t102.5 120.5t74 126.5q15 -24 21.5 -51t6.5 -51q0 -51 -23.5 -100.5t-61.5 -97.5t-86.5 -95.5t-98.5 -94.5l-2 -14q31 -30 67 -67t72 -82t69.5 -99.5t59.5 -119.5z" />
    <glyph glyph-name="logicalnot" unicode="&#xac;" horiz-adv-x="1336" 
d="M1196 0l-126 -8v490h-950l8 118h1068v-600z" />
    <glyph glyph-name="registered" unicode="&#xae;" horiz-adv-x="1326" 
d="M120 1325q0 121 36 219t103.5 166t165.5 105t221 37q120 0 216 -35.5t163.5 -102t104 -163t36.5 -218.5q0 -120 -35.5 -216.5t-102.5 -164t-165 -104t-222 -36.5q-121 0 -217.5 34.5t-164 100.5t-103.5 161.5t-36 216.5zM446 1584q-27 -3 -56 -8t-52 -10l10 54
q30 7 69 13.5t81 11.5t84.5 8t78.5 3q48 0 96.5 -6.5t87 -23t63 -45.5t24.5 -74q0 -57 -40 -102t-112 -69q40 -71 69.5 -118t56.5 -76t55.5 -42.5t66.5 -17.5q26 54 39 115.5t13 130.5q0 110 -31 196.5t-88 146.5t-138 91.5t-182 31.5q-103 0 -183.5 -32.5t-136.5 -92.5
t-85.5 -146t-29.5 -192q0 -109 30.5 -194.5t87.5 -145t139 -90.5t184 -31q118 0 209 41.5t150 124.5l-4 4q-20 -3 -35.5 -4.5t-30.5 -1.5q-46 0 -81 14t-64 43t-56.5 74t-58.5 107l-10 20q-5 11 -12.5 13.5t-12.5 2.5q-8 0 -21 -1q-14 -1 -42 -1v-108q0 -19 0.5 -32.5
t1.5 -25.5q1 -14 4 -22.5t13.5 -13.5t31.5 -8.5t59 -7.5l-22 -46q-24 2 -65.5 5t-95.5 3q-32 0 -61.5 -1t-52.5 -2.5t-39 -3.5t-20 -3q0 5 1.5 14t12 18t33 17t63.5 11q3 30 3.5 86t0.5 134v264zM626 1602q-18 0 -24 -1q-7 -1 -20 -1v-248h10q34 0 67.5 4.5t59.5 18
t42.5 38.5t16.5 67q0 67 -41.5 94.5t-110.5 27.5z" />
    <glyph glyph-name="macron" unicode="&#xaf;" horiz-adv-x="800" 
d="M722 1376q-130 3 -210 3.5t-118 0.5q-45 0 -124 -0.5t-204 -3.5l-16 120q63 2 147.5 3t200.5 1q117 0 205 -1t147 -3z" />
    <glyph glyph-name="macron" unicode="&#x2c9;" horiz-adv-x="800" 
d="M722 1376q-130 3 -210 3.5t-118 0.5q-45 0 -124 -0.5t-204 -3.5l-16 120q63 2 147.5 3t200.5 1q117 0 205 -1t147 -3z" />
    <glyph glyph-name="degree" unicode="&#xb0;" horiz-adv-x="802" 
d="M80 1307q0 69 24.5 127t67.5 100t102 66t128 24t127.5 -24t101.5 -66.5t67 -100t24 -124.5q0 -69 -25 -127t-68.5 -100t-102.5 -66t-128 -24t-127.5 24t-100.5 66.5t-66 100t-24 124.5zM198 1309q0 -104 54 -162.5t149 -58.5q97 0 150 58t53 160q0 52 -14.5 93
t-41.5 69.5t-65 44t-85 15.5q-97 0 -148.5 -58.5t-51.5 -160.5z" />
    <glyph glyph-name="plusminus" unicode="&#xb1;" horiz-adv-x="1336" 
d="M1206 602h-474v-362l-126 -8v370h-486l8 118h478v358l126 10v-368h484zM1206 0h-1086l8 118h1088z" />
    <glyph glyph-name="uni00B2" unicode="&#xb2;" horiz-adv-x="845" 
d="M305 1373q-16 -23 -48 -38t-64 -15q-29 0 -51 15t-22 50q0 40 31 82t80.5 77t111.5 57.5t124 22.5q58 0 99 -19.5t67.5 -50t38.5 -69t12 -76.5q0 -69 -35 -134.5t-88 -124t-115.5 -110t-118.5 -93.5l2 -9l40 2q20 0 43 1q22 1 48 1.5t59 0.5q41 0 96 -1.5t121 -6.5
l-50 -134q-34 3 -76.5 4.5t-86.5 2t-85 0.5h-71q-30 0 -64.5 -0.5t-69.5 -1.5t-69 -3t-63 -5q1 25 15.5 48t37.5 46t53 46t62 47q40 29 82 65t75.5 80t55 98.5t21.5 120.5q0 79 -34 124t-104 45q-44 0 -70 -18.5t-26 -56.5q0 -17 7.5 -34.5t28.5 -35.5z" />
    <glyph glyph-name="uni00B3" unicode="&#xb3;" horiz-adv-x="812" 
d="M284 1381q-15 -20 -40 -32t-53 -12q-32 0 -55.5 17t-23.5 50q0 39 34 78t85.5 70.5t112.5 51.5t116 20q46 0 85 -14.5t66.5 -38.5t43 -55.5t15.5 -66.5q0 -19 -5.5 -41t-22 -46t-46 -48.5t-76.5 -48.5v-7q35 -3 70 -16t62.5 -36.5t45 -56t17.5 -74.5q0 -43 -18 -81
t-49 -71t-72 -59t-86 -44t-92.5 -28t-90.5 -10q-46 0 -83 10t-63.5 27.5t-41 39.5t-14.5 46q0 27 17.5 51t46.5 38q43 -48 95.5 -77.5t118.5 -29.5q34 0 63 8.5t50 26.5t33 45.5t12 65.5t-12 65.5t-33 45.5t-49.5 26.5t-62.5 8.5q-14 0 -34 -2t-40 -8q0 27 14 44t35 29
t46 23q24 10 45 26t35 40t14 62q0 63 -37.5 94t-97.5 31q-50 0 -76 -20t-26 -50q0 -16 6 -33t16 -34z" />
    <glyph glyph-name="acute" unicode="&#xb4;" horiz-adv-x="800" 
d="M640 1670q-63 -133 -121 -218t-108 -133.5t-91.5 -66.5t-72.5 -18q-15 0 -26.5 3.5t-22.5 10.5q38 49 77 106.5t75.5 120.5t70.5 129t61 132z" />
    <glyph glyph-name="mu" unicode="&#xb5;" horiz-adv-x="1398" 
d="M462 1114q-6 -66 -11 -146t-8 -160.5t-5 -154.5t-2 -127q0 -80 6.5 -145t29 -111.5t65 -72t115.5 -25.5q87 0 152 36.5t118 105.5q1 41 2 75q1 33 1.5 64.5t0.5 64.5v182q0 66 -1 136.5t-3 135.5t-6 106q90 12 156 25.5t98 22.5l18 -12q-6 -68 -10 -134t-6.5 -139
t-3 -156t-0.5 -185v-81q0 -43 0.5 -83t1.5 -73.5t2 -52.5q2 -32 7.5 -53t16 -33t25 -17t34.5 -5q53 0 131 30l24 -64q-36 -22 -82 -40.5t-92.5 -32t-90 -21.5t-73.5 -8q-40 0 -67.5 13.5t-44.5 38t-24.5 58t-7.5 73.5v22q0 9 2 29l-10 2q-30 -51 -63 -94.5t-67.5 -75
t-70.5 -49t-74 -17.5q-27 0 -56 10t-58 33t-56 61t-49 94l-8 -2q1 -107 3 -225.5t5 -232t6.5 -214t7.5 -170.5q-90 -11 -155 -22t-97 -20l-18 12l6 124q3 62 6 139.5t5.5 177.5t4.5 238t3 320.5t1 424.5v105q0 42 -0.5 70.5t-1 48.5t-1 39.5t-1.5 42.5t-2 58q90 12 157 25.5
t99 22.5z" />
    <glyph glyph-name="paragraph" unicode="&#xb6;" horiz-adv-x="1540" 
d="M1120 -493l-146 -10v930q-48 -17 -84 -28.5t-66 -19t-57.5 -11t-59.5 -3.5q-71 0 -144.5 16t-142 49t-129 83t-105 118t-70.5 154t-26 192q0 124 36 220t98.5 168t147 121.5t181.5 80t202 44t209 13.5q123 0 224.5 -13.5t177.5 -27.5l-23 -104q-24 4 -53 8t-58.5 8
t-58.5 7t-53 5v-2000zM974 1510q-71 -1 -125 -23t-94 -59t-67.5 -86t-44.5 -103t-24 -110.5t-7 -109.5q0 -89 20 -175t63.5 -155.5t112 -115t166.5 -52.5v989z" />
    <glyph glyph-name="periodcentered" unicode="&#xb7;" horiz-adv-x="574" 
d="M295 756q75 0 112 -39t37 -111q0 -78 -42 -122t-120 -44q-72 0 -112 39.5t-40 113.5q0 79 44 121t121 42z" />
    <glyph glyph-name="periodcentered" unicode="&#x2219;" horiz-adv-x="574" 
d="M295 756q75 0 112 -39t37 -111q0 -78 -42 -122t-120 -44q-72 0 -112 39.5t-40 113.5q0 79 44 121t121 42z" />
    <glyph glyph-name="cedilla" unicode="&#xb8;" horiz-adv-x="800" 
d="M466 20q-25 -36 -40.5 -60t-23.5 -40t-11 -26.5t-3 -20.5q0 -29 21 -49.5t65 -55.5q19 -15 37.5 -30.5t32.5 -32.5t23 -35t9 -38q0 -32 -22.5 -72.5t-59.5 -84t-84 -86.5t-96 -79l-50 46q23 21 48 45t46 49t34.5 49t13.5 47q0 25 -20.5 46.5t-65.5 57.5
q-14 11 -30.5 24.5t-31 29t-24.5 32t-10 33.5t10 39t25.5 46t35 48.5t38.5 46.5t35 40q16 19 26 31h72z" />
    <glyph glyph-name="uni00B9" unicode="&#xb9;" horiz-adv-x="668" 
d="M294 1082v230q0 25 -0.5 46.5t-1.5 45.5q0 17 -2.5 28t-9.5 17.5t-20.5 9t-34.5 2.5t-46.5 -1.5t-48.5 -3.5q-23 -3 -39.5 -4.5t-17.5 -1.5l13 60q69 11 127.5 25.5t106.5 30t84.5 31t60.5 28.5l15 -8q-9 -106 -11 -220.5t-2 -232.5q0 -117 0.5 -208.5t5.5 -148.5
q-63 -7 -106.5 -14t-64.5 -11l-14 9q2 38 3 86.5t2 100.5t1 104z" />
    <glyph glyph-name="ordmasculine" unicode="&#xba;" horiz-adv-x="878" 
d="M608 1068q0 57 -11.5 113t-36 101t-63 72.5t-92.5 27.5q-42 0 -69 -17t-42 -44.5t-20.5 -61.5t-5.5 -68q0 -57 12.5 -113t38 -101t65 -73t92.5 -28q41 0 67 17t40.5 44.5t19.5 61.5t5 69zM471 1474q69 0 128.5 -22t103.5 -64t69.5 -103.5t25.5 -139.5q0 -99 -38 -168
t-96 -112.5t-127.5 -63t-132.5 -19.5q-67 0 -126 21t-103.5 63t-70.5 103.5t-26 142.5q0 102 39 171.5t98 111.5t127.5 60.5t128.5 18.5z" />
    <glyph glyph-name="guillemotright" unicode="&#xbb;" horiz-adv-x="1264" 
d="M736 1046q27 -57 63 -115.5t81 -113.5t98.5 -105t115.5 -90l-20 -114q-63 -43 -125.5 -97t-118 -114t-101 -124.5t-73.5 -128.5q-15 24 -21.5 50.5t-6.5 52.5q0 51 23 102t60.5 101.5t85 99.5t97.5 96l2 14q-32 30 -68 67t-71 82t-68 99.5t-59 119.5zM300 1038
q27 -57 63.5 -115.5t81.5 -113.5t99 -105t116 -90l-20 -114q-62 -43 -125.5 -95t-120 -110t-102.5 -120.5t-74 -126.5q-15 24 -21.5 51t-6.5 51q0 51 23.5 100.5t61.5 97.5t86.5 95.5t98.5 94.5l2 14q-32 30 -68 66.5t-72 82t-69 100t-59 119.5z" />
    <glyph glyph-name="onequarter" unicode="&#xbc;" horiz-adv-x="1664" 
d="M294 1082v230q0 25 -0.5 46.5t-1.5 45.5q0 17 -2.5 28t-9.5 17.5t-20.5 9t-34.5 2.5t-46.5 -1.5t-48.5 -3.5q-23 -3 -39.5 -4.5t-17.5 -1.5l13 60q69 11 127.5 25.5t106.5 30t84.5 31t60.5 28.5l15 -8q-9 -106 -11 -220.5t-2 -232.5q0 -117 0.5 -208.5t5.5 -148.5
q-63 -7 -106.5 -14t-64.5 -11l-14 9q2 38 3 86.5t2 100.5t1 104zM137 -78q117 152 234.5 317t229.5 331.5t216 328.5t194 306.5t163 266t123 207.5l111 -38q-38 -63 -88 -145t-109 -177.5t-125 -201t-136.5 -216t-143.5 -222t-145.5 -219t-143 -207t-135.5 -185.5
q-39 -52 -69.5 -84t-54 -49t-41.5 -23t-32 -6q-18 0 -30.5 5.5t-17.5 10.5zM1198 816q16 3 37 7q20 3 40 6.5t37.5 7.5t29.5 8l13 -8q-18 -53 -53 -111.5t-80 -122t-96 -131.5t-102 -138l2 -5q51 2 110 4t126 2q1 12 2 31t1.5 37.5t0.5 33.5v21q2 21 5.5 30t15.5 18
q3 3 17.5 12.5t34.5 21.5t43.5 25t44.5 22l15 -9q-6 -55 -8.5 -112.5t-4.5 -132.5q48 0 89.5 -1t76.5 -3l-49 -130q-19 2 -51 3q-32 0 -69 1v-43q0 -27 0.5 -57t1 -57.5t1.5 -43.5q-63 -7 -102 -14l-60 -11l-13 8q1 23 2 53l2 60q0 30 1 59v48q-136 0 -236.5 -3t-170.5 -11
q0 20 15 45.5t41 59.5t60.5 78.5t74.5 102.5q60 89 98.5 168t56.5 171z" />
    <glyph glyph-name="onehalf" unicode="&#xbd;" horiz-adv-x="1773" 
d="M294 1082v230q0 25 -0.5 46.5t-1.5 45.5q0 17 -2.5 28t-9.5 17.5t-20.5 9t-34.5 2.5t-46.5 -1.5t-48.5 -3.5q-23 -3 -39.5 -4.5t-17.5 -1.5l13 60q69 11 127.5 25.5t106.5 30t84.5 31t60.5 28.5l15 -8q-9 -106 -11 -220.5t-2 -232.5q0 -117 0.5 -208.5t5.5 -148.5
q-63 -7 -106.5 -14t-64.5 -11l-14 9q2 38 3 86.5t2 100.5t1 104zM137 -78q117 152 234.5 317t229.5 331.5t216 328.5t194 306.5t163 266t123 207.5l111 -38q-38 -63 -88 -145t-109 -177.5t-125 -201t-136.5 -216t-143.5 -222t-145.5 -219t-143 -207t-135.5 -185.5
q-39 -52 -69.5 -84t-54 -49t-41.5 -23t-32 -6q-18 0 -30.5 5.5t-17.5 10.5zM1183 567q-16 -23 -48 -38t-64 -15q-29 0 -51 15t-22 50q0 40 31 82t80.5 77t111.5 57.5t124 22.5q58 0 99 -19.5t67.5 -50t38.5 -69t12 -76.5q0 -69 -35 -134.5t-88 -124t-115.5 -110
t-118.5 -93.5l2 -9l40 2q20 0 43 1q22 1 48 1.5t59 0.5q41 0 96 -1.5t121 -6.5l-50 -134q-34 3 -76.5 4.5t-86.5 2t-85 0.5h-71q-30 0 -64.5 -0.5t-69.5 -1.5t-69 -3t-63 -5q1 25 15.5 48t37.5 46t53 46t62 47q40 29 82 65t75.5 80t55 98.5t21.5 120.5q0 79 -34 124t-104 45
q-44 0 -70 -18.5t-26 -56.5q0 -17 7.5 -34.5t28.5 -35.5z" />
    <glyph glyph-name="threequarters" unicode="&#xbe;" horiz-adv-x="1738" 
d="M284 1381q-15 -20 -40 -32t-53 -12q-32 0 -55.5 17t-23.5 50q0 39 34 78t85.5 70.5t112.5 51.5t116 20q46 0 85 -14.5t66.5 -38.5t43 -55.5t15.5 -66.5q0 -19 -5.5 -41t-22 -46t-46 -48.5t-76.5 -48.5v-7q35 -3 70 -16t62.5 -36.5t45 -56t17.5 -74.5q0 -43 -18 -81
t-49 -71t-72 -59t-86 -44t-92.5 -28t-90.5 -10q-46 0 -83 10t-63.5 27.5t-41 39.5t-14.5 46q0 27 17.5 51t46.5 38q43 -48 95.5 -77.5t118.5 -29.5q34 0 63 8.5t50 26.5t33 45.5t12 65.5t-12 65.5t-33 45.5t-49.5 26.5t-62.5 8.5q-14 0 -34 -2t-40 -8q0 27 14 44t35 29
t46 23q24 10 45 26t35 40t14 62q0 63 -37.5 94t-97.5 31q-50 0 -76 -20t-26 -50q0 -16 6 -33t16 -34zM211 -78q117 152 234.5 317t229.5 331.5t216 328.5t194 306.5t163 266t123 207.5l111 -38q-38 -63 -88 -145t-109 -177.5t-125 -201t-136.5 -216t-143.5 -222t-145.5 -219
t-143 -207t-135.5 -185.5q-39 -52 -69.5 -84t-54 -49t-41.5 -23t-32 -6q-18 0 -30.5 5.5t-17.5 10.5zM1272 816q16 3 37 7q20 3 40 6.5t37.5 7.5t29.5 8l13 -8q-18 -53 -53 -111.5t-80 -122t-96 -131.5t-102 -138l2 -5q51 2 110 4t126 2q1 12 2 31t1.5 37.5t0.5 33.5v21
q2 21 5.5 30t15.5 18q3 3 17.5 12.5t34.5 21.5t43.5 25t44.5 22l15 -9q-6 -55 -8.5 -112.5t-4.5 -132.5q48 0 89.5 -1t76.5 -3l-49 -130q-19 2 -51 3q-32 0 -69 1v-43q0 -27 0.5 -57t1 -57.5t1.5 -43.5q-63 -7 -102 -14l-60 -11l-13 8q1 23 2 53l2 60q0 30 1 59v48
q-136 0 -236.5 -3t-170.5 -11q0 20 15 45.5t41 59.5t60.5 78.5t74.5 102.5q60 89 98.5 168t56.5 171z" />
    <glyph glyph-name="questiondown" unicode="&#xbf;" horiz-adv-x="1093" 
d="M745 -197q22 32 59.5 51t77.5 19q45 0 78 -25t33 -74q0 -39 -22.5 -79.5t-60.5 -79t-90 -72.5t-110 -59.5t-120.5 -40.5t-122.5 -15q-81 0 -140.5 27t-98.5 70.5t-58.5 99.5t-19.5 115q0 78 30.5 143t76 122t99.5 110q53 52 98.5 105.5t76 111.5t30.5 126q0 30 -7 60
t-24 67q13 5 26.5 7.5t23.5 2.5q28 0 47.5 -15.5t30.5 -39.5t16 -52.5t5 -53.5q0 -59 -21 -110.5t-52.5 -100.5t-67.5 -97q-37 -48 -68.5 -99t-52.5 -107.5t-21 -121.5q0 -60 18.5 -102.5t49 -69.5t71 -39t84.5 -12q78 0 124.5 33t46.5 89q0 49 -45 106zM589 777
q-72 0 -108.5 38.5t-36.5 107.5q0 77 41.5 120t116.5 43q71 0 110 -38.5t39 -110.5q0 -77 -43 -118.5t-119 -41.5z" />
    <glyph glyph-name="Agrave" unicode="&#xc0;" horiz-adv-x="1768" 
d="M1258 844q48 -138 85 -243.5t65 -183.5t49 -131.5t37 -87.5q15 -35 28 -56t40.5 -34t77 -19.5t136.5 -12.5l-40 -90q-12 1 -44 3.5t-77.5 4.5t-101 4t-115.5 2q-64 0 -126.5 -2t-113.5 -5t-84.5 -5.5t-39.5 -3.5q0 10 3.5 26.5t23 33.5t59.5 32t114 22q-26 84 -63.5 196
t-88.5 252q-165 0 -301 -1t-257 -5q-35 -81 -59 -137t-39.5 -94.5t-25.5 -63.5t-16 -43q-11 -31 -15.5 -47t-4.5 -26q0 -12 8.5 -20t31 -13.5t62 -9.5t102.5 -8l-40 -90q-8 1 -39 3t-73 4t-88 3.5t-83 1.5q-41 0 -88.5 -2t-89 -4t-71 -4.5t-34.5 -3.5q0 10 4 26.5t25 34
t65 32.5t124 21q28 52 66 129t82 171t92 200.5t98 217.5q60 135 104 235.5t76 175t54 128t38 95t28.5 76.5t25.5 72q16 1 36 3t41.5 5t43 6.5t41.5 7.5q16 -61 35.5 -128t48 -156.5t69.5 -209t99 -284.5zM1238 91zM1530 76zM189 94zM335 78zM570 644q117 5 234 7
q117 1 240 3l-56 158q-36 106 -73 213q-37 106 -73 217h-8q-48 -112 -95.5 -222t-98.5 -222zM658 2068q118 -99 243 -175.5t245 -130.5q-14 -24 -45.5 -40t-83.5 -16q-36 0 -83 10t-106 34.5t-130.5 66.5t-155.5 105z" />
    <glyph glyph-name="Aacute" unicode="&#xc1;" horiz-adv-x="1768" 
d="M1258 844q48 -138 85 -243.5t65 -183.5t49 -131.5t37 -87.5q15 -35 28 -56t40.5 -34t77 -19.5t136.5 -12.5l-40 -90q-12 1 -44 3.5t-77.5 4.5t-101 4t-115.5 2q-64 0 -126.5 -2t-113.5 -5t-84.5 -5.5t-39.5 -3.5q0 10 3.5 26.5t23 33.5t59.5 32t114 22q-26 84 -63.5 196
t-88.5 252q-165 0 -301 -1t-257 -5q-35 -81 -59 -137t-39.5 -94.5t-25.5 -63.5t-16 -43q-11 -31 -15.5 -47t-4.5 -26q0 -12 8.5 -20t31 -13.5t62 -9.5t102.5 -8l-40 -90q-8 1 -39 3t-73 4t-88 3.5t-83 1.5q-41 0 -88.5 -2t-89 -4t-71 -4.5t-34.5 -3.5q0 10 4 26.5t25 34
t65 32.5t124 21q28 52 66 129t82 171t92 200.5t98 217.5q60 135 104 235.5t76 175t54 128t38 95t28.5 76.5t25.5 72q16 1 36 3t41.5 5t43 6.5t41.5 7.5q16 -61 35.5 -128t48 -156.5t69.5 -209t99 -284.5zM1238 91zM1530 76zM189 94zM335 78zM570 644q117 5 234 7
q117 1 240 3l-56 158q-36 106 -73 213q-37 106 -73 217h-8q-48 -112 -95.5 -222t-98.5 -222zM1302 1922q-84 -63 -155 -104.5t-130.5 -66.5t-107 -35t-83.5 -10q-51 0 -82.5 16t-45.5 40q120 54 245 130.5t243 175.5z" />
    <glyph glyph-name="Acircumflex" unicode="&#xc2;" horiz-adv-x="1768" 
d="M1258 844q48 -138 85 -243.5t65 -183.5t49 -131.5t37 -87.5q15 -35 28 -56t40.5 -34t77 -19.5t136.5 -12.5l-40 -90q-12 1 -44 3.5t-77.5 4.5t-101 4t-115.5 2q-64 0 -126.5 -2t-113.5 -5t-84.5 -5.5t-39.5 -3.5q0 10 3.5 26.5t23 33.5t59.5 32t114 22q-26 84 -63.5 196
t-88.5 252q-165 0 -301 -1t-257 -5q-35 -81 -59 -137t-39.5 -94.5t-25.5 -63.5t-16 -43q-11 -31 -15.5 -47t-4.5 -26q0 -12 8.5 -20t31 -13.5t62 -9.5t102.5 -8l-40 -90q-8 1 -39 3t-73 4t-88 3.5t-83 1.5q-41 0 -88.5 -2t-89 -4t-71 -4.5t-34.5 -3.5q0 10 4 26.5t25 34
t65 32.5t124 21q28 52 66 129t82 171t92 200.5t98 217.5q60 135 104 235.5t76 175t54 128t38 95t28.5 76.5t25.5 72q16 1 36 3t41.5 5t43 6.5t41.5 7.5q16 -61 35.5 -128t48 -156.5t69.5 -209t99 -284.5zM1238 91zM1530 76zM189 94zM335 78zM570 644q117 5 234 7
q117 1 240 3l-56 158q-36 106 -73 213q-37 106 -73 217h-8q-48 -112 -95.5 -222t-98.5 -222zM916 1894q-46 -40 -87.5 -74t-80.5 -59t-76.5 -39t-74.5 -14q-20 0 -42 5.5t-41 20.5q103 54 197.5 135t178.5 195l102 18q34 -59 75.5 -104.5t87 -81.5t93 -64.5t94.5 -53.5
l-124 -86q-53 23 -94.5 47.5t-76 50t-63.5 52t-56 52.5h-12z" />
    <glyph glyph-name="Atilde" unicode="&#xc3;" horiz-adv-x="1768" 
d="M1258 844q48 -138 85 -243.5t65 -183.5t49 -131.5t37 -87.5q15 -35 28 -56t40.5 -34t77 -19.5t136.5 -12.5l-40 -90q-12 1 -44 3.5t-77.5 4.5t-101 4t-115.5 2q-64 0 -126.5 -2t-113.5 -5t-84.5 -5.5t-39.5 -3.5q0 10 3.5 26.5t23 33.5t59.5 32t114 22q-26 84 -63.5 196
t-88.5 252q-165 0 -301 -1t-257 -5q-35 -81 -59 -137t-39.5 -94.5t-25.5 -63.5t-16 -43q-11 -31 -15.5 -47t-4.5 -26q0 -12 8.5 -20t31 -13.5t62 -9.5t102.5 -8l-40 -90q-8 1 -39 3t-73 4t-88 3.5t-83 1.5q-41 0 -88.5 -2t-89 -4t-71 -4.5t-34.5 -3.5q0 10 4 26.5t25 34
t65 32.5t124 21q28 52 66 129t82 171t92 200.5t98 217.5q60 135 104 235.5t76 175t54 128t38 95t28.5 76.5t25.5 72q16 1 36 3t41.5 5t43 6.5t41.5 7.5q16 -61 35.5 -128t48 -156.5t69.5 -209t99 -284.5zM1238 91zM1530 76zM189 94zM335 78zM570 644q117 5 234 7
q117 1 240 3l-56 158q-36 106 -73 213q-37 106 -73 217h-8q-48 -112 -95.5 -222t-98.5 -222zM1326 1976q-69 -121 -140 -184.5t-128 -63.5q-31 0 -72 16t-84 35q-42 19 -82.5 35t-70.5 16q-40 0 -88.5 -33.5t-90.5 -90.5q-20 11 -20 35q0 16 12 40.5t32.5 51t47 53.5
t56.5 48t61.5 34.5t60.5 13.5q31 0 69 -14.5t76 -32.5q39 -18 76.5 -32.5t68.5 -14.5q16 0 33 5.5t35.5 19.5t40 38t47.5 61z" />
    <glyph glyph-name="Adieresis" unicode="&#xc4;" horiz-adv-x="1768" 
d="M1258 844q48 -138 85 -243.5t65 -183.5t49 -131.5t37 -87.5q15 -35 28 -56t40.5 -34t77 -19.5t136.5 -12.5l-40 -90q-12 1 -44 3.5t-77.5 4.5t-101 4t-115.5 2q-64 0 -126.5 -2t-113.5 -5t-84.5 -5.5t-39.5 -3.5q0 10 3.5 26.5t23 33.5t59.5 32t114 22q-26 84 -63.5 196
t-88.5 252q-165 0 -301 -1t-257 -5q-35 -81 -59 -137t-39.5 -94.5t-25.5 -63.5t-16 -43q-11 -31 -15.5 -47t-4.5 -26q0 -12 8.5 -20t31 -13.5t62 -9.5t102.5 -8l-40 -90q-8 1 -39 3t-73 4t-88 3.5t-83 1.5q-41 0 -88.5 -2t-89 -4t-71 -4.5t-34.5 -3.5q0 10 4 26.5t25 34
t65 32.5t124 21q28 52 66 129t82 171t92 200.5t98 217.5q60 135 104 235.5t76 175t54 128t38 95t28.5 76.5t25.5 72q16 1 36 3t41.5 5t43 6.5t41.5 7.5q16 -61 35.5 -128t48 -156.5t69.5 -209t99 -284.5zM1238 91zM1530 76zM189 94zM335 78zM570 644q117 5 234 7
q117 1 240 3l-56 158q-36 106 -73 213q-37 106 -73 217h-8q-48 -112 -95.5 -222t-98.5 -222zM1250 1968v-24q0 -44 10.5 -77.5t43.5 -68.5q-24 -38 -66 -59t-90 -21q-27 0 -51.5 7.5t-43.5 23.5t-30 40.5t-11 58.5q0 24 5.5 46t14.5 46l214 34zM604 1934l210 24
q24 -54 24 -107q0 -36 -11.5 -62.5t-30.5 -43.5t-43.5 -25t-51.5 -8q-43 0 -84 19.5t-65 52.5q15 14 24.5 27t14.5 27t7 30.5t2 39.5v20z" />
    <glyph glyph-name="Aring" unicode="&#xc5;" horiz-adv-x="1768" 
d="M1258 844q48 -138 85 -243.5t65 -183.5t49 -131.5t37 -87.5q15 -35 28 -56t40.5 -34t77 -19.5t136.5 -12.5l-40 -90q-12 1 -44 3.5t-77.5 4.5t-101 4t-115.5 2q-64 0 -126.5 -2t-113.5 -5t-84.5 -5.5t-39.5 -3.5q0 10 3.5 26.5t23 33.5t59.5 32t114 22q-26 84 -63.5 196
t-88.5 252q-165 0 -301 -1t-257 -5q-35 -81 -59 -137t-39.5 -94.5t-25.5 -63.5t-16 -43q-11 -31 -15.5 -47t-4.5 -26q0 -12 8.5 -20t31 -13.5t62 -9.5t102.5 -8l-40 -90q-8 1 -39 3t-73 4t-88 3.5t-83 1.5q-41 0 -88.5 -2t-89 -4t-71 -4.5t-34.5 -3.5q0 10 4 26.5t25 34
t65 32.5t124 21q28 52 66 129t82 171t92 200.5t98 217.5q60 135 104 235.5t76 175t54 128t38 95t28.5 76.5t25.5 72q16 1 36 3t41.5 5t43 6.5t41.5 7.5q16 -61 35.5 -128t48 -156.5t69.5 -209t99 -284.5zM1238 91zM1530 76zM189 94zM335 78zM570 644q117 5 234 7
q117 1 240 3l-56 158q-36 106 -73 213q-37 106 -73 217h-8q-48 -112 -95.5 -222t-98.5 -222zM684 1865q0 50 20 91.5t54.5 71.5t80.5 47t98 17q49 0 90 -15.5t70 -43t45 -65t16 -81.5q0 -48 -19 -89.5t-52.5 -72t-79.5 -48t-100 -17.5q-52 0 -93.5 16t-70 43.5t-44 65
t-15.5 80.5zM1044 1868q0 29 -7.5 55t-23.5 45.5t-40.5 30.5t-58.5 11q-54 0 -85 -30t-31 -92q0 -28 7 -54t22.5 -46.5t40 -33t59.5 -12.5q56 0 86.5 33t30.5 93z" />
    <glyph glyph-name="AE" unicode="&#xc6;" horiz-adv-x="2296" 
d="M1251 1584q140 0 270.5 2.5t234 5.5t170.5 6q67 2 79 2q19 0 32.5 -9.5t15.5 -40.5q2 -58 2 -144t4 -178l-88 -10q-12 62 -24.5 106t-32 72.5t-48.5 45t-74.5 24.5t-109.5 10t-153 2h-152q-3 -52 -5 -112t-3 -136.5t-1.5 -172.5t-0.5 -219q87 3 168 5t151 4
q69 1 124.5 2.5t90.5 2.5q15 0 25.5 -7t16.5 -18t9 -25t3 -29q0 -29 -7 -49.5t-13 -33.5q-154 12 -292.5 18t-275.5 8v-223q0 -55 0.5 -105.5t1 -91t1 -68.5t1.5 -38q2 -29 10.5 -45.5t30.5 -25t59 -11t96 -2.5q92 0 160.5 4.5t119 18t87 37.5t67 63.5t57 95.5t57.5 133
l90 -20q-24 -108 -42 -183.5t-33 -126t-29 -80t-30.5 -44t-37 -18.5t-48.5 -4q-22 0 -67 1q-45 2 -105.5 4t-131 4t-144 4t-145 3.5t-133.5 1.5q-177 0 -268 -8q-92 -8 -112 -8q0 9 3.5 25.5t23.5 34.5t64 33t125 21q9 97 10.5 249t1.5 367q-251 -3 -482 -12
q-27 -47 -56 -98t-58 -101.5t-56 -97.5q-28 -48 -51 -88t-40 -70t-25 -45q-17 -31 -21.5 -46.5t-4.5 -23.5q0 -14 7.5 -22.5t29 -14t61.5 -9.5t106 -8l-40 -90q-8 1 -39.5 3t-73.5 4t-89 3.5t-86 1.5q-43 0 -94 -2t-96 -4t-77 -4.5t-37 -3.5q0 10 4 26.5t25 34t65 32.5
t124 21q41 57 87.5 128t101 159t118.5 195t141 236q84 141 143 240q58 99 102 173t78 133t69 120q-99 5 -165.5 8.5t-114.5 9.5l36 98q34 -3 172 -9.5t380 -6.5zM109 94zM267 78zM952 1489zM1107 830q0 141 -0.5 248.5t-1.5 186t-2 131t-2 84.5h-18q-35 -59 -80 -135
t-96.5 -163t-107 -181.5t-110.5 -188.5z" />
    <glyph glyph-name="Ccedilla" unicode="&#xc7;" horiz-adv-x="1675" 
d="M1427 1136q-17 97 -55 165t-97 111.5t-138.5 63.5t-178.5 20q-279 0 -417 -152.5t-138 -462.5q0 -105 16 -204.5t49 -188t83.5 -162.5t119.5 -127t157 -83t196 -30q102 0 175 27t126 78t90.5 123.5t69.5 163.5l90 -20q-17 -88 -32 -153t-29 -111t-28.5 -75t-30.5 -45
q-26 -26 -80.5 -45.5t-123.5 -33t-145.5 -21t-144.5 -8.5q-27 -39 -33.5 -59t-6.5 -33q0 -15 5 -26.5t15.5 -23.5t26.5 -25t39 -31q21 -17 39.5 -32.5t32.5 -32t22 -34t8 -36.5q0 -32 -22.5 -73t-59.5 -84t-84 -86t-96 -80l-50 46q23 21 48 45t46 49t34.5 49t13.5 47
q0 25 -20.5 46.5t-65.5 57.5q-14 11 -30.5 24.5t-31 29t-24.5 32t-10 33.5q0 19 12 44t30 51.5t40 53t42 50.5q-173 7 -314.5 63.5t-242 156.5t-155 240.5t-54.5 315.5q0 204 72 367t197.5 277t294 175t362.5 61q64 0 126.5 -6.5t118 -16.5t101.5 -23t76 -26
q23 -11 33.5 -22.5t12.5 -43.5q1 -12 1.5 -49.5t1 -87t1.5 -104.5q0 -55 2 -101z" />
    <glyph glyph-name="Egrave" unicode="&#xc8;" horiz-adv-x="1489" 
d="M560 770v-386q0 -75 1 -125t3 -69q2 -29 11.5 -45.5t32.5 -25t63 -11t103 -2.5q94 0 163 4.5t120 17.5t88.5 37t67.5 63.5t57 95.5t58 134l90 -20q-24 -108 -42 -183.5t-33 -126t-29 -80t-30.5 -44t-37 -18.5t-48.5 -4q-22 0 -69 1.5t-109 3.5t-135.5 4t-149 4
t-148.5 3.5t-135 1.5q-177 0 -268 -8q-92 -8 -112 -8q0 9 3.5 25.5t23.5 34.5t64 33t125 21q4 42 6.5 106t4 137t1.5 149v415q0 114 -0.5 194.5t-1.5 132t-2 85.5t-2 55t-2 40q-2 28 -6.5 44t-25.5 25t-65.5 14.5t-126.5 12.5l34 88q25 -4 120.5 -8t251.5 -4q78 0 162.5 1
t167 3t157 4t133.5 4q58 2 94.5 3t42.5 1q14 0 29 -9.5t16 -40.5q2 -58 2 -144t4 -178l-88 -10q-13 62 -26 106t-32 72.5t-47.5 45t-73.5 24.5t-109 10t-154 2h-182q-3 -54 -5 -114t-3 -132t-1.5 -159.5t-0.5 -196.5q121 9 220 16t171 12t115 7.5t52 2.5q31 0 43.5 -24.5
t12.5 -54.5q0 -28 -7 -50.5t-13 -38.5q-78 4 -152 7.5t-146.5 6.5t-146 5.5t-149.5 4.5zM472 2068q118 -99 243 -175.5t245 -130.5q-14 -24 -45.5 -40t-83.5 -16q-36 0 -83 10t-106 34.5t-130.5 66.5t-155.5 105z" />
    <glyph glyph-name="Eacute" unicode="&#xc9;" horiz-adv-x="1489" 
d="M560 770v-386q0 -75 1 -125t3 -69q2 -29 11.5 -45.5t32.5 -25t63 -11t103 -2.5q94 0 163 4.5t120 17.5t88.5 37t67.5 63.5t57 95.5t58 134l90 -20q-24 -108 -42 -183.5t-33 -126t-29 -80t-30.5 -44t-37 -18.5t-48.5 -4q-22 0 -69 1.5t-109 3.5t-135.5 4t-149 4
t-148.5 3.5t-135 1.5q-177 0 -268 -8q-92 -8 -112 -8q0 9 3.5 25.5t23.5 34.5t64 33t125 21q4 42 6.5 106t4 137t1.5 149v415q0 114 -0.5 194.5t-1.5 132t-2 85.5t-2 55t-2 40q-2 28 -6.5 44t-25.5 25t-65.5 14.5t-126.5 12.5l34 88q25 -4 120.5 -8t251.5 -4q78 0 162.5 1
t167 3t157 4t133.5 4q58 2 94.5 3t42.5 1q14 0 29 -9.5t16 -40.5q2 -58 2 -144t4 -178l-88 -10q-13 62 -26 106t-32 72.5t-47.5 45t-73.5 24.5t-109 10t-154 2h-182q-3 -54 -5 -114t-3 -132t-1.5 -159.5t-0.5 -196.5q121 9 220 16t171 12t115 7.5t52 2.5q31 0 43.5 -24.5
t12.5 -54.5q0 -28 -7 -50.5t-13 -38.5q-78 4 -152 7.5t-146.5 6.5t-146 5.5t-149.5 4.5zM1116 1922q-84 -63 -155 -104.5t-130.5 -66.5t-107 -35t-83.5 -10q-51 0 -82.5 16t-45.5 40q120 54 245 130.5t243 175.5z" />
    <glyph glyph-name="Ecircumflex" unicode="&#xca;" horiz-adv-x="1489" 
d="M560 770v-386q0 -75 1 -125t3 -69q2 -29 11.5 -45.5t32.5 -25t63 -11t103 -2.5q94 0 163 4.5t120 17.5t88.5 37t67.5 63.5t57 95.5t58 134l90 -20q-24 -108 -42 -183.5t-33 -126t-29 -80t-30.5 -44t-37 -18.5t-48.5 -4q-22 0 -69 1.5t-109 3.5t-135.5 4t-149 4
t-148.5 3.5t-135 1.5q-177 0 -268 -8q-92 -8 -112 -8q0 9 3.5 25.5t23.5 34.5t64 33t125 21q4 42 6.5 106t4 137t1.5 149v415q0 114 -0.5 194.5t-1.5 132t-2 85.5t-2 55t-2 40q-2 28 -6.5 44t-25.5 25t-65.5 14.5t-126.5 12.5l34 88q25 -4 120.5 -8t251.5 -4q78 0 162.5 1
t167 3t157 4t133.5 4q58 2 94.5 3t42.5 1q14 0 29 -9.5t16 -40.5q2 -58 2 -144t4 -178l-88 -10q-13 62 -26 106t-32 72.5t-47.5 45t-73.5 24.5t-109 10t-154 2h-182q-3 -54 -5 -114t-3 -132t-1.5 -159.5t-0.5 -196.5q121 9 220 16t171 12t115 7.5t52 2.5q31 0 43.5 -24.5
t12.5 -54.5q0 -28 -7 -50.5t-13 -38.5q-78 4 -152 7.5t-146.5 6.5t-146 5.5t-149.5 4.5zM730 1894q-46 -40 -87.5 -74t-80.5 -59t-76.5 -39t-74.5 -14q-20 0 -42 5.5t-41 20.5q103 54 197.5 135t178.5 195l102 18q34 -59 75.5 -104.5t87 -81.5t93 -64.5t94.5 -53.5l-124 -86
q-53 23 -94.5 47.5t-76 50t-63.5 52t-56 52.5h-12z" />
    <glyph glyph-name="Edieresis" unicode="&#xcb;" horiz-adv-x="1489" 
d="M560 770v-386q0 -75 1 -125t3 -69q2 -29 11.5 -45.5t32.5 -25t63 -11t103 -2.5q94 0 163 4.5t120 17.5t88.5 37t67.5 63.5t57 95.5t58 134l90 -20q-24 -108 -42 -183.5t-33 -126t-29 -80t-30.5 -44t-37 -18.5t-48.5 -4q-22 0 -69 1.5t-109 3.5t-135.5 4t-149 4
t-148.5 3.5t-135 1.5q-177 0 -268 -8q-92 -8 -112 -8q0 9 3.5 25.5t23.5 34.5t64 33t125 21q4 42 6.5 106t4 137t1.5 149v415q0 114 -0.5 194.5t-1.5 132t-2 85.5t-2 55t-2 40q-2 28 -6.5 44t-25.5 25t-65.5 14.5t-126.5 12.5l34 88q25 -4 120.5 -8t251.5 -4q78 0 162.5 1
t167 3t157 4t133.5 4q58 2 94.5 3t42.5 1q14 0 29 -9.5t16 -40.5q2 -58 2 -144t4 -178l-88 -10q-13 62 -26 106t-32 72.5t-47.5 45t-73.5 24.5t-109 10t-154 2h-182q-3 -54 -5 -114t-3 -132t-1.5 -159.5t-0.5 -196.5q121 9 220 16t171 12t115 7.5t52 2.5q31 0 43.5 -24.5
t12.5 -54.5q0 -28 -7 -50.5t-13 -38.5q-78 4 -152 7.5t-146.5 6.5t-146 5.5t-149.5 4.5zM1064 1968v-24q0 -44 10.5 -77.5t43.5 -68.5q-24 -38 -66 -59t-90 -21q-27 0 -51.5 7.5t-43.5 23.5t-30 40.5t-11 58.5q0 24 5.5 46t14.5 46l214 34zM418 1934l210 24q24 -54 24 -107
q0 -36 -11.5 -62.5t-30.5 -43.5t-43.5 -25t-51.5 -8q-43 0 -84 19.5t-65 52.5q15 14 24.5 27t14.5 27t7 30.5t2 39.5v20z" />
    <glyph glyph-name="Igrave" unicode="&#xcc;" horiz-adv-x="860" 
d="M560 817v-202q0 -86 0.5 -150.5t1 -109.5t1 -77.5t1.5 -56.5t2 -45q1 -28 6.5 -44.5t28.5 -27t72 -16.5t137 -12l-40 -90q-11 1 -45 3.5t-82 4.5t-104.5 4t-111.5 2q-68 0 -129.5 -2.5t-110 -5.5t-78.5 -6q-31 -2 -37 -2q0 9 3.5 25.5t23.5 34.5t64 33t125 21
q4 42 6.5 105.5t4 137t1.5 151.5v427q0 112 -0.5 187t-1.5 120.5t-2 76t-2 54.5q-1 23 -2 55q-2 28 -6.5 44t-26 25t-66 14.5t-125.5 12.5l34 88q9 -2 43.5 -4t82 -4t102.5 -3t104 -1q79 0 145 3t114 6t75 6t30 3q0 -12 -4 -29.5t-25.5 -35.5t-67.5 -33t-129 -22
q-4 -57 -6.5 -118t-3.5 -138.5t-1.5 -177t-0.5 -231.5zM168 2068q118 -99 243 -175.5t245 -130.5q-14 -24 -45.5 -40t-83.5 -16q-36 0 -83 10t-106 34.5t-130.5 66.5t-155.5 105z" />
    <glyph glyph-name="Iacute" unicode="&#xcd;" horiz-adv-x="860" 
d="M560 817v-202q0 -86 0.5 -150.5t1 -109.5t1 -77.5t1.5 -56.5t2 -45q1 -28 6.5 -44.5t28.5 -27t72 -16.5t137 -12l-40 -90q-11 1 -45 3.5t-82 4.5t-104.5 4t-111.5 2q-68 0 -129.5 -2.5t-110 -5.5t-78.5 -6q-31 -2 -37 -2q0 9 3.5 25.5t23.5 34.5t64 33t125 21
q4 42 6.5 105.5t4 137t1.5 151.5v427q0 112 -0.5 187t-1.5 120.5t-2 76t-2 54.5q-1 23 -2 55q-2 28 -6.5 44t-26 25t-66 14.5t-125.5 12.5l34 88q9 -2 43.5 -4t82 -4t102.5 -3t104 -1q79 0 145 3t114 6t75 6t30 3q0 -12 -4 -29.5t-25.5 -35.5t-67.5 -33t-129 -22
q-4 -57 -6.5 -118t-3.5 -138.5t-1.5 -177t-0.5 -231.5zM812 1922q-84 -63 -155 -104.5t-130.5 -66.5t-107 -35t-83.5 -10q-51 0 -82.5 16t-45.5 40q120 54 245 130.5t243 175.5z" />
    <glyph glyph-name="Icircumflex" unicode="&#xce;" horiz-adv-x="860" 
d="M560 817v-202q0 -86 0.5 -150.5t1 -109.5t1 -77.5t1.5 -56.5t2 -45q1 -28 6.5 -44.5t28.5 -27t72 -16.5t137 -12l-40 -90q-11 1 -45 3.5t-82 4.5t-104.5 4t-111.5 2q-68 0 -129.5 -2.5t-110 -5.5t-78.5 -6q-31 -2 -37 -2q0 9 3.5 25.5t23.5 34.5t64 33t125 21
q4 42 6.5 105.5t4 137t1.5 151.5v427q0 112 -0.5 187t-1.5 120.5t-2 76t-2 54.5q-1 23 -2 55q-2 28 -6.5 44t-26 25t-66 14.5t-125.5 12.5l34 88q9 -2 43.5 -4t82 -4t102.5 -3t104 -1q79 0 145 3t114 6t75 6t30 3q0 -12 -4 -29.5t-25.5 -35.5t-67.5 -33t-129 -22
q-4 -57 -6.5 -118t-3.5 -138.5t-1.5 -177t-0.5 -231.5zM426 1894q-46 -40 -87.5 -74t-80.5 -59t-76.5 -39t-74.5 -14q-20 0 -42 5.5t-41 20.5q103 54 197.5 135t178.5 195l102 18q34 -59 75.5 -104.5t87 -81.5t93 -64.5t94.5 -53.5l-124 -86q-53 23 -94.5 47.5t-76 50
t-63.5 52t-56 52.5h-12z" />
    <glyph glyph-name="Idieresis" unicode="&#xcf;" horiz-adv-x="860" 
d="M560 817v-202q0 -86 0.5 -150.5t1 -109.5t1 -77.5t1.5 -56.5t2 -45q1 -28 6.5 -44.5t28.5 -27t72 -16.5t137 -12l-40 -90q-11 1 -45 3.5t-82 4.5t-104.5 4t-111.5 2q-68 0 -129.5 -2.5t-110 -5.5t-78.5 -6q-31 -2 -37 -2q0 9 3.5 25.5t23.5 34.5t64 33t125 21
q4 42 6.5 105.5t4 137t1.5 151.5v427q0 112 -0.5 187t-1.5 120.5t-2 76t-2 54.5q-1 23 -2 55q-2 28 -6.5 44t-26 25t-66 14.5t-125.5 12.5l34 88q9 -2 43.5 -4t82 -4t102.5 -3t104 -1q79 0 145 3t114 6t75 6t30 3q0 -12 -4 -29.5t-25.5 -35.5t-67.5 -33t-129 -22
q-4 -57 -6.5 -118t-3.5 -138.5t-1.5 -177t-0.5 -231.5zM760 1968v-24q0 -44 10.5 -77.5t43.5 -68.5q-24 -38 -66 -59t-90 -21q-27 0 -51.5 7.5t-43.5 23.5t-30 40.5t-11 58.5q0 24 5.5 46t14.5 46l214 34zM114 1934l210 24q24 -54 24 -107q0 -36 -11.5 -62.5t-30.5 -43.5
t-43.5 -25t-51.5 -8q-43 0 -84 19.5t-65 52.5q15 14 24.5 27t14.5 27t7 30.5t2 39.5v20z" />
    <glyph glyph-name="Eth" unicode="&#xd0;" horiz-adv-x="1859" 
d="M94 1546q101 20 201 35t193.5 24.5t177.5 14t153 4.5q231 0 404.5 -50t289 -145t173.5 -233t58 -313q0 -104 -21.5 -211.5t-67.5 -207t-119.5 -187t-177.5 -153t-240.5 -103t-309.5 -37.5q-47 0 -90.5 2.5t-88.5 5.5q-46 3 -95.5 5.5t-107.5 2.5q-59 0 -118 -2.5
t-107 -5.5t-79 -6q-31 -2 -34 -2q0 9 3.5 25.5t23 34.5t62 33t121.5 21q9 100 10.5 254.5t1.5 377.5v34q-51 0 -104 -1q-54 -1 -120 -1l-16 120q51 0 110 1q58 1 130 1v373q0 151 -2 223l-120 -18q-60 -9 -120 -20zM972 762q-68 1 -131 2q-64 1 -117.5 1.5t-94.5 0.5h-61
q0 -159 0.5 -263t1.5 -168t2.5 -95.5t3.5 -45.5q4 -33 19.5 -52t40.5 -29.5t58.5 -13.5t75.5 -3q149 0 257 25t184 69.5t123 105t73.5 131t35.5 149t9 157.5q0 209 -49 357.5t-142.5 242.5t-229.5 137.5t-309 43.5q-68 0 -150 -6q-2 -51 -3 -119t-1 -142v-361h126
q64 0 121.5 -0.5t105.5 -1.5t79 -2z" />
    <glyph glyph-name="Ntilde" unicode="&#xd1;" horiz-adv-x="1893" 
d="M1613 944v-508q0 -71 1 -140t3 -141t6 -155q-20 -2 -43.5 -6t-47 -9t-45.5 -10t-38 -9q-244 330 -496.5 642t-515.5 616l-6 -2q-3 -56 -4 -108t-1.5 -110.5t-0.5 -128.5v-163q0 -127 0.5 -217t1 -152.5t1.5 -101.5t3 -65q1 -28 7.5 -44.5t31.5 -27t74.5 -16.5t136.5 -12
l-40 -90q-10 1 -39.5 3.5t-71 4.5t-92 4t-102.5 2q-63 0 -118 -2.5t-97 -5.5t-68 -6q-26 -2 -30 -2q0 9 4 25.5t27.5 34.5t73 33t141.5 21q7 67 11.5 134.5t7 148.5t3 182.5t0.5 236.5q0 190 -1 335.5t-9 258.5q-35 34 -61 53.5t-58 31t-76.5 17.5t-114.5 12l34 88
q12 -2 50 -4t89 -3.5t109 -3t110 -1.5q37 0 74 1t58 3q111 -125 236.5 -271t253 -299t249.5 -305.5t227 -288.5h8q4 68 6 131t3 116t1 94v65q0 106 -0.5 184.5t-1 135.5t-2 96.5t-3 69t-3.5 51.5t-4 45q-3 28 -8.5 44t-29 25.5t-72.5 15t-138 11.5l26 88q7 -2 40.5 -4
t78.5 -4t95.5 -3t91.5 -1q65 0 123 3t101.5 6t69.5 6t28 3q0 -12 -3.5 -29.5t-26 -35.5t-71 -33t-137.5 -22q-7 -69 -11 -144.5t-6 -147.5t-2.5 -136t-0.5 -110zM1361 1976q-69 -121 -140 -184.5t-128 -63.5q-31 0 -72 16t-84 35q-42 19 -82.5 35t-70.5 16
q-40 0 -88.5 -33.5t-90.5 -90.5q-20 11 -20 35q0 16 12 40.5t32.5 51t47 53.5t56.5 48t61.5 34.5t60.5 13.5q31 0 69 -14.5t76 -32.5q39 -18 76.5 -32.5t68.5 -14.5q16 0 33 5.5t35.5 19.5t40 38t47.5 61z" />
    <glyph glyph-name="Ograve" unicode="&#xd2;" horiz-adv-x="1904" 
d="M399 882q0 -182 45 -326t127 -244t197.5 -153t255.5 -53q97 0 184.5 28.5t154 97.5t105.5 184.5t39 288.5q0 183 -45.5 328t-127.5 245.5t-196.5 154t-253.5 53.5q-97 0 -185 -29.5t-154.5 -99.5t-106 -186t-39.5 -289zM1018 1624q159 0 299 -52.5t245 -154t166 -250
t61 -339.5q0 -154 -39 -277.5t-106.5 -219t-157 -164.5t-190 -114t-206.5 -66t-206 -21q-104 0 -201 22t-182.5 66t-156.5 110t-122 154t-79 198t-28 241q0 160 40.5 286.5t109.5 223t160 164.5t191.5 111t204 62.5t197.5 19.5zM687 2068q118 -99 243 -175.5t245 -130.5
q-14 -24 -45.5 -40t-83.5 -16q-36 0 -83 10t-106 34.5t-130.5 66.5t-155.5 105z" />
    <glyph glyph-name="Oacute" unicode="&#xd3;" horiz-adv-x="1904" 
d="M399 882q0 -182 45 -326t127 -244t197.5 -153t255.5 -53q97 0 184.5 28.5t154 97.5t105.5 184.5t39 288.5q0 183 -45.5 328t-127.5 245.5t-196.5 154t-253.5 53.5q-97 0 -185 -29.5t-154.5 -99.5t-106 -186t-39.5 -289zM1018 1624q159 0 299 -52.5t245 -154t166 -250
t61 -339.5q0 -154 -39 -277.5t-106.5 -219t-157 -164.5t-190 -114t-206.5 -66t-206 -21q-104 0 -201 22t-182.5 66t-156.5 110t-122 154t-79 198t-28 241q0 160 40.5 286.5t109.5 223t160 164.5t191.5 111t204 62.5t197.5 19.5zM1331 1922q-84 -63 -155 -104.5t-130.5 -66.5
t-107 -35t-83.5 -10q-51 0 -82.5 16t-45.5 40q120 54 245 130.5t243 175.5z" />
    <glyph glyph-name="Ocircumflex" unicode="&#xd4;" horiz-adv-x="1904" 
d="M399 882q0 -182 45 -326t127 -244t197.5 -153t255.5 -53q97 0 184.5 28.5t154 97.5t105.5 184.5t39 288.5q0 183 -45.5 328t-127.5 245.5t-196.5 154t-253.5 53.5q-97 0 -185 -29.5t-154.5 -99.5t-106 -186t-39.5 -289zM1018 1624q159 0 299 -52.5t245 -154t166 -250
t61 -339.5q0 -154 -39 -277.5t-106.5 -219t-157 -164.5t-190 -114t-206.5 -66t-206 -21q-104 0 -201 22t-182.5 66t-156.5 110t-122 154t-79 198t-28 241q0 160 40.5 286.5t109.5 223t160 164.5t191.5 111t204 62.5t197.5 19.5zM945 1894q-46 -40 -87.5 -74t-80.5 -59
t-76.5 -39t-74.5 -14q-20 0 -42 5.5t-41 20.5q103 54 197.5 135t178.5 195l102 18q34 -59 75.5 -104.5t87 -81.5t93 -64.5t94.5 -53.5l-124 -86q-53 23 -94.5 47.5t-76 50t-63.5 52t-56 52.5h-12z" />
    <glyph glyph-name="Otilde" unicode="&#xd5;" horiz-adv-x="1904" 
d="M399 882q0 -182 45 -326t127 -244t197.5 -153t255.5 -53q97 0 184.5 28.5t154 97.5t105.5 184.5t39 288.5q0 183 -45.5 328t-127.5 245.5t-196.5 154t-253.5 53.5q-97 0 -185 -29.5t-154.5 -99.5t-106 -186t-39.5 -289zM1018 1624q159 0 299 -52.5t245 -154t166 -250
t61 -339.5q0 -154 -39 -277.5t-106.5 -219t-157 -164.5t-190 -114t-206.5 -66t-206 -21q-104 0 -201 22t-182.5 66t-156.5 110t-122 154t-79 198t-28 241q0 160 40.5 286.5t109.5 223t160 164.5t191.5 111t204 62.5t197.5 19.5zM1355 1976q-69 -121 -140 -184.5t-128 -63.5
q-31 0 -72 16t-84 35q-42 19 -82.5 35t-70.5 16q-40 0 -88.5 -33.5t-90.5 -90.5q-20 11 -20 35q0 16 12 40.5t32.5 51t47 53.5t56.5 48t61.5 34.5t60.5 13.5q31 0 69 -14.5t76 -32.5q39 -18 76.5 -32.5t68.5 -14.5q16 0 33 5.5t35.5 19.5t40 38t47.5 61z" />
    <glyph glyph-name="Odieresis" unicode="&#xd6;" horiz-adv-x="1904" 
d="M399 882q0 -182 45 -326t127 -244t197.5 -153t255.5 -53q97 0 184.5 28.5t154 97.5t105.5 184.5t39 288.5q0 183 -45.5 328t-127.5 245.5t-196.5 154t-253.5 53.5q-97 0 -185 -29.5t-154.5 -99.5t-106 -186t-39.5 -289zM1018 1624q159 0 299 -52.5t245 -154t166 -250
t61 -339.5q0 -154 -39 -277.5t-106.5 -219t-157 -164.5t-190 -114t-206.5 -66t-206 -21q-104 0 -201 22t-182.5 66t-156.5 110t-122 154t-79 198t-28 241q0 160 40.5 286.5t109.5 223t160 164.5t191.5 111t204 62.5t197.5 19.5zM1279 1968v-24q0 -44 10.5 -77.5t43.5 -68.5
q-24 -38 -66 -59t-90 -21q-27 0 -51.5 7.5t-43.5 23.5t-30 40.5t-11 58.5q0 24 5.5 46t14.5 46l214 34zM633 1934l210 24q24 -54 24 -107q0 -36 -11.5 -62.5t-30.5 -43.5t-43.5 -25t-51.5 -8q-43 0 -84 19.5t-65 52.5q15 14 24.5 27t14.5 27t7 30.5t2 39.5v20z" />
    <glyph glyph-name="multiply" unicode="&#xd7;" horiz-adv-x="1336" 
d="M244 1052l424 -422l424 422l88 -90l-422 -422l422 -422l-90 -90l-422 422l-422 -422l-90 90l422 422l-422 422z" />
    <glyph glyph-name="Oslash" unicode="&#xd8;" horiz-adv-x="1941" 
d="M1038 1624q127 0 240.5 -31.5t212.5 -94.5l170 196l120 -46l-194 -224q111 -102 175.5 -251.5t64.5 -344.5q0 -154 -40 -277.5t-109 -219.5t-160.5 -165t-194.5 -113.5t-211.5 -65.5t-210.5 -21q-120 0 -228.5 27t-201.5 81l-174 -216l-110 62l182 226
q-117 99 -185.5 251.5t-68.5 358.5q0 160 41.5 287t112 223.5t163.5 164.5t195.5 111t208.5 62.5t202 19.5zM395 882q0 -165 36.5 -296.5t105.5 -231.5q199 244 396.5 482t401.5 480q-85 85 -191.5 129.5t-242.5 44.5q-102 0 -194 -29.5t-161.5 -99.5t-110 -187t-40.5 -292z
M1413 1220q-204 -240 -400 -478t-394 -482q82 -78 186.5 -118t235.5 -40q69 0 133.5 12.5t120.5 40.5t102.5 74t79.5 113t51.5 156.5t18.5 205.5q0 158 -34 287t-100 229z" />
    <glyph glyph-name="Ugrave" unicode="&#xd9;" horiz-adv-x="1883" 
d="M557 1482q-3 -14 -5.5 -55t-4 -97t-3 -120t-1.5 -123q-1 -59 -1 -108q-1 -49 -1 -74q0 -201 23.5 -350t79 -247.5t147.5 -147t229 -48.5q116 0 196 32.5t133 90.5t82.5 137t43.5 171.5t17 194.5t3 207q0 116 -1 193.5t-3 129t-4.5 84.5t-5.5 60q-3 28 -8 44t-27 25
t-67.5 14.5t-129.5 12.5l26 88q7 -2 37 -4t71 -4t88 -3t88 -1q65 0 123 3t101.5 6t69.5 6t28 3q0 -12 -4 -29.5t-25.5 -35.5t-67.5 -33t-129 -22q-8 -73 -11.5 -148t-5 -145.5t-1.5 -132.5q-1 -63 -2 -110q-2 -137 -12 -263t-36 -235.5t-73.5 -198.5t-125 -152.5t-188.5 -98
t-266 -34.5q-166 0 -290 43.5t-207 138t-124.5 244t-41.5 361.5q0 19 1 66v106q0 58 1 121v116q0 64 -0.5 108t-1.5 72.5t-2 45t-2 26.5q-2 28 -6.5 44t-26 25t-66 14.5t-125.5 12.5l34 88q9 -2 45 -4t85.5 -4t106 -3t105.5 -1q79 0 143.5 3t110 6t71.5 6t29 3
q0 -12 -5 -29.5t-26 -35.5t-64.5 -33t-120.5 -22zM739 2068q118 -99 243 -175.5t245 -130.5q-14 -24 -45.5 -40t-83.5 -16q-36 0 -83 10t-106 34.5t-130.5 66.5t-155.5 105z" />
    <glyph glyph-name="Uacute" unicode="&#xda;" horiz-adv-x="1883" 
d="M557 1482q-3 -14 -5.5 -55t-4 -97t-3 -120t-1.5 -123q-1 -59 -1 -108q-1 -49 -1 -74q0 -201 23.5 -350t79 -247.5t147.5 -147t229 -48.5q116 0 196 32.5t133 90.5t82.5 137t43.5 171.5t17 194.5t3 207q0 116 -1 193.5t-3 129t-4.5 84.5t-5.5 60q-3 28 -8 44t-27 25
t-67.5 14.5t-129.5 12.5l26 88q7 -2 37 -4t71 -4t88 -3t88 -1q65 0 123 3t101.5 6t69.5 6t28 3q0 -12 -4 -29.5t-25.5 -35.5t-67.5 -33t-129 -22q-8 -73 -11.5 -148t-5 -145.5t-1.5 -132.5q-1 -63 -2 -110q-2 -137 -12 -263t-36 -235.5t-73.5 -198.5t-125 -152.5t-188.5 -98
t-266 -34.5q-166 0 -290 43.5t-207 138t-124.5 244t-41.5 361.5q0 19 1 66v106q0 58 1 121v116q0 64 -0.5 108t-1.5 72.5t-2 45t-2 26.5q-2 28 -6.5 44t-26 25t-66 14.5t-125.5 12.5l34 88q9 -2 45 -4t85.5 -4t106 -3t105.5 -1q79 0 143.5 3t110 6t71.5 6t29 3
q0 -12 -5 -29.5t-26 -35.5t-64.5 -33t-120.5 -22zM1383 1922q-84 -63 -155 -104.5t-130.5 -66.5t-107 -35t-83.5 -10q-51 0 -82.5 16t-45.5 40q120 54 245 130.5t243 175.5z" />
    <glyph glyph-name="Ucircumflex" unicode="&#xdb;" horiz-adv-x="1883" 
d="M557 1482q-3 -14 -5.5 -55t-4 -97t-3 -120t-1.5 -123q-1 -59 -1 -108q-1 -49 -1 -74q0 -201 23.5 -350t79 -247.5t147.5 -147t229 -48.5q116 0 196 32.5t133 90.5t82.5 137t43.5 171.5t17 194.5t3 207q0 116 -1 193.5t-3 129t-4.5 84.5t-5.5 60q-3 28 -8 44t-27 25
t-67.5 14.5t-129.5 12.5l26 88q7 -2 37 -4t71 -4t88 -3t88 -1q65 0 123 3t101.5 6t69.5 6t28 3q0 -12 -4 -29.5t-25.5 -35.5t-67.5 -33t-129 -22q-8 -73 -11.5 -148t-5 -145.5t-1.5 -132.5q-1 -63 -2 -110q-2 -137 -12 -263t-36 -235.5t-73.5 -198.5t-125 -152.5t-188.5 -98
t-266 -34.5q-166 0 -290 43.5t-207 138t-124.5 244t-41.5 361.5q0 19 1 66v106q0 58 1 121v116q0 64 -0.5 108t-1.5 72.5t-2 45t-2 26.5q-2 28 -6.5 44t-26 25t-66 14.5t-125.5 12.5l34 88q9 -2 45 -4t85.5 -4t106 -3t105.5 -1q79 0 143.5 3t110 6t71.5 6t29 3
q0 -12 -5 -29.5t-26 -35.5t-64.5 -33t-120.5 -22zM997 1894q-46 -40 -87.5 -74t-80.5 -59t-76.5 -39t-74.5 -14q-20 0 -42 5.5t-41 20.5q103 54 197.5 135t178.5 195l102 18q34 -59 75.5 -104.5t87 -81.5t93 -64.5t94.5 -53.5l-124 -86q-53 23 -94.5 47.5t-76 50t-63.5 52
t-56 52.5h-12z" />
    <glyph glyph-name="Udieresis" unicode="&#xdc;" horiz-adv-x="1883" 
d="M557 1482q-3 -14 -5.5 -55t-4 -97t-3 -120t-1.5 -123q-1 -59 -1 -108q-1 -49 -1 -74q0 -201 23.5 -350t79 -247.5t147.5 -147t229 -48.5q116 0 196 32.5t133 90.5t82.5 137t43.5 171.5t17 194.5t3 207q0 116 -1 193.5t-3 129t-4.5 84.5t-5.5 60q-3 28 -8 44t-27 25
t-67.5 14.5t-129.5 12.5l26 88q7 -2 37 -4t71 -4t88 -3t88 -1q65 0 123 3t101.5 6t69.5 6t28 3q0 -12 -4 -29.5t-25.5 -35.5t-67.5 -33t-129 -22q-8 -73 -11.5 -148t-5 -145.5t-1.5 -132.5q-1 -63 -2 -110q-2 -137 -12 -263t-36 -235.5t-73.5 -198.5t-125 -152.5t-188.5 -98
t-266 -34.5q-166 0 -290 43.5t-207 138t-124.5 244t-41.5 361.5q0 19 1 66v106q0 58 1 121v116q0 64 -0.5 108t-1.5 72.5t-2 45t-2 26.5q-2 28 -6.5 44t-26 25t-66 14.5t-125.5 12.5l34 88q9 -2 45 -4t85.5 -4t106 -3t105.5 -1q79 0 143.5 3t110 6t71.5 6t29 3
q0 -12 -5 -29.5t-26 -35.5t-64.5 -33t-120.5 -22zM1331 1968v-24q0 -44 10.5 -77.5t43.5 -68.5q-24 -38 -66 -59t-90 -21q-27 0 -51.5 7.5t-43.5 23.5t-30 40.5t-11 58.5q0 24 5.5 46t14.5 46l214 34zM685 1934l210 24q24 -54 24 -107q0 -36 -11.5 -62.5t-30.5 -43.5
t-43.5 -25t-51.5 -8q-43 0 -84 19.5t-65 52.5q15 14 24.5 27t14.5 27t7 30.5t2 39.5v20z" />
    <glyph glyph-name="Yacute" unicode="&#xdd;" horiz-adv-x="1620" 
d="M680 480q0 44 -1 75t-6.5 57.5t-15.5 54t-28.5 64t-45.5 86.5q-28 50 -67 123q-22 41 -47.5 88t-56 102t-67 118.5t-81.5 137.5q-20 33 -36 54t-44 34t-76 20.5t-130 13.5l40 90q10 -2 42.5 -4.5t77.5 -4.5t99 -3.5t108 -1.5q69 0 133 2t115 5t84 5.5t39 3.5
q0 -10 -3.5 -26.5t-22 -33.5t-59 -32t-113.5 -22q22 -45 49 -98.5t56 -109t59 -110.5t58 -104q27 -49 48 -85q20 -37 36 -66t29 -53t25 -48h6q57 93 109.5 181.5t96.5 163.5t77 133t51 92q15 29 21.5 46t6.5 28q0 12 -9.5 20t-33 13t-63 8.5t-100.5 8.5l40 90q8 -2 39.5 -4
t73.5 -4t87.5 -3t80.5 -1q43 0 93 2t93 4t73.5 4.5t35.5 3.5q0 -10 -3.5 -26.5t-24 -34t-64.5 -32.5t-124 -21q-81 -114 -189.5 -277.5t-236.5 -386.5q-18 -30 -30 -52.5t-20.5 -43t-13 -41t-7 -47t-3 -61.5t-0.5 -84q0 -54 0.5 -103t1 -89.5t1.5 -71.5t3 -49q3 -27 9 -44
t33 -27.5t83.5 -16.5t160.5 -12l-40 -94q-11 1 -45.5 3.5t-86.5 5.5t-118 5t-139 2q-79 0 -148.5 -2.5t-122 -5.5t-84.5 -6t-36 -4q0 9 4 26.5t28 35.5t76.5 34t149.5 22q3 37 5 86.5t3 101.5t1.5 102t0.5 90zM1437 1490zM1291 1506zM510 1493zM199 1508zM1230 1922
q-84 -63 -155 -104.5t-130.5 -66.5t-107 -35t-83.5 -10q-51 0 -82.5 16t-45.5 40q120 54 245 130.5t243 175.5z" />
    <glyph glyph-name="Thorn" unicode="&#xde;" horiz-adv-x="1446" 
d="M558 1274q32 2 85.5 5t117.5 3q69 0 141 -5.5t140 -21t128 -43.5t105 -72t71 -106.5t26 -148.5q0 -94 -32 -169t-88 -133t-133 -99.5t-167.5 -68t-191 -39t-202.5 -12.5q2 -72 2 -118t2 -72q1 -28 7 -44.5t31 -26.5t76.5 -15.5t143.5 -11.5l-40 -90q-11 1 -46.5 3.5
t-85 4.5t-107.5 4t-114 2q-68 0 -129.5 -2.5t-110 -5.5t-78.5 -6q-31 -2 -37 -2q0 9 3.5 25.5t23.5 34.5t64 33t125 21q4 42 6.5 106t4 137t1.5 149v415q0 114 -0.5 194.5t-1.5 132t-2 85.5t-2 55t-2 40q-2 28 -6.5 44t-25.5 25t-65.5 14.5t-126.5 12.5l34 88q8 -2 42.5 -4
t82.5 -4t103 -3t105 -1q79 0 146 3t116.5 6t78.5 6t32 3q0 -12 -4.5 -29.5t-27.5 -35.5t-72.5 -32.5t-139.5 -20.5q-3 -48 -3.5 -99t-2.5 -111zM558 464q68 2 133.5 8.5t124 21.5t108 41t85.5 67t56.5 100t20.5 139q0 95 -29 159.5t-82.5 104t-129.5 56.5t-169 17
q-42 0 -73 -2q-32 -2 -45 -2v-710z" />
    <glyph glyph-name="germandbls" unicode="&#xdf;" horiz-adv-x="1441" 
d="M247 1082q0 146 29.5 260.5t79.5 200.5t116 146t139.5 97.5t150 54.5t146.5 17q95 0 160.5 -27t105.5 -70.5t57.5 -99t17.5 -112.5q0 -71 -21.5 -127t-50 -97t-58 -68.5t-44.5 -40.5q-23 -21 -51 -45t-52 -51.5t-40.5 -58.5t-16.5 -66q0 -53 34.5 -97.5t86.5 -88
t112 -88.5q60 -46 112 -100t86.5 -121t34.5 -152q0 -87 -37.5 -157.5t-99 -120.5t-141 -77t-164.5 -27q-61 0 -123.5 14t-112.5 40.5t-82 65t-32 87.5q0 31 12.5 51t32 32t43 17t46.5 5q10 0 21.5 -1t22.5 -3q13 -49 36 -86t53.5 -62t67 -37.5t77.5 -12.5q75 0 123.5 41.5
t48.5 122.5q0 67 -33 119t-83 97t-108 87t-108 89t-83 103.5t-33 129.5q0 51 16 93.5t39 77t50 62t49 48.5q24 23 49.5 49.5t46.5 60t34.5 75t13.5 94.5q0 56 -16.5 107.5t-50 91t-84.5 63t-120 23.5q-62 0 -105.5 -19.5t-72.5 -54t-45.5 -82.5t-25 -105t-10.5 -121.5
t-2 -131.5v-710q0 -125 1 -219.5t2.5 -160t4.5 -108.5q-30 2 -64 2h-66q-53 0 -104.5 -2t-92.5 -4t-68 -4.5t-31 -3.5q0 6 3 21.5t18.5 33t48.5 33.5t94 24q2 41 3.5 102.5t2.5 135.5t2 156t1.5 164.5t0.5 160.5v143q-69 -2 -110 -6t-58 -6q0 10 5.5 28.5t23 37t50.5 34.5
t89 22v12z" />
    <glyph glyph-name="agrave" unicode="&#xe0;" horiz-adv-x="1216" 
d="M1216 68q-36 -22 -82 -40.5t-93 -32t-90 -21.5t-73 -8q-38 0 -64 12t-42.5 31.5t-24 44t-7.5 50.5v60h-6q-104 -94 -199.5 -146t-190.5 -52q-56 0 -102.5 18.5t-79.5 50.5t-51.5 76t-18.5 95q0 65 28.5 118t78 96t115 77t139.5 61t152.5 48t152.5 38v30q0 84 -18.5 140.5
t-51 91t-76.5 49.5t-96 15q-77 0 -117.5 -28t-40.5 -79q0 -28 13.5 -53.5t44.5 -53.5q-11 -17 -28.5 -32t-39 -26t-45 -17.5t-46.5 -6.5q-24 0 -45 7t-37 20.5t-25.5 32.5t-9.5 43q0 37 23.5 77t63.5 79t93.5 74t113 61.5t122.5 42t123 15.5q94 0 156.5 -38t99.5 -97.5
t52 -132.5t15 -143q0 -25 -1.5 -66.5t-3.5 -91.5t-5 -103t-5 -101t-3.5 -85.5t-1.5 -56.5q0 -33 5 -54t15 -33t25 -17t35 -5q53 0 130 30zM742 258q3 59 6.5 131t5.5 173q-122 -26 -200.5 -56t-125 -64.5t-64.5 -73.5t-18 -82q0 -41 12.5 -69.5t32.5 -46.5t46 -26t52 -8
q40 0 83 15.5t79 36.5t61 41t30 29zM478 1740q27 -65 60.5 -131.5t70.5 -130.5t76 -122.5t77 -107.5q-20 -14 -52 -14t-74.5 16.5t-94 63.5t-110.5 130.5t-123 217.5z" />
    <glyph glyph-name="aacute" unicode="&#xe1;" horiz-adv-x="1216" 
d="M1216 68q-36 -22 -82 -40.5t-93 -32t-90 -21.5t-73 -8q-38 0 -64 12t-42.5 31.5t-24 44t-7.5 50.5v60h-6q-104 -94 -199.5 -146t-190.5 -52q-56 0 -102.5 18.5t-79.5 50.5t-51.5 76t-18.5 95q0 65 28.5 118t78 96t115 77t139.5 61t152.5 48t152.5 38v30q0 84 -18.5 140.5
t-51 91t-76.5 49.5t-96 15q-77 0 -117.5 -28t-40.5 -79q0 -28 13.5 -53.5t44.5 -53.5q-11 -17 -28.5 -32t-39 -26t-45 -17.5t-46.5 -6.5q-24 0 -45 7t-37 20.5t-25.5 32.5t-9.5 43q0 37 23.5 77t63.5 79t93.5 74t113 61.5t122.5 42t123 15.5q94 0 156.5 -38t99.5 -97.5
t52 -132.5t15 -143q0 -25 -1.5 -66.5t-3.5 -91.5t-5 -103t-5 -101t-3.5 -85.5t-1.5 -56.5q0 -33 5 -54t15 -33t25 -17t35 -5q53 0 130 30zM742 258q3 59 6.5 131t5.5 173q-122 -26 -200.5 -56t-125 -64.5t-64.5 -73.5t-18 -82q0 -41 12.5 -69.5t32.5 -46.5t46 -26t52 -8
q40 0 83 15.5t79 36.5t61 41t30 29zM900 1670q-63 -133 -121 -218t-108 -133.5t-91.5 -66.5t-72.5 -18q-15 0 -26.5 3.5t-22.5 10.5q38 49 77 106.5t75.5 120.5t70.5 129t61 132z" />
    <glyph glyph-name="acircumflex" unicode="&#xe2;" horiz-adv-x="1216" 
d="M1216 68q-36 -22 -82 -40.5t-93 -32t-90 -21.5t-73 -8q-38 0 -64 12t-42.5 31.5t-24 44t-7.5 50.5v60h-6q-104 -94 -199.5 -146t-190.5 -52q-56 0 -102.5 18.5t-79.5 50.5t-51.5 76t-18.5 95q0 65 28.5 118t78 96t115 77t139.5 61t152.5 48t152.5 38v30q0 84 -18.5 140.5
t-51 91t-76.5 49.5t-96 15q-77 0 -117.5 -28t-40.5 -79q0 -28 13.5 -53.5t44.5 -53.5q-11 -17 -28.5 -32t-39 -26t-45 -17.5t-46.5 -6.5q-24 0 -45 7t-37 20.5t-25.5 32.5t-9.5 43q0 37 23.5 77t63.5 79t93.5 74t113 61.5t122.5 42t123 15.5q94 0 156.5 -38t99.5 -97.5
t52 -132.5t15 -143q0 -25 -1.5 -66.5t-3.5 -91.5t-5 -103t-5 -101t-3.5 -85.5t-1.5 -56.5q0 -33 5 -54t15 -33t25 -17t35 -5q53 0 130 30zM742 258q3 59 6.5 131t5.5 173q-122 -26 -200.5 -56t-125 -64.5t-64.5 -73.5t-18 -82q0 -41 12.5 -69.5t32.5 -46.5t46 -26t52 -8
q40 0 83 15.5t79 36.5t61 41t30 29zM606 1502q-40 -62 -73.5 -109.5t-63.5 -79.5t-58 -48.5t-58 -16.5q-14 0 -29.5 4t-35.5 14q75 75 153.5 184t144.5 258l102 18q26 -79 57 -140t65.5 -109.5t70.5 -87t71 -71.5l-124 -86q-38 34 -68 66.5t-55 65.5t-46.5 67t-42.5 71h-10z
" />
    <glyph glyph-name="atilde" unicode="&#xe3;" horiz-adv-x="1216" 
d="M1216 68q-36 -22 -82 -40.5t-93 -32t-90 -21.5t-73 -8q-38 0 -64 12t-42.5 31.5t-24 44t-7.5 50.5v60h-6q-104 -94 -199.5 -146t-190.5 -52q-56 0 -102.5 18.5t-79.5 50.5t-51.5 76t-18.5 95q0 65 28.5 118t78 96t115 77t139.5 61t152.5 48t152.5 38v30q0 84 -18.5 140.5
t-51 91t-76.5 49.5t-96 15q-77 0 -117.5 -28t-40.5 -79q0 -28 13.5 -53.5t44.5 -53.5q-11 -17 -28.5 -32t-39 -26t-45 -17.5t-46.5 -6.5q-24 0 -45 7t-37 20.5t-25.5 32.5t-9.5 43q0 37 23.5 77t63.5 79t93.5 74t113 61.5t122.5 42t123 15.5q94 0 156.5 -38t99.5 -97.5
t52 -132.5t15 -143q0 -25 -1.5 -66.5t-3.5 -91.5t-5 -103t-5 -101t-3.5 -85.5t-1.5 -56.5q0 -33 5 -54t15 -33t25 -17t35 -5q53 0 130 30zM742 258q3 59 6.5 131t5.5 173q-122 -26 -200.5 -56t-125 -64.5t-64.5 -73.5t-18 -82q0 -41 12.5 -69.5t32.5 -46.5t46 -26t52 -8
q40 0 83 15.5t79 36.5t61 41t30 29zM1016 1566q-69 -125 -137 -190.5t-124 -65.5q-32 0 -75.5 18t-89.5 39t-88.5 39t-72.5 18q-40 0 -84.5 -36.5t-86.5 -99.5q-11 6 -15.5 16t-4.5 20q0 18 11.5 44.5t31 55t45 57.5t54.5 51.5t59.5 37t59.5 14.5q33 0 72.5 -16.5
t80.5 -36.5q42 -20 82 -36.5t73 -16.5q16 0 31.5 6t33 20t37 38t45.5 60z" />
    <glyph glyph-name="adieresis" unicode="&#xe4;" horiz-adv-x="1216" 
d="M1216 68q-36 -22 -82 -40.5t-93 -32t-90 -21.5t-73 -8q-38 0 -64 12t-42.5 31.5t-24 44t-7.5 50.5v60h-6q-104 -94 -199.5 -146t-190.5 -52q-56 0 -102.5 18.5t-79.5 50.5t-51.5 76t-18.5 95q0 65 28.5 118t78 96t115 77t139.5 61t152.5 48t152.5 38v30q0 84 -18.5 140.5
t-51 91t-76.5 49.5t-96 15q-77 0 -117.5 -28t-40.5 -79q0 -28 13.5 -53.5t44.5 -53.5q-11 -17 -28.5 -32t-39 -26t-45 -17.5t-46.5 -6.5q-24 0 -45 7t-37 20.5t-25.5 32.5t-9.5 43q0 37 23.5 77t63.5 79t93.5 74t113 61.5t122.5 42t123 15.5q94 0 156.5 -38t99.5 -97.5
t52 -132.5t15 -143q0 -25 -1.5 -66.5t-3.5 -91.5t-5 -103t-5 -101t-3.5 -85.5t-1.5 -56.5q0 -33 5 -54t15 -33t25 -17t35 -5q53 0 130 30zM742 258q3 59 6.5 131t5.5 173q-122 -26 -200.5 -56t-125 -64.5t-64.5 -73.5t-18 -82q0 -41 12.5 -69.5t32.5 -46.5t46 -26t52 -8
q40 0 83 15.5t79 36.5t61 41t30 29zM920 1596v-24q0 -45 11.5 -80.5t44.5 -71.5q-24 -39 -67 -60.5t-90 -21.5q-27 0 -51.5 7.5t-43.5 24t-30.5 42t-11.5 61.5q0 25 5.5 47.5t14.5 45.5l214 36zM312 1560l210 26q24 -57 24 -110q0 -38 -11.5 -65.5t-30.5 -45t-44 -25.5
t-52 -8q-45 0 -85.5 19.5t-64.5 54.5q15 14 24.5 27t15.5 28t8 32.5t2 40.5v20z" />
    <glyph glyph-name="aring" unicode="&#xe5;" horiz-adv-x="1216" 
d="M1216 68q-36 -22 -82 -40.5t-93 -32t-90 -21.5t-73 -8q-38 0 -64 12t-42.5 31.5t-24 44t-7.5 50.5v60h-6q-104 -94 -199.5 -146t-190.5 -52q-56 0 -102.5 18.5t-79.5 50.5t-51.5 76t-18.5 95q0 65 28.5 118t78 96t115 77t139.5 61t152.5 48t152.5 38v30q0 84 -18.5 140.5
t-51 91t-76.5 49.5t-96 15q-77 0 -117.5 -28t-40.5 -79q0 -28 13.5 -53.5t44.5 -53.5q-11 -17 -28.5 -32t-39 -26t-45 -17.5t-46.5 -6.5q-24 0 -45 7t-37 20.5t-25.5 32.5t-9.5 43q0 37 23.5 77t63.5 79t93.5 74t113 61.5t122.5 42t123 15.5q94 0 156.5 -38t99.5 -97.5
t52 -132.5t15 -143q0 -25 -1.5 -66.5t-3.5 -91.5t-5 -103t-5 -101t-3.5 -85.5t-1.5 -56.5q0 -33 5 -54t15 -33t25 -17t35 -5q53 0 130 30zM742 258q3 59 6.5 131t5.5 173q-122 -26 -200.5 -56t-125 -64.5t-64.5 -73.5t-18 -82q0 -41 12.5 -69.5t32.5 -46.5t46 -26t52 -8
q40 0 83 15.5t79 36.5t61 41t30 29zM374 1456q0 51 20 93t54 72.5t80 47.5t97 17q50 0 90.5 -15.5t69 -43.5t44 -65.5t15.5 -82.5q0 -48 -18.5 -90t-51.5 -73t-78.5 -48.5t-100.5 -17.5q-52 0 -93 16t-69.5 44t-43.5 65.5t-15 80.5zM728 1460q0 29 -7 55t-22.5 45.5
t-39.5 30.5t-57 11q-54 0 -83 -30t-29 -93q0 -27 6.5 -53.5t21 -46.5t38.5 -32.5t59 -12.5q55 0 84 33t29 93z" />
    <glyph glyph-name="ae" unicode="&#xe6;" horiz-adv-x="1776" 
d="M1215 -34q-53 0 -112 11t-115.5 38t-105.5 74t-82 119h-8q-138 -125 -247 -183.5t-203 -58.5q-55 0 -101 18.5t-79 51t-51.5 76.5t-18.5 96q0 64 28.5 116.5t77.5 95t114 76.5t138.5 60.5t151.5 47.5t152 38v30q0 84 -18 140.5t-50 91t-76 49.5t-96 15q-76 0 -116 -27
t-40 -80q0 -28 13.5 -52.5t44.5 -52.5q-11 -17 -28.5 -32t-39 -26t-45.5 -17.5t-46 -6.5q-24 0 -45 7t-37 20.5t-25.5 32.5t-9.5 43q0 37 23.5 77.5t63.5 79t93 73.5t113 61.5t123.5 42t123.5 15.5q53 0 94.5 -12.5t72.5 -35t52.5 -52.5t34.5 -66h8q37 40 83.5 71t98 52
t107.5 32t113 11q95 0 159.5 -28t104.5 -76t57 -111t17 -132q0 -45 -6.5 -87.5t-17.5 -85.5l-670 -28q4 -116 33.5 -197.5t80 -133t120.5 -75.5t155 -24q34 0 66.5 4t67 14t73 26t84.5 40l40 -66q-245 -200 -493 -200zM772 282q-12 50 -17 102.5t-5 129.5v46
q-122 -26 -200 -56t-123.5 -64t-63 -72.5t-17.5 -81.5q0 -41 12.5 -69.5t32.5 -46.5t46 -26t53 -8q39 0 79 14t77.5 36t70 47.5t55.5 48.5zM1426 686q5 20 6.5 39t1.5 33q0 51 -11.5 95.5t-36.5 77.5t-63 52t-90 19q-45 0 -88 -16.5t-77.5 -55.5t-56.5 -103t-25 -159z" />
    <glyph glyph-name="ccedilla" unicode="&#xe7;" horiz-adv-x="1109" 
d="M1069 166q-41 -35 -94 -68t-111.5 -60t-119 -45t-115.5 -23q-27 -42 -34.5 -62t-7.5 -34q0 -15 5 -26.5t15.5 -23.5t26.5 -25t39 -31q21 -17 39.5 -32.5t32.5 -32t22 -34t8 -36.5q0 -32 -22.5 -73t-59.5 -84t-84 -86t-96 -80l-50 46q23 21 48 45t46 49t34.5 49t13.5 47
q0 25 -20.5 46.5t-65.5 57.5q-14 11 -30.5 24.5t-31 29t-24.5 32t-10 33.5q0 19 12 44t30 51.5t40 53t42 50.5q-95 7 -179.5 42.5t-147.5 101t-100 161.5t-37 225q0 113 28 203t76 159.5t111 119t132 81t141 46.5t137 15q81 0 143 -20t103.5 -52.5t63 -73.5t21.5 -82
q0 -34 -13.5 -58t-36.5 -39.5t-52.5 -23t-62.5 -7.5q-11 0 -22 1t-21 3q-14 50 -34.5 92t-50 72t-69.5 47t-91 17q-54 0 -101 -21t-81.5 -65.5t-54.5 -114.5t-20 -169q0 -118 29 -207.5t81.5 -149.5t126.5 -90.5t164 -30.5q69 0 145.5 19t153.5 63z" />
    <glyph glyph-name="egrave" unicode="&#xe8;" horiz-adv-x="1130" 
d="M332 578q4 -116 33.5 -197.5t81 -133t123 -75.5t158.5 -24q35 0 68 4t67.5 14t73 26t85.5 40l40 -66q-248 -200 -498 -200q-88 0 -174 27t-154 88.5t-110 161t-42 244.5q0 162 52.5 282t138 199.5t193.5 118.5t219 39q97 0 163.5 -28t106.5 -75.5t57.5 -110.5t17.5 -133
q0 -45 -6.5 -87.5t-17.5 -85.5zM776 686q5 20 6.5 38.5t1.5 32.5q0 51 -12 96t-37.5 78t-64 52t-92.5 19q-47 0 -90.5 -16.5t-77.5 -55.5t-55.5 -103t-24.5 -159zM464 1740q27 -65 60.5 -131.5t70.5 -130.5t76 -122.5t77 -107.5q-20 -14 -52 -14t-74.5 16.5t-94 63.5
t-110.5 130.5t-123 217.5z" />
    <glyph glyph-name="eacute" unicode="&#xe9;" horiz-adv-x="1130" 
d="M332 578q4 -116 33.5 -197.5t81 -133t123 -75.5t158.5 -24q35 0 68 4t67.5 14t73 26t85.5 40l40 -66q-248 -200 -498 -200q-88 0 -174 27t-154 88.5t-110 161t-42 244.5q0 162 52.5 282t138 199.5t193.5 118.5t219 39q97 0 163.5 -28t106.5 -75.5t57.5 -110.5t17.5 -133
q0 -45 -6.5 -87.5t-17.5 -85.5zM776 686q5 20 6.5 38.5t1.5 32.5q0 51 -12 96t-37.5 78t-64 52t-92.5 19q-47 0 -90.5 -16.5t-77.5 -55.5t-55.5 -103t-24.5 -159zM886 1670q-63 -133 -121 -218t-108 -133.5t-91.5 -66.5t-72.5 -18q-15 0 -26.5 3.5t-22.5 10.5
q38 49 77 106.5t75.5 120.5t70.5 129t61 132z" />
    <glyph glyph-name="ecircumflex" unicode="&#xea;" horiz-adv-x="1130" 
d="M332 578q4 -116 33.5 -197.5t81 -133t123 -75.5t158.5 -24q35 0 68 4t67.5 14t73 26t85.5 40l40 -66q-248 -200 -498 -200q-88 0 -174 27t-154 88.5t-110 161t-42 244.5q0 162 52.5 282t138 199.5t193.5 118.5t219 39q97 0 163.5 -28t106.5 -75.5t57.5 -110.5t17.5 -133
q0 -45 -6.5 -87.5t-17.5 -85.5zM776 686q5 20 6.5 38.5t1.5 32.5q0 51 -12 96t-37.5 78t-64 52t-92.5 19q-47 0 -90.5 -16.5t-77.5 -55.5t-55.5 -103t-24.5 -159zM592 1502q-40 -62 -73.5 -109.5t-63.5 -79.5t-58 -48.5t-58 -16.5q-14 0 -29.5 4t-35.5 14q75 75 153.5 184
t144.5 258l102 18q26 -79 57 -140t65.5 -109.5t70.5 -87t71 -71.5l-124 -86q-38 34 -68 66.5t-55 65.5t-46.5 67t-42.5 71h-10z" />
    <glyph glyph-name="edieresis" unicode="&#xeb;" horiz-adv-x="1130" 
d="M332 578q4 -116 33.5 -197.5t81 -133t123 -75.5t158.5 -24q35 0 68 4t67.5 14t73 26t85.5 40l40 -66q-248 -200 -498 -200q-88 0 -174 27t-154 88.5t-110 161t-42 244.5q0 162 52.5 282t138 199.5t193.5 118.5t219 39q97 0 163.5 -28t106.5 -75.5t57.5 -110.5t17.5 -133
q0 -45 -6.5 -87.5t-17.5 -85.5zM776 686q5 20 6.5 38.5t1.5 32.5q0 51 -12 96t-37.5 78t-64 52t-92.5 19q-47 0 -90.5 -16.5t-77.5 -55.5t-55.5 -103t-24.5 -159zM906 1596v-24q0 -45 11.5 -80.5t44.5 -71.5q-24 -39 -67 -60.5t-90 -21.5q-27 0 -51.5 7.5t-43.5 24t-30.5 42
t-11.5 61.5q0 25 5.5 47.5t14.5 45.5l214 36zM298 1560l210 26q24 -57 24 -110q0 -38 -11.5 -65.5t-30.5 -45t-44 -25.5t-52 -8q-45 0 -85.5 19.5t-64.5 54.5q15 14 24.5 27t15.5 28t8 32.5t2 40.5v20z" />
    <glyph glyph-name="igrave" unicode="&#xec;" horiz-adv-x="719" 
d="M507 1114q-6 -68 -9.5 -143t-5.5 -155t-2.5 -163t-0.5 -165v-112q0 -49 1 -88t2 -68.5t3 -51.5q1 -25 5.5 -40.5t22.5 -25t55.5 -15.5t104.5 -13l-36 -84q-8 1 -34 3t-63.5 3.5t-83 2.5t-93.5 1q-59 0 -111 -2t-91 -4t-64 -4.5t-30 -3.5q0 7 2.5 22.5t17.5 32.5t47.5 33
t92.5 24q4 39 6 86.5t3 93t1 82.5v54q0 109 -1 186t-2 130t-2.5 86t-2.5 54q-2 33 -7.5 51t-23.5 27t-53 10.5t-96 1.5l20 82q69 7 133.5 18t118.5 23t95.5 23.5t64.5 19.5zM221 1740q27 -65 60.5 -131.5t70.5 -130.5t76 -122.5t77 -107.5q-20 -14 -52 -14t-74.5 16.5
t-94 63.5t-110.5 130.5t-123 217.5z" />
    <glyph glyph-name="iacute" unicode="&#xed;" horiz-adv-x="719" 
d="M507 1114q-6 -68 -9.5 -143t-5.5 -155t-2.5 -163t-0.5 -165v-112q0 -49 1 -88t2 -68.5t3 -51.5q1 -25 5.5 -40.5t22.5 -25t55.5 -15.5t104.5 -13l-36 -84q-8 1 -34 3t-63.5 3.5t-83 2.5t-93.5 1q-59 0 -111 -2t-91 -4t-64 -4.5t-30 -3.5q0 7 2.5 22.5t17.5 32.5t47.5 33
t92.5 24q4 39 6 86.5t3 93t1 82.5v54q0 109 -1 186t-2 130t-2.5 86t-2.5 54q-2 33 -7.5 51t-23.5 27t-53 10.5t-96 1.5l20 82q69 7 133.5 18t118.5 23t95.5 23.5t64.5 19.5zM643 1670q-63 -133 -121 -218t-108 -133.5t-91.5 -66.5t-72.5 -18q-15 0 -26.5 3.5t-22.5 10.5
q38 49 77 106.5t75.5 120.5t70.5 129t61 132z" />
    <glyph glyph-name="icircumflex" unicode="&#xee;" horiz-adv-x="719" 
d="M507 1114q-6 -68 -9.5 -143t-5.5 -155t-2.5 -163t-0.5 -165v-112q0 -49 1 -88t2 -68.5t3 -51.5q1 -25 5.5 -40.5t22.5 -25t55.5 -15.5t104.5 -13l-36 -84q-8 1 -34 3t-63.5 3.5t-83 2.5t-93.5 1q-59 0 -111 -2t-91 -4t-64 -4.5t-30 -3.5q0 7 2.5 22.5t17.5 32.5t47.5 33
t92.5 24q4 39 6 86.5t3 93t1 82.5v54q0 109 -1 186t-2 130t-2.5 86t-2.5 54q-2 33 -7.5 51t-23.5 27t-53 10.5t-96 1.5l20 82q69 7 133.5 18t118.5 23t95.5 23.5t64.5 19.5zM349 1502q-40 -62 -73.5 -109.5t-63.5 -79.5t-58 -48.5t-58 -16.5q-14 0 -29.5 4t-35.5 14
q75 75 153.5 184t144.5 258l102 18q26 -79 57 -140t65.5 -109.5t70.5 -87t71 -71.5l-124 -86q-38 34 -68 66.5t-55 65.5t-46.5 67t-42.5 71h-10z" />
    <glyph glyph-name="idieresis" unicode="&#xef;" horiz-adv-x="719" 
d="M507 1114q-6 -68 -9.5 -143t-5.5 -155t-2.5 -163t-0.5 -165v-112q0 -49 1 -88t2 -68.5t3 -51.5q1 -25 5.5 -40.5t22.5 -25t55.5 -15.5t104.5 -13l-36 -84q-8 1 -34 3t-63.5 3.5t-83 2.5t-93.5 1q-59 0 -111 -2t-91 -4t-64 -4.5t-30 -3.5q0 7 2.5 22.5t17.5 32.5t47.5 33
t92.5 24q4 39 6 86.5t3 93t1 82.5v54q0 109 -1 186t-2 130t-2.5 86t-2.5 54q-2 33 -7.5 51t-23.5 27t-53 10.5t-96 1.5l20 82q69 7 133.5 18t118.5 23t95.5 23.5t64.5 19.5zM663 1596v-24q0 -45 11.5 -80.5t44.5 -71.5q-24 -39 -67 -60.5t-90 -21.5q-27 0 -51.5 7.5
t-43.5 24t-30.5 42t-11.5 61.5q0 25 5.5 47.5t14.5 45.5l214 36zM55 1560l210 26q24 -57 24 -110q0 -38 -11.5 -65.5t-30.5 -45t-44 -25.5t-52 -8q-45 0 -85.5 19.5t-64.5 54.5q15 14 24.5 27t15.5 28t8 32.5t2 40.5v20z" />
    <glyph glyph-name="eth" unicode="&#xf0;" horiz-adv-x="1333" 
d="M1249 1752l-256 -158q96 -134 148 -323t52 -429q0 -190 -35 -350.5t-107 -277.5t-182 -182.5t-259 -65.5q-104 0 -198 34t-165 102t-112.5 170t-41.5 239q0 142 45.5 255.5t122.5 192.5t179.5 121t216.5 42q67 0 137.5 -15t138.5 -45l4 2q-18 118 -52 222.5t-82 189.5
l-328 -202l-64 84l334 206q-66 81 -150 124.5t-196 43.5q-55 0 -111.5 -12t-124.5 -38q-5 33 18.5 64.5t68.5 56.5t109 40t140 15q128 0 233 -45.5t193 -136.5l276 170zM961 680q0 46 -1.5 82.5t-4.5 83.5q-41 31 -86.5 58t-92.5 47t-94 31.5t-91 11.5q-53 0 -99.5 -18.5
t-81 -61t-54 -111.5t-19.5 -170q0 -121 28.5 -220t77 -169.5t113.5 -109t137 -38.5q58 0 100.5 24.5t72 66.5t48.5 99t29.5 122t14 134.5t3.5 137.5z" />
    <glyph glyph-name="ntilde" unicode="&#xf1;" horiz-adv-x="1462" 
d="M495 1116q-3 -38 -5.5 -89.5t-2.5 -120.5l6 -2q47 44 96 84t102.5 71t112 49t124.5 18q90 0 151 -35t98 -96.5t52.5 -145t15.5 -181.5q0 -36 -2 -80t-4.5 -90.5t-5.5 -93.5t-5.5 -88t-4.5 -74.5t-2 -53.5q0 -30 6.5 -49t27.5 -31t61.5 -19.5t108.5 -14.5l-36 -84
q-8 1 -34.5 3t-65.5 3.5t-87.5 2.5t-101.5 1q-42 0 -78 -1t-65 -3q10 88 17 162.5t11 142.5t6 134t2 137q0 66 -4.5 131t-25 116t-62.5 83t-118 32q-42 0 -82 -10t-76.5 -28t-69 -41.5t-60.5 -50.5q-2 -36 -2 -74q-1 -39 -1 -75q-1 -36 -1 -67v-189q0 -58 1 -100t2 -73
t3 -58q1 -25 5.5 -40.5t22.5 -25t55.5 -15.5t104.5 -13l-36 -84q-8 1 -34.5 3t-64.5 3.5t-85 2.5t-95 1q-60 0 -111.5 -2t-90.5 -4t-62.5 -4.5t-28.5 -3.5q0 7 2.5 22.5t17.5 32.5t47.5 33t92.5 24q4 39 6 86.5t3 93t1 82.5v54q0 108 -1 186.5t-2 133t-2.5 87.5t-2.5 51
q-2 33 -7 50.5t-23 26t-53.5 10t-98.5 1.5l20 82q68 7 130.5 18t114.5 23t92 23.5t63 19.5zM1135 1566q-69 -125 -137 -190.5t-124 -65.5q-32 0 -75.5 18t-89.5 39t-88.5 39t-72.5 18q-40 0 -84.5 -36.5t-86.5 -99.5q-11 6 -15.5 16t-4.5 20q0 18 11.5 44.5t31 55t45 57.5
t54.5 51.5t59.5 37t59.5 14.5q33 0 72.5 -16.5t80.5 -36.5q42 -20 82 -36.5t73 -16.5q16 0 31.5 6t33 20t37 38t45.5 60z" />
    <glyph glyph-name="ograve" unicode="&#xf2;" horiz-adv-x="1288" 
d="M954 449q0 96 -21 193t-65 176t-113.5 128.5t-166.5 49.5q-76 0 -125.5 -30.5t-78.5 -80t-40.5 -112t-11.5 -126.5q0 -96 22.5 -193t69 -176t117 -128.5t165.5 -49.5q75 0 123 30t75.5 79t38.5 112t11 128zM690 1126q106 0 198.5 -36.5t161.5 -106.5t108.5 -173.5
t39.5 -236.5q0 -108 -26.5 -195t-71 -154.5t-104.5 -116t-127 -80t-137.5 -46.5t-136.5 -15q-105 0 -197 35.5t-161 105.5t-109 173.5t-40 239.5q0 112 27 200.5t73.5 156t107 115t127.5 77.5t136 43.5t131 13.5zM512 1740q27 -65 60.5 -131.5t70.5 -130.5t76 -122.5
t77 -107.5q-20 -14 -52 -14t-74.5 16.5t-94 63.5t-110.5 130.5t-123 217.5z" />
    <glyph glyph-name="oacute" unicode="&#xf3;" horiz-adv-x="1288" 
d="M954 449q0 96 -21 193t-65 176t-113.5 128.5t-166.5 49.5q-76 0 -125.5 -30.5t-78.5 -80t-40.5 -112t-11.5 -126.5q0 -96 22.5 -193t69 -176t117 -128.5t165.5 -49.5q75 0 123 30t75.5 79t38.5 112t11 128zM690 1126q106 0 198.5 -36.5t161.5 -106.5t108.5 -173.5
t39.5 -236.5q0 -108 -26.5 -195t-71 -154.5t-104.5 -116t-127 -80t-137.5 -46.5t-136.5 -15q-105 0 -197 35.5t-161 105.5t-109 173.5t-40 239.5q0 112 27 200.5t73.5 156t107 115t127.5 77.5t136 43.5t131 13.5zM934 1670q-63 -133 -121 -218t-108 -133.5t-91.5 -66.5
t-72.5 -18q-15 0 -26.5 3.5t-22.5 10.5q38 49 77 106.5t75.5 120.5t70.5 129t61 132z" />
    <glyph glyph-name="ocircumflex" unicode="&#xf4;" horiz-adv-x="1288" 
d="M954 449q0 96 -21 193t-65 176t-113.5 128.5t-166.5 49.5q-76 0 -125.5 -30.5t-78.5 -80t-40.5 -112t-11.5 -126.5q0 -96 22.5 -193t69 -176t117 -128.5t165.5 -49.5q75 0 123 30t75.5 79t38.5 112t11 128zM690 1126q106 0 198.5 -36.5t161.5 -106.5t108.5 -173.5
t39.5 -236.5q0 -108 -26.5 -195t-71 -154.5t-104.5 -116t-127 -80t-137.5 -46.5t-136.5 -15q-105 0 -197 35.5t-161 105.5t-109 173.5t-40 239.5q0 112 27 200.5t73.5 156t107 115t127.5 77.5t136 43.5t131 13.5zM640 1502q-40 -62 -73.5 -109.5t-63.5 -79.5t-58 -48.5
t-58 -16.5q-14 0 -29.5 4t-35.5 14q75 75 153.5 184t144.5 258l102 18q26 -79 57 -140t65.5 -109.5t70.5 -87t71 -71.5l-124 -86q-38 34 -68 66.5t-55 65.5t-46.5 67t-42.5 71h-10z" />
    <glyph glyph-name="otilde" unicode="&#xf5;" horiz-adv-x="1288" 
d="M954 449q0 96 -21 193t-65 176t-113.5 128.5t-166.5 49.5q-76 0 -125.5 -30.5t-78.5 -80t-40.5 -112t-11.5 -126.5q0 -96 22.5 -193t69 -176t117 -128.5t165.5 -49.5q75 0 123 30t75.5 79t38.5 112t11 128zM690 1126q106 0 198.5 -36.5t161.5 -106.5t108.5 -173.5
t39.5 -236.5q0 -108 -26.5 -195t-71 -154.5t-104.5 -116t-127 -80t-137.5 -46.5t-136.5 -15q-105 0 -197 35.5t-161 105.5t-109 173.5t-40 239.5q0 112 27 200.5t73.5 156t107 115t127.5 77.5t136 43.5t131 13.5zM1050 1566q-69 -125 -137 -190.5t-124 -65.5q-32 0 -75.5 18
t-89.5 39t-88.5 39t-72.5 18q-40 0 -84.5 -36.5t-86.5 -99.5q-11 6 -15.5 16t-4.5 20q0 18 11.5 44.5t31 55t45 57.5t54.5 51.5t59.5 37t59.5 14.5q33 0 72.5 -16.5t80.5 -36.5q42 -20 82 -36.5t73 -16.5q16 0 31.5 6t33 20t37 38t45.5 60z" />
    <glyph glyph-name="odieresis" unicode="&#xf6;" horiz-adv-x="1288" 
d="M954 449q0 96 -21 193t-65 176t-113.5 128.5t-166.5 49.5q-76 0 -125.5 -30.5t-78.5 -80t-40.5 -112t-11.5 -126.5q0 -96 22.5 -193t69 -176t117 -128.5t165.5 -49.5q75 0 123 30t75.5 79t38.5 112t11 128zM690 1126q106 0 198.5 -36.5t161.5 -106.5t108.5 -173.5
t39.5 -236.5q0 -108 -26.5 -195t-71 -154.5t-104.5 -116t-127 -80t-137.5 -46.5t-136.5 -15q-105 0 -197 35.5t-161 105.5t-109 173.5t-40 239.5q0 112 27 200.5t73.5 156t107 115t127.5 77.5t136 43.5t131 13.5zM954 1596v-24q0 -45 11.5 -80.5t44.5 -71.5
q-24 -39 -67 -60.5t-90 -21.5q-27 0 -51.5 7.5t-43.5 24t-30.5 42t-11.5 61.5q0 25 5.5 47.5t14.5 45.5l214 36zM346 1560l210 26q24 -57 24 -110q0 -38 -11.5 -65.5t-30.5 -45t-44 -25.5t-52 -8q-45 0 -85.5 19.5t-64.5 54.5q15 14 24.5 27t15.5 28t8 32.5t2 40.5v20z" />
    <glyph glyph-name="divide" unicode="&#xf7;" horiz-adv-x="1336" 
d="M675 322q119 0 119 -113q0 -61 -34.5 -95t-96.5 -34q-58 0 -90.5 30.5t-32.5 87.5q0 60 35.5 92t99.5 32zM1206 482h-1086l8 118h1088zM674 1002q60 0 90 -29.5t30 -85.5q0 -60 -34.5 -93.5t-96.5 -33.5q-59 0 -91 29.5t-32 86.5q0 60 35.5 93t98.5 33z" />
    <glyph glyph-name="oslash" unicode="&#xf8;" horiz-adv-x="1288" 
d="M687 1126q78 0 152.5 -20.5t134.5 -61.5l136 168l100 -42l-156 -192q69 -72 106.5 -175t37.5 -231q0 -109 -26.5 -196t-71 -154t-104.5 -115.5t-126.5 -80t-136.5 -46t-135 -14.5q-73 0 -144 17.5t-130 52.5l-128 -168l-94 48l140 184q-72 71 -113 177.5t-41 242.5
q0 112 27.5 200.5t73.5 156t107 115t127.5 77.5t134.5 43.5t129 13.5zM580 994q-54 0 -100.5 -17.5t-80 -59.5t-52.5 -111.5t-19 -173.5q0 -98 17.5 -182t52.5 -148q109 144 217.5 284.5t222.5 283.5q-51 63 -117 93.5t-141 30.5zM894 782q-112 -143 -220.5 -282.5
t-217.5 -285.5q51 -57 115.5 -84.5t136.5 -27.5q54 0 100 17.5t79.5 59t52 110.5t18.5 172q0 93 -16 175t-48 146z" />
    <glyph glyph-name="ugrave" unicode="&#xf9;" horiz-adv-x="1430" 
d="M952 198q-44 -48 -91.5 -90.5t-100 -74t-112 -49.5t-126.5 -18q-88 0 -148 31.5t-97 91t-53 144.5t-16 192q0 51 3 112l6 122q3 61 6 117q3 55 3 93q0 37 -5 58.5t-24.5 33t-58 14.5t-104.5 3l20 82q69 6 134.5 14.5t121 17.5t97.5 18t65 16l16 -12q-6 -66 -11 -142.5
t-9 -157.5t-6 -161.5t-2 -153.5q0 -66 4.5 -128.5t24.5 -111t61 -78t113 -29.5q87 0 161 41.5t128 104.5q1 32 2 70t1.5 72t0.5 60v37q0 73 -0.5 128.5t-1.5 98t-2 72.5t-2 52q-2 33 -7.5 51t-23.5 27t-53 10.5t-96 1.5l20 82q69 6 133.5 14.5t118.5 17.5t95.5 18t64.5 16
l18 -12q-6 -68 -10 -134t-6.5 -139t-3 -156t-0.5 -185v-81q0 -43 0.5 -83t1.5 -73.5t2 -52.5q2 -32 7.5 -53t16 -33t25 -17t34.5 -5q53 0 131 30l24 -64q-36 -22 -82 -40.5t-92.5 -32t-90 -21.5t-73.5 -8q-40 0 -67.5 13.5t-44.5 38t-24.5 58t-7.5 73.5v19q0 5 0.5 11.5
t1.5 16.5zM574 1740q27 -65 60.5 -131.5t70.5 -130.5t76 -122.5t77 -107.5q-20 -14 -52 -14t-74.5 16.5t-94 63.5t-110.5 130.5t-123 217.5z" />
    <glyph glyph-name="uacute" unicode="&#xfa;" horiz-adv-x="1430" 
d="M952 198q-44 -48 -91.5 -90.5t-100 -74t-112 -49.5t-126.5 -18q-88 0 -148 31.5t-97 91t-53 144.5t-16 192q0 51 3 112l6 122q3 61 6 117q3 55 3 93q0 37 -5 58.5t-24.5 33t-58 14.5t-104.5 3l20 82q69 6 134.5 14.5t121 17.5t97.5 18t65 16l16 -12q-6 -66 -11 -142.5
t-9 -157.5t-6 -161.5t-2 -153.5q0 -66 4.5 -128.5t24.5 -111t61 -78t113 -29.5q87 0 161 41.5t128 104.5q1 32 2 70t1.5 72t0.5 60v37q0 73 -0.5 128.5t-1.5 98t-2 72.5t-2 52q-2 33 -7.5 51t-23.5 27t-53 10.5t-96 1.5l20 82q69 6 133.5 14.5t118.5 17.5t95.5 18t64.5 16
l18 -12q-6 -68 -10 -134t-6.5 -139t-3 -156t-0.5 -185v-81q0 -43 0.5 -83t1.5 -73.5t2 -52.5q2 -32 7.5 -53t16 -33t25 -17t34.5 -5q53 0 131 30l24 -64q-36 -22 -82 -40.5t-92.5 -32t-90 -21.5t-73.5 -8q-40 0 -67.5 13.5t-44.5 38t-24.5 58t-7.5 73.5v19q0 5 0.5 11.5
t1.5 16.5zM996 1670q-63 -133 -121 -218t-108 -133.5t-91.5 -66.5t-72.5 -18q-15 0 -26.5 3.5t-22.5 10.5q38 49 77 106.5t75.5 120.5t70.5 129t61 132z" />
    <glyph glyph-name="ucircumflex" unicode="&#xfb;" horiz-adv-x="1430" 
d="M952 198q-44 -48 -91.5 -90.5t-100 -74t-112 -49.5t-126.5 -18q-88 0 -148 31.5t-97 91t-53 144.5t-16 192q0 51 3 112l6 122q3 61 6 117q3 55 3 93q0 37 -5 58.5t-24.5 33t-58 14.5t-104.5 3l20 82q69 6 134.5 14.5t121 17.5t97.5 18t65 16l16 -12q-6 -66 -11 -142.5
t-9 -157.5t-6 -161.5t-2 -153.5q0 -66 4.5 -128.5t24.5 -111t61 -78t113 -29.5q87 0 161 41.5t128 104.5q1 32 2 70t1.5 72t0.5 60v37q0 73 -0.5 128.5t-1.5 98t-2 72.5t-2 52q-2 33 -7.5 51t-23.5 27t-53 10.5t-96 1.5l20 82q69 6 133.5 14.5t118.5 17.5t95.5 18t64.5 16
l18 -12q-6 -68 -10 -134t-6.5 -139t-3 -156t-0.5 -185v-81q0 -43 0.5 -83t1.5 -73.5t2 -52.5q2 -32 7.5 -53t16 -33t25 -17t34.5 -5q53 0 131 30l24 -64q-36 -22 -82 -40.5t-92.5 -32t-90 -21.5t-73.5 -8q-40 0 -67.5 13.5t-44.5 38t-24.5 58t-7.5 73.5v19q0 5 0.5 11.5
t1.5 16.5zM702 1502q-40 -62 -73.5 -109.5t-63.5 -79.5t-58 -48.5t-58 -16.5q-14 0 -29.5 4t-35.5 14q75 75 153.5 184t144.5 258l102 18q26 -79 57 -140t65.5 -109.5t70.5 -87t71 -71.5l-124 -86q-38 34 -68 66.5t-55 65.5t-46.5 67t-42.5 71h-10z" />
    <glyph glyph-name="udieresis" unicode="&#xfc;" horiz-adv-x="1430" 
d="M952 198q-44 -48 -91.5 -90.5t-100 -74t-112 -49.5t-126.5 -18q-88 0 -148 31.5t-97 91t-53 144.5t-16 192q0 51 3 112l6 122q3 61 6 117q3 55 3 93q0 37 -5 58.5t-24.5 33t-58 14.5t-104.5 3l20 82q69 6 134.5 14.5t121 17.5t97.5 18t65 16l16 -12q-6 -66 -11 -142.5
t-9 -157.5t-6 -161.5t-2 -153.5q0 -66 4.5 -128.5t24.5 -111t61 -78t113 -29.5q87 0 161 41.5t128 104.5q1 32 2 70t1.5 72t0.5 60v37q0 73 -0.5 128.5t-1.5 98t-2 72.5t-2 52q-2 33 -7.5 51t-23.5 27t-53 10.5t-96 1.5l20 82q69 6 133.5 14.5t118.5 17.5t95.5 18t64.5 16
l18 -12q-6 -68 -10 -134t-6.5 -139t-3 -156t-0.5 -185v-81q0 -43 0.5 -83t1.5 -73.5t2 -52.5q2 -32 7.5 -53t16 -33t25 -17t34.5 -5q53 0 131 30l24 -64q-36 -22 -82 -40.5t-92.5 -32t-90 -21.5t-73.5 -8q-40 0 -67.5 13.5t-44.5 38t-24.5 58t-7.5 73.5v19q0 5 0.5 11.5
t1.5 16.5zM1016 1596v-24q0 -45 11.5 -80.5t44.5 -71.5q-24 -39 -67 -60.5t-90 -21.5q-27 0 -51.5 7.5t-43.5 24t-30.5 42t-11.5 61.5q0 25 5.5 47.5t14.5 45.5l214 36zM408 1560l210 26q24 -57 24 -110q0 -38 -11.5 -65.5t-30.5 -45t-44 -25.5t-52 -8q-45 0 -85.5 19.5
t-64.5 54.5q15 14 24.5 27t15.5 28t8 32.5t2 40.5v20z" />
    <glyph glyph-name="yacute" unicode="&#xfd;" horiz-adv-x="1246" 
d="M768 1078q7 -1 32 -2t59 -2t73 -1.5t73 -0.5q130 0 198 6t85 8q0 -22 -9.5 -40.5t-32 -33.5t-60.5 -25.5t-94 -16.5q-50 -132 -96.5 -261t-90.5 -252t-86.5 -238t-84.5 -219q-64 -159 -130 -291.5t-138.5 -227.5t-154 -148t-175.5 -53q-84 0 -130 40t-46 114
q0 18 3.5 40.5t12.5 45.5q39 -11 75 -15.5t67 -4.5q100 0 173.5 37.5t131 104.5t103 158.5t90.5 199.5h-2q-5 0 -14 -1t-20 -2q-12 -1 -23 -3q-12 -1 -21 -2q-33 94 -68.5 191t-70.5 190t-68.5 178t-62 154.5t-51.5 121t-37 77.5q-17 28 -34 45t-40.5 26.5t-56.5 14.5
t-81 10l24 86q7 -1 31 -2.5t60 -2.5t81.5 -2t94.5 -1q45 0 74.5 1t50.5 3q25 -62 62 -151q36 -90 78.5 -198.5t89 -231.5t92.5 -253h8q21 54 44.5 117.5t47 129.5t45 130.5t38 121.5t26 102.5t9.5 72.5q0 20 -7 32t-26.5 19.5t-54.5 11.5t-90 9zM147 1000zM1103 976z
M964 994zM928 1670q-63 -133 -121 -218t-108 -133.5t-91.5 -66.5t-72.5 -18q-15 0 -26.5 3.5t-22.5 10.5q38 49 77 106.5t75.5 120.5t70.5 129t61 132z" />
    <glyph glyph-name="thorn" unicode="&#xfe;" horiz-adv-x="1382" 
d="M205 420q0 261 -0.5 458t-1.5 340.5t-2 239t-2 152.5q-2 34 -7 52t-24 26.5t-58 10t-109 1.5l20 82q67 4 132.5 12.5t122 18.5t100.5 20.5t67 18.5l20 -14q-4 -59 -6.5 -131.5t-4.5 -152.5t-3 -164.5t-1.5 -166t-0.5 -158.5v-139l6 -2q39 38 84.5 74.5t97 65t110 45.5
t124.5 17q98 0 176.5 -39t133.5 -106.5t84.5 -159t29.5 -195.5q0 -86 -20.5 -168.5t-59 -155.5t-94.5 -135t-127.5 -106.5t-157.5 -69.5t-184 -25q-37 0 -86.5 5.5t-112.5 22.5v-182q0 -78 1 -136.5t2 -102.5t3 -81q1 -27 6 -42.5t27.5 -25t70 -15.5t134.5 -13l-34 -84
q-8 1 -43 2.5t-81.5 2.5t-97.5 2t-91 1q-65 0 -120.5 -2t-97 -5t-67 -5.5t-30.5 -3.5q0 6 3.5 21.5t20 33t50 33.5t94.5 24q2 189 3 439.5t1 564.5zM1045 517q0 80 -17.5 156t-56 135.5t-99 95.5t-145.5 36t-153 -33.5t-125 -84.5q0 -191 0.5 -364.5t5.5 -313.5
q34 -21 69.5 -33.5t68 -18.5t59 -8t43.5 -2q99 0 166.5 38.5t108 101t58 140t17.5 155.5z" />
    <glyph glyph-name="ydieresis" unicode="&#xff;" horiz-adv-x="1246" 
d="M768 1078q7 -1 32 -2t59 -2t73 -1.5t73 -0.5q130 0 198 6t85 8q0 -22 -9.5 -40.5t-32 -33.5t-60.5 -25.5t-94 -16.5q-50 -132 -96.5 -261t-90.5 -252t-86.5 -238t-84.5 -219q-64 -159 -130 -291.5t-138.5 -227.5t-154 -148t-175.5 -53q-84 0 -130 40t-46 114
q0 18 3.5 40.5t12.5 45.5q39 -11 75 -15.5t67 -4.5q100 0 173.5 37.5t131 104.5t103 158.5t90.5 199.5h-2q-5 0 -14 -1t-20 -2q-12 -1 -23 -3q-12 -1 -21 -2q-33 94 -68.5 191t-70.5 190t-68.5 178t-62 154.5t-51.5 121t-37 77.5q-17 28 -34 45t-40.5 26.5t-56.5 14.5
t-81 10l24 86q7 -1 31 -2.5t60 -2.5t81.5 -2t94.5 -1q45 0 74.5 1t50.5 3q25 -62 62 -151q36 -90 78.5 -198.5t89 -231.5t92.5 -253h8q21 54 44.5 117.5t47 129.5t45 130.5t38 121.5t26 102.5t9.5 72.5q0 20 -7 32t-26.5 19.5t-54.5 11.5t-90 9zM147 1000zM1103 976z
M964 994zM948 1596v-24q0 -45 11.5 -80.5t44.5 -71.5q-24 -39 -67 -60.5t-90 -21.5q-27 0 -51.5 7.5t-43.5 24t-30.5 42t-11.5 61.5q0 25 5.5 47.5t14.5 45.5l214 36zM340 1560l210 26q24 -57 24 -110q0 -38 -11.5 -65.5t-30.5 -45t-44 -25.5t-52 -8q-45 0 -85.5 19.5
t-64.5 54.5q15 14 24.5 27t15.5 28t8 32.5t2 40.5v20z" />
    <glyph glyph-name="Amacron" unicode="&#x100;" horiz-adv-x="1768" 
d="M1258 844q48 -138 85 -243.5t65 -183.5t49 -131.5t37 -87.5q15 -35 28 -56t40.5 -34t77 -19.5t136.5 -12.5l-40 -90q-12 1 -44 3.5t-77.5 4.5t-101 4t-115.5 2q-64 0 -126.5 -2t-113.5 -5t-84.5 -5.5t-39.5 -3.5q0 10 3.5 26.5t23 33.5t59.5 32t114 22q-26 84 -63.5 196
t-88.5 252q-165 0 -301 -1t-257 -5q-35 -81 -59 -137t-39.5 -94.5t-25.5 -63.5t-16 -43q-11 -31 -15.5 -47t-4.5 -26q0 -12 8.5 -20t31 -13.5t62 -9.5t102.5 -8l-40 -90q-8 1 -39 3t-73 4t-88 3.5t-83 1.5q-41 0 -88.5 -2t-89 -4t-71 -4.5t-34.5 -3.5q0 10 4 26.5t25 34
t65 32.5t124 21q28 52 66 129t82 171t92 200.5t98 217.5q60 135 104 235.5t76 175t54 128t38 95t28.5 76.5t25.5 72q16 1 36 3t41.5 5t43 6.5t41.5 7.5q16 -61 35.5 -128t48 -156.5t69.5 -209t99 -284.5zM1238 91zM1530 76zM189 94zM335 78zM570 644q117 5 234 7
q117 1 240 3l-56 158q-36 106 -73 213q-37 106 -73 217h-8q-48 -112 -95.5 -222t-98.5 -222zM1260 1756q-135 3 -217 3.5t-121 0.5q-45 0 -127 -0.5t-211 -3.5l-16 120q66 2 156.5 3t209.5 1q120 0 207 -1t147 -3z" />
    <glyph glyph-name="amacron" unicode="&#x101;" horiz-adv-x="1216" 
d="M1216 68q-36 -22 -82 -40.5t-93 -32t-90 -21.5t-73 -8q-38 0 -64 12t-42.5 31.5t-24 44t-7.5 50.5v60h-6q-104 -94 -199.5 -146t-190.5 -52q-56 0 -102.5 18.5t-79.5 50.5t-51.5 76t-18.5 95q0 65 28.5 118t78 96t115 77t139.5 61t152.5 48t152.5 38v30q0 84 -18.5 140.5
t-51 91t-76.5 49.5t-96 15q-77 0 -117.5 -28t-40.5 -79q0 -28 13.5 -53.5t44.5 -53.5q-11 -17 -28.5 -32t-39 -26t-45 -17.5t-46.5 -6.5q-24 0 -45 7t-37 20.5t-25.5 32.5t-9.5 43q0 37 23.5 77t63.5 79t93.5 74t113 61.5t122.5 42t123 15.5q94 0 156.5 -38t99.5 -97.5
t52 -132.5t15 -143q0 -25 -1.5 -66.5t-3.5 -91.5t-5 -103t-5 -101t-3.5 -85.5t-1.5 -56.5q0 -33 5 -54t15 -33t25 -17t35 -5q53 0 130 30zM742 258q3 59 6.5 131t5.5 173q-122 -26 -200.5 -56t-125 -64.5t-64.5 -73.5t-18 -82q0 -41 12.5 -69.5t32.5 -46.5t46 -26t52 -8
q40 0 83 15.5t79 36.5t61 41t30 29zM938 1376q-130 3 -210 3.5t-118 0.5q-45 0 -124 -0.5t-204 -3.5l-16 120q63 2 147.5 3t200.5 1q117 0 205 -1t147 -3z" />
    <glyph glyph-name="Abreve" unicode="&#x102;" horiz-adv-x="1768" 
d="M1258 844q48 -138 85 -243.5t65 -183.5t49 -131.5t37 -87.5q15 -35 28 -56t40.5 -34t77 -19.5t136.5 -12.5l-40 -90q-12 1 -44 3.5t-77.5 4.5t-101 4t-115.5 2q-64 0 -126.5 -2t-113.5 -5t-84.5 -5.5t-39.5 -3.5q0 10 3.5 26.5t23 33.5t59.5 32t114 22q-26 84 -63.5 196
t-88.5 252q-165 0 -301 -1t-257 -5q-35 -81 -59 -137t-39.5 -94.5t-25.5 -63.5t-16 -43q-11 -31 -15.5 -47t-4.5 -26q0 -12 8.5 -20t31 -13.5t62 -9.5t102.5 -8l-40 -90q-8 1 -39 3t-73 4t-88 3.5t-83 1.5q-41 0 -88.5 -2t-89 -4t-71 -4.5t-34.5 -3.5q0 10 4 26.5t25 34
t65 32.5t124 21q28 52 66 129t82 171t92 200.5t98 217.5q60 135 104 235.5t76 175t54 128t38 95t28.5 76.5t25.5 72q16 1 36 3t41.5 5t43 6.5t41.5 7.5q16 -61 35.5 -128t48 -156.5t69.5 -209t99 -284.5zM1238 91zM1530 76zM189 94zM335 78zM570 644q117 5 234 7
q117 1 240 3l-56 158q-36 106 -73 213q-37 106 -73 217h-8q-48 -112 -95.5 -222t-98.5 -222zM1256 2082q2 -7 2 -15v-18q0 -53 -18 -113t-58.5 -110t-104.5 -83t-155 -33q-61 0 -119.5 16.5t-104 51t-72.5 87.5t-24 127l132 96l16 -12q-3 -12 -4.5 -21t-1.5 -22
q0 -31 11 -62t35 -55.5t63.5 -40t96.5 -15.5q58 0 96 14.5t62 35t36 41.5t18 35q7 18 13 35q7 17 17 30.5t25 22t39 8.5z" />
    <glyph glyph-name="abreve" unicode="&#x103;" horiz-adv-x="1216" 
d="M1216 68q-36 -22 -82 -40.5t-93 -32t-90 -21.5t-73 -8q-38 0 -64 12t-42.5 31.5t-24 44t-7.5 50.5v60h-6q-104 -94 -199.5 -146t-190.5 -52q-56 0 -102.5 18.5t-79.5 50.5t-51.5 76t-18.5 95q0 65 28.5 118t78 96t115 77t139.5 61t152.5 48t152.5 38v30q0 84 -18.5 140.5
t-51 91t-76.5 49.5t-96 15q-77 0 -117.5 -28t-40.5 -79q0 -28 13.5 -53.5t44.5 -53.5q-11 -17 -28.5 -32t-39 -26t-45 -17.5t-46.5 -6.5q-24 0 -45 7t-37 20.5t-25.5 32.5t-9.5 43q0 37 23.5 77t63.5 79t93.5 74t113 61.5t122.5 42t123 15.5q94 0 156.5 -38t99.5 -97.5
t52 -132.5t15 -143q0 -25 -1.5 -66.5t-3.5 -91.5t-5 -103t-5 -101t-3.5 -85.5t-1.5 -56.5q0 -33 5 -54t15 -33t25 -17t35 -5q53 0 130 30zM742 258q3 59 6.5 131t5.5 173q-122 -26 -200.5 -56t-125 -64.5t-64.5 -73.5t-18 -82q0 -41 12.5 -69.5t32.5 -46.5t46 -26t52 -8
q40 0 83 15.5t79 36.5t61 41t30 29zM916 1698q2 -8 2 -17v-22q0 -62 -17 -130t-54.5 -126t-96.5 -95.5t-142 -37.5q-55 0 -107.5 19t-93.5 59.5t-65 104.5t-22 153l134 100l16 -12q-3 -17 -4.5 -28t-1.5 -28q0 -39 9.5 -76.5t30 -67.5t53.5 -48t80 -18q48 0 81 17.5t54 41.5
t32 49.5t16 41.5q7 23 12 45q6 21 15.5 38t25 27t43.5 10z" />
    <glyph glyph-name="Emacron" unicode="&#x112;" horiz-adv-x="1489" 
d="M560 770v-386q0 -75 1 -125t3 -69q2 -29 11.5 -45.5t32.5 -25t63 -11t103 -2.5q94 0 163 4.5t120 17.5t88.5 37t67.5 63.5t57 95.5t58 134l90 -20q-24 -108 -42 -183.5t-33 -126t-29 -80t-30.5 -44t-37 -18.5t-48.5 -4q-22 0 -69 1.5t-109 3.5t-135.5 4t-149 4
t-148.5 3.5t-135 1.5q-177 0 -268 -8q-92 -8 -112 -8q0 9 3.5 25.5t23.5 34.5t64 33t125 21q4 42 6.5 106t4 137t1.5 149v415q0 114 -0.5 194.5t-1.5 132t-2 85.5t-2 55t-2 40q-2 28 -6.5 44t-25.5 25t-65.5 14.5t-126.5 12.5l34 88q25 -4 120.5 -8t251.5 -4q78 0 162.5 1
t167 3t157 4t133.5 4q58 2 94.5 3t42.5 1q14 0 29 -9.5t16 -40.5q2 -58 2 -144t4 -178l-88 -10q-13 62 -26 106t-32 72.5t-47.5 45t-73.5 24.5t-109 10t-154 2h-182q-3 -54 -5 -114t-3 -132t-1.5 -159.5t-0.5 -196.5q121 9 220 16t171 12t115 7.5t52 2.5q31 0 43.5 -24.5
t12.5 -54.5q0 -28 -7 -50.5t-13 -38.5q-78 4 -152 7.5t-146.5 6.5t-146 5.5t-149.5 4.5zM1074 1756q-135 3 -217 3.5t-121 0.5q-45 0 -127 -0.5t-211 -3.5l-16 120q66 2 156.5 3t209.5 1q120 0 207 -1t147 -3z" />
    <glyph glyph-name="emacron" unicode="&#x113;" horiz-adv-x="1130" 
d="M332 578q4 -116 33.5 -197.5t81 -133t123 -75.5t158.5 -24q35 0 68 4t67.5 14t73 26t85.5 40l40 -66q-248 -200 -498 -200q-88 0 -174 27t-154 88.5t-110 161t-42 244.5q0 162 52.5 282t138 199.5t193.5 118.5t219 39q97 0 163.5 -28t106.5 -75.5t57.5 -110.5t17.5 -133
q0 -45 -6.5 -87.5t-17.5 -85.5zM776 686q5 20 6.5 38.5t1.5 32.5q0 51 -12 96t-37.5 78t-64 52t-92.5 19q-47 0 -90.5 -16.5t-77.5 -55.5t-55.5 -103t-24.5 -159zM924 1376q-130 3 -210 3.5t-118 0.5q-45 0 -124 -0.5t-204 -3.5l-16 120q63 2 147.5 3t200.5 1q117 0 205 -1
t147 -3z" />
    <glyph glyph-name="Ebreve" unicode="&#x114;" horiz-adv-x="1489" 
d="M560 770v-386q0 -75 1 -125t3 -69q2 -29 11.5 -45.5t32.5 -25t63 -11t103 -2.5q94 0 163 4.5t120 17.5t88.5 37t67.5 63.5t57 95.5t58 134l90 -20q-24 -108 -42 -183.5t-33 -126t-29 -80t-30.5 -44t-37 -18.5t-48.5 -4q-22 0 -69 1.5t-109 3.5t-135.5 4t-149 4
t-148.5 3.5t-135 1.5q-177 0 -268 -8q-92 -8 -112 -8q0 9 3.5 25.5t23.5 34.5t64 33t125 21q4 42 6.5 106t4 137t1.5 149v415q0 114 -0.5 194.5t-1.5 132t-2 85.5t-2 55t-2 40q-2 28 -6.5 44t-25.5 25t-65.5 14.5t-126.5 12.5l34 88q25 -4 120.5 -8t251.5 -4q78 0 162.5 1
t167 3t157 4t133.5 4q58 2 94.5 3t42.5 1q14 0 29 -9.5t16 -40.5q2 -58 2 -144t4 -178l-88 -10q-13 62 -26 106t-32 72.5t-47.5 45t-73.5 24.5t-109 10t-154 2h-182q-3 -54 -5 -114t-3 -132t-1.5 -159.5t-0.5 -196.5q121 9 220 16t171 12t115 7.5t52 2.5q31 0 43.5 -24.5
t12.5 -54.5q0 -28 -7 -50.5t-13 -38.5q-78 4 -152 7.5t-146.5 6.5t-146 5.5t-149.5 4.5zM1070 2082q2 -7 2 -15v-18q0 -53 -18 -113t-58.5 -110t-104.5 -83t-155 -33q-61 0 -119.5 16.5t-104 51t-72.5 87.5t-24 127l132 96l16 -12q-3 -12 -4.5 -21t-1.5 -22q0 -31 11 -62
t35 -55.5t63.5 -40t96.5 -15.5q58 0 96 14.5t62 35t36 41.5t18 35q7 18 13 35q7 17 17 30.5t25 22t39 8.5z" />
    <glyph glyph-name="ebreve" unicode="&#x115;" horiz-adv-x="1130" 
d="M332 578q4 -116 33.5 -197.5t81 -133t123 -75.5t158.5 -24q35 0 68 4t67.5 14t73 26t85.5 40l40 -66q-248 -200 -498 -200q-88 0 -174 27t-154 88.5t-110 161t-42 244.5q0 162 52.5 282t138 199.5t193.5 118.5t219 39q97 0 163.5 -28t106.5 -75.5t57.5 -110.5t17.5 -133
q0 -45 -6.5 -87.5t-17.5 -85.5zM776 686q5 20 6.5 38.5t1.5 32.5q0 51 -12 96t-37.5 78t-64 52t-92.5 19q-47 0 -90.5 -16.5t-77.5 -55.5t-55.5 -103t-24.5 -159zM902 1698q2 -8 2 -17v-22q0 -62 -17 -130t-54.5 -126t-96.5 -95.5t-142 -37.5q-55 0 -107.5 19t-93.5 59.5
t-65 104.5t-22 153l134 100l16 -12q-3 -17 -4.5 -28t-1.5 -28q0 -39 9.5 -76.5t30 -67.5t53.5 -48t80 -18q48 0 81 17.5t54 41.5t32 49.5t16 41.5q7 23 12 45q6 21 15.5 38t25 27t43.5 10z" />
    <glyph glyph-name="Gdotaccent" unicode="&#x120;" horiz-adv-x="1806" 
d="M1449 1152q-30 175 -146 259.5t-333 84.5q-157 0 -265.5 -42.5t-175.5 -122.5t-96.5 -195t-29.5 -260q0 -102 14.5 -200t45.5 -185.5t80 -161.5t119 -127.5t161.5 -83.5t206.5 -30q26 0 60 2t70 6.5t71 11.5t64 18q0 82 -0.5 147t-1.5 115.5t-2.5 88t-3.5 65.5t-7 44
t-30.5 25t-78 14t-148.5 13l32 88q9 -2 50 -4t96.5 -3.5t117.5 -3t113 -1.5q77 0 139 3t106 6t68 6t26 3q0 -12 -4 -29.5t-23.5 -35.5t-62 -33t-118.5 -22q-6 -102 -6 -262q0 -40 0.5 -75t1.5 -71t3 -74t5 -84q-35 -3 -99 -16t-146.5 -27t-177.5 -25.5t-192 -11.5
q-197 0 -352 53.5t-263 154.5t-165 245.5t-57 326.5q0 143 34.5 264t97 218.5t149 171.5t190.5 124t221.5 75t241.5 25q61 0 124.5 -5.5t121.5 -15t106.5 -22.5t79.5 -27q12 -5 21 -9.5t15 -11.5t9.5 -17t4.5 -26q1 -17 1.5 -54t1 -83.5t1.5 -97.5q0 -51 2 -95zM1067 1976
v-24q0 -45 11.5 -84.5t46.5 -75.5q-26 -39 -71 -60.5t-93 -21.5q-29 0 -55 8.5t-46.5 25.5t-32.5 43.5t-12 62.5q0 21 4.5 47t13.5 49l230 36z" />
    <glyph glyph-name="gdotaccent" unicode="&#x121;" horiz-adv-x="1186" 
d="M566 1122q47 0 90 -7t97 -15t126.5 -15t178.5 -7h60q28 0 63 2l-34 -116q-34 -3 -58.5 -3.5t-33.5 -0.5q-28 0 -56.5 1t-75.5 7l-4 -6q42 -69 61 -137t19 -131q0 -90 -34.5 -168.5t-97 -136.5t-149.5 -91.5t-191 -33.5q-73 0 -136 18q-29 -29 -43.5 -50t-14.5 -41
q0 -23 19 -37t53.5 -22.5t83 -13t106.5 -8.5q61 -4 125.5 -9t126 -16.5t116.5 -31t96.5 -53t65.5 -83t24 -119.5t-25 -136t-69.5 -123.5t-107 -105t-138 -81.5t-161 -53t-177.5 -19q-105 0 -190 24.5t-145 67t-92.5 100t-32.5 123.5q0 81 51.5 161.5t160.5 161.5
q-57 17 -86.5 42.5t-29.5 70.5q0 27 12 56.5t36.5 63t62.5 73t89 86.5q-105 51 -157.5 147.5t-52.5 218.5q0 115 42 199t108.5 139t150.5 81.5t168 26.5zM309 -100q-45 -54 -62.5 -111t-17.5 -100q0 -60 27.5 -110t76.5 -86t117.5 -55.5t151.5 -19.5q90 0 154.5 22.5
t106.5 59t62 83.5t20 95q0 57 -26.5 93.5t-72 57.5t-107.5 31t-132.5 15.5t-146.5 9.5q-76 5 -151 15zM775 624q0 62 -13.5 129.5t-44 123.5t-81 92.5t-124.5 36.5q-55 0 -92 -21t-59 -56t-31 -80t-9 -93q0 -62 14.5 -129t46.5 -122.5t83 -91t125 -35.5q54 0 90 20.5
t57 54.5t29.5 78.5t8.5 92.5zM687 1598v-24q0 -48 11.5 -88t46.5 -76q-13 -21 -32 -36.5t-40.5 -26t-45.5 -16t-47 -5.5q-29 0 -56.5 8.5t-48.5 26t-33.5 44.5t-12.5 65q0 21 4.5 47.5t13.5 50.5l236 36z" />
    <glyph glyph-name="Imacron" unicode="&#x12a;" horiz-adv-x="860" 
d="M560 817v-202q0 -86 0.5 -150.5t1 -109.5t1 -77.5t1.5 -56.5t2 -45q1 -28 6.5 -44.5t28.5 -27t72 -16.5t137 -12l-40 -90q-11 1 -45 3.5t-82 4.5t-104.5 4t-111.5 2q-68 0 -129.5 -2.5t-110 -5.5t-78.5 -6q-31 -2 -37 -2q0 9 3.5 25.5t23.5 34.5t64 33t125 21
q4 42 6.5 105.5t4 137t1.5 151.5v427q0 112 -0.5 187t-1.5 120.5t-2 76t-2 54.5q-1 23 -2 55q-2 28 -6.5 44t-26 25t-66 14.5t-125.5 12.5l34 88q9 -2 43.5 -4t82 -4t102.5 -3t104 -1q79 0 145 3t114 6t75 6t30 3q0 -12 -4 -29.5t-25.5 -35.5t-67.5 -33t-129 -22
q-4 -57 -6.5 -118t-3.5 -138.5t-1.5 -177t-0.5 -231.5zM770 1756q-135 3 -217 3.5t-121 0.5q-45 0 -127 -0.5t-211 -3.5l-16 120q66 2 156.5 3t209.5 1q120 0 207 -1t147 -3z" />
    <glyph glyph-name="imacron" unicode="&#x12b;" horiz-adv-x="719" 
d="M507 1114q-6 -68 -9.5 -143t-5.5 -155t-2.5 -163t-0.5 -165v-112q0 -49 1 -88t2 -68.5t3 -51.5q1 -25 5.5 -40.5t22.5 -25t55.5 -15.5t104.5 -13l-36 -84q-8 1 -34 3t-63.5 3.5t-83 2.5t-93.5 1q-59 0 -111 -2t-91 -4t-64 -4.5t-30 -3.5q0 7 2.5 22.5t17.5 32.5t47.5 33
t92.5 24q4 39 6 86.5t3 93t1 82.5v54q0 109 -1 186t-2 130t-2.5 86t-2.5 54q-2 33 -7.5 51t-23.5 27t-53 10.5t-96 1.5l20 82q69 7 133.5 18t118.5 23t95.5 23.5t64.5 19.5zM681 1376q-130 3 -210 3.5t-118 0.5q-45 0 -124 -0.5t-204 -3.5l-16 120q63 2 147.5 3t200.5 1
q117 0 205 -1t147 -3z" />
    <glyph glyph-name="Ibreve" unicode="&#x12c;" horiz-adv-x="860" 
d="M560 817v-202q0 -86 0.5 -150.5t1 -109.5t1 -77.5t1.5 -56.5t2 -45q1 -28 6.5 -44.5t28.5 -27t72 -16.5t137 -12l-40 -90q-11 1 -45 3.5t-82 4.5t-104.5 4t-111.5 2q-68 0 -129.5 -2.5t-110 -5.5t-78.5 -6q-31 -2 -37 -2q0 9 3.5 25.5t23.5 34.5t64 33t125 21
q4 42 6.5 105.5t4 137t1.5 151.5v427q0 112 -0.5 187t-1.5 120.5t-2 76t-2 54.5q-1 23 -2 55q-2 28 -6.5 44t-26 25t-66 14.5t-125.5 12.5l34 88q9 -2 43.5 -4t82 -4t102.5 -3t104 -1q79 0 145 3t114 6t75 6t30 3q0 -12 -4 -29.5t-25.5 -35.5t-67.5 -33t-129 -22
q-4 -57 -6.5 -118t-3.5 -138.5t-1.5 -177t-0.5 -231.5zM766 2082q2 -7 2 -15v-18q0 -53 -18 -113t-58.5 -110t-104.5 -83t-155 -33q-61 0 -119.5 16.5t-104 51t-72.5 87.5t-24 127l132 96l16 -12q-3 -12 -4.5 -21t-1.5 -22q0 -31 11 -62t35 -55.5t63.5 -40t96.5 -15.5
q58 0 96 14.5t62 35t36 41.5t18 35q7 18 13 35q7 17 17 30.5t25 22t39 8.5z" />
    <glyph glyph-name="ibreve" unicode="&#x12d;" horiz-adv-x="719" 
d="M507 1114q-6 -68 -9.5 -143t-5.5 -155t-2.5 -163t-0.5 -165v-112q0 -49 1 -88t2 -68.5t3 -51.5q1 -25 5.5 -40.5t22.5 -25t55.5 -15.5t104.5 -13l-36 -84q-8 1 -34 3t-63.5 3.5t-83 2.5t-93.5 1q-59 0 -111 -2t-91 -4t-64 -4.5t-30 -3.5q0 7 2.5 22.5t17.5 32.5t47.5 33
t92.5 24q4 39 6 86.5t3 93t1 82.5v54q0 109 -1 186t-2 130t-2.5 86t-2.5 54q-2 33 -7.5 51t-23.5 27t-53 10.5t-96 1.5l20 82q69 7 133.5 18t118.5 23t95.5 23.5t64.5 19.5zM659 1698q2 -8 2 -17v-22q0 -62 -17 -130t-54.5 -126t-96.5 -95.5t-142 -37.5q-55 0 -107.5 19
t-93.5 59.5t-65 104.5t-22 153l134 100l16 -12q-3 -17 -4.5 -28t-1.5 -28q0 -39 9.5 -76.5t30 -67.5t53.5 -48t80 -18q48 0 81 17.5t54 41.5t32 49.5t16 41.5q7 23 12 45q6 21 15.5 38t25 27t43.5 10z" />
    <glyph glyph-name="dotlessi" unicode="&#x131;" horiz-adv-x="719" 
d="M507 1114q-6 -68 -9.5 -143t-5.5 -155t-2.5 -163t-0.5 -165v-112q0 -49 1 -88t2 -68.5t3 -51.5q1 -25 5.5 -40.5t22.5 -25t55.5 -15.5t104.5 -13l-36 -84q-8 1 -34 3t-63.5 3.5t-83 2.5t-93.5 1q-59 0 -111 -2t-91 -4t-64 -4.5t-30 -3.5q0 7 2.5 22.5t17.5 32.5t47.5 33
t92.5 24q4 39 6 86.5t3 93t1 82.5v54q0 109 -1 186t-2 130t-2.5 86t-2.5 54q-2 33 -7.5 51t-23.5 27t-53 10.5t-96 1.5l20 82q69 7 133.5 18t118.5 23t95.5 23.5t64.5 19.5z" />
    <glyph glyph-name="Omacron" unicode="&#x14c;" horiz-adv-x="1904" 
d="M399 882q0 -182 45 -326t127 -244t197.5 -153t255.5 -53q97 0 184.5 28.5t154 97.5t105.5 184.5t39 288.5q0 183 -45.5 328t-127.5 245.5t-196.5 154t-253.5 53.5q-97 0 -185 -29.5t-154.5 -99.5t-106 -186t-39.5 -289zM1018 1624q159 0 299 -52.5t245 -154t166 -250
t61 -339.5q0 -154 -39 -277.5t-106.5 -219t-157 -164.5t-190 -114t-206.5 -66t-206 -21q-104 0 -201 22t-182.5 66t-156.5 110t-122 154t-79 198t-28 241q0 160 40.5 286.5t109.5 223t160 164.5t191.5 111t204 62.5t197.5 19.5zM1289 1756q-135 3 -217 3.5t-121 0.5
q-45 0 -127 -0.5t-211 -3.5l-16 120q66 2 156.5 3t209.5 1q120 0 207 -1t147 -3z" />
    <glyph glyph-name="omacron" unicode="&#x14d;" horiz-adv-x="1288" 
d="M954 449q0 96 -21 193t-65 176t-113.5 128.5t-166.5 49.5q-76 0 -125.5 -30.5t-78.5 -80t-40.5 -112t-11.5 -126.5q0 -96 22.5 -193t69 -176t117 -128.5t165.5 -49.5q75 0 123 30t75.5 79t38.5 112t11 128zM690 1126q106 0 198.5 -36.5t161.5 -106.5t108.5 -173.5
t39.5 -236.5q0 -108 -26.5 -195t-71 -154.5t-104.5 -116t-127 -80t-137.5 -46.5t-136.5 -15q-105 0 -197 35.5t-161 105.5t-109 173.5t-40 239.5q0 112 27 200.5t73.5 156t107 115t127.5 77.5t136 43.5t131 13.5zM972 1376q-130 3 -210 3.5t-118 0.5q-45 0 -124 -0.5
t-204 -3.5l-16 120q63 2 147.5 3t200.5 1q117 0 205 -1t147 -3z" />
    <glyph glyph-name="Obreve" unicode="&#x14e;" horiz-adv-x="1904" 
d="M399 882q0 -182 45 -326t127 -244t197.5 -153t255.5 -53q97 0 184.5 28.5t154 97.5t105.5 184.5t39 288.5q0 183 -45.5 328t-127.5 245.5t-196.5 154t-253.5 53.5q-97 0 -185 -29.5t-154.5 -99.5t-106 -186t-39.5 -289zM1018 1624q159 0 299 -52.5t245 -154t166 -250
t61 -339.5q0 -154 -39 -277.5t-106.5 -219t-157 -164.5t-190 -114t-206.5 -66t-206 -21q-104 0 -201 22t-182.5 66t-156.5 110t-122 154t-79 198t-28 241q0 160 40.5 286.5t109.5 223t160 164.5t191.5 111t204 62.5t197.5 19.5zM1285 2082q2 -7 2 -15v-18q0 -53 -18 -113
t-58.5 -110t-104.5 -83t-155 -33q-61 0 -119.5 16.5t-104 51t-72.5 87.5t-24 127l132 96l16 -12q-3 -12 -4.5 -21t-1.5 -22q0 -31 11 -62t35 -55.5t63.5 -40t96.5 -15.5q58 0 96 14.5t62 35t36 41.5t18 35q7 18 13 35q7 17 17 30.5t25 22t39 8.5z" />
    <glyph glyph-name="obreve" unicode="&#x14f;" horiz-adv-x="1288" 
d="M954 449q0 96 -21 193t-65 176t-113.5 128.5t-166.5 49.5q-76 0 -125.5 -30.5t-78.5 -80t-40.5 -112t-11.5 -126.5q0 -96 22.5 -193t69 -176t117 -128.5t165.5 -49.5q75 0 123 30t75.5 79t38.5 112t11 128zM690 1126q106 0 198.5 -36.5t161.5 -106.5t108.5 -173.5
t39.5 -236.5q0 -108 -26.5 -195t-71 -154.5t-104.5 -116t-127 -80t-137.5 -46.5t-136.5 -15q-105 0 -197 35.5t-161 105.5t-109 173.5t-40 239.5q0 112 27 200.5t73.5 156t107 115t127.5 77.5t136 43.5t131 13.5zM950 1698q2 -8 2 -17v-22q0 -62 -17 -130t-54.5 -126
t-96.5 -95.5t-142 -37.5q-55 0 -107.5 19t-93.5 59.5t-65 104.5t-22 153l134 100l16 -12q-3 -17 -4.5 -28t-1.5 -28q0 -39 9.5 -76.5t30 -67.5t53.5 -48t80 -18q48 0 81 17.5t54 41.5t32 49.5t16 41.5q7 23 12 45q6 21 15.5 38t25 27t43.5 10z" />
    <glyph glyph-name="OE" unicode="&#x152;" horiz-adv-x="2676" 
d="M1747 770v-386q0 -75 1 -125t3 -69q2 -29 11.5 -45.5t32.5 -25t63 -11t103 -2.5q94 0 163 4.5t120 17.5t88.5 37t67.5 63.5t57 95.5t58 134l90 -20q-24 -108 -42 -183.5t-33 -126t-29 -80t-30.5 -44t-36.5 -18.5t-48 -4q-23 0 -70 1.5t-109 3.5q-63 2 -136 4t-148.5 4
t-148.5 3.5t-134 1.5q-64 0 -100.5 -1.5t-58.5 -4.5q3 35 5.5 83.5t4.5 108.5l-6 2q-67 -60 -141 -102t-151 -69t-155.5 -39t-153.5 -12q-104 0 -201 22t-182.5 66t-156.5 110t-122 154t-79 198t-28 241q0 160 41 286.5t110 223t159.5 164.5t190.5 111t202.5 62.5
t195.5 19.5q140 0 256.5 -41.5t210.5 -126.5l6 2l-6 132q11 -2 21 -3t27.5 -1.5t45 -1t73.5 -0.5q85 0 173 1t171 3t157 4t131 4t93.5 3t43.5 1q17 0 30.5 -10t15.5 -40q2 -58 2 -144t4 -178l-88 -10q-13 62 -26 106t-32 72.5t-47.5 45t-73.5 24.5t-109 10t-154 2h-182
q-3 -54 -5 -114t-3 -132t-1.5 -159.5t-0.5 -196.5q121 9 220 16t171 12t115 7.5t52 2.5q31 0 43.5 -24.5t12.5 -54.5q0 -28 -7 -50.5t-13 -38.5q-78 4 -152 7.5t-146.5 6.5t-146 5.5t-149.5 4.5zM399 883q0 -183 45 -327t127 -244t196.5 -153t253.5 -53q96 0 181 28.5
t149.5 97.5t102 183.5t37.5 287.5q0 184 -44 329t-124 246t-192.5 154.5t-249.5 53.5q-96 0 -183.5 -29.5t-153.5 -99t-105.5 -185.5t-39.5 -289z" />
    <glyph glyph-name="oe" unicode="&#x153;" horiz-adv-x="1983" 
d="M685 1126q64 0 124 -14t112 -41t94.5 -67t70.5 -92h8q38 53 90 93t112 67t124.5 40.5t127.5 13.5q95 0 159.5 -28t103.5 -76t56 -111t17 -132q0 -45 -6.5 -87.5t-17.5 -85.5l-670 -28q4 -116 33.5 -197.5t80 -133t120.5 -75.5t155 -24q34 0 66.5 4t67 14t73 26t84.5 40
l40 -66q-123 -100 -246 -150t-244 -50q-56 0 -112 11t-107 34t-93.5 59.5t-71.5 87.5h-8q-39 -50 -90.5 -86t-109 -59.5t-118.5 -35t-119 -11.5q-104 0 -196 35.5t-160 105.5t-107.5 172.5t-39.5 237.5q0 113 27.5 202t73.5 156.5t106.5 115.5t127 78t134 43.5t128.5 13.5z
M578 992q-52 0 -97 -18t-78 -59.5t-52 -110t-19 -169.5q0 -124 28.5 -222.5t78 -167t117.5 -105t148 -36.5q52 0 95.5 17.5t75 58.5t49.5 108.5t18 168.5q0 124 -27 223.5t-75.5 168.5t-115.5 106t-146 37zM1628 686q5 20 6.5 39t1.5 33q0 51 -11.5 95.5t-36.5 77.5t-63 52
t-90 19q-45 0 -88.5 -17t-77.5 -56t-56 -103t-25 -158z" />
    <glyph glyph-name="Scaron" unicode="&#x160;" horiz-adv-x="1264" 
d="M219 474q10 -110 50.5 -184.5t98.5 -119.5t128 -64.5t139 -19.5q61 0 113.5 14t90 42.5t59 71t21.5 100.5q0 69 -30 119.5t-81 91.5t-119 76t-144 73q-52 25 -103.5 52t-98.5 58t-87.5 67t-70.5 80t-47 96.5t-17 115.5q0 107 47.5 195.5t129.5 152t192.5 98.5t235.5 35
q82 0 165.5 -14t147.5 -34q13 -5 21 -9t12 -10t5.5 -15t1.5 -24v-130q0 -50 1 -106t3 -102l-88 -8q-21 166 -110 246t-244 80q-60 0 -112.5 -12.5t-91.5 -40.5t-61.5 -71.5t-22.5 -104.5q0 -69 28.5 -120.5t77.5 -93.5t115 -77.5t141 -71.5q84 -41 166 -84t147 -97.5
t105 -125.5t40 -167q0 -73 -24 -135.5t-66.5 -114t-100.5 -92t-126.5 -68t-145 -42t-155.5 -14.5q-71 0 -148 11t-140.5 29.5t-104.5 43.5t-41 52v3q0 3 1 15q0 11 1 34q0 22 1 62.5t3 101.5t4 148zM661 1880q46 40 87.5 74t80.5 59t76.5 39t74.5 14q20 0 42 -5.5t41 -20.5
q-103 -54 -197.5 -135t-178.5 -195l-102 -18q-36 59 -77.5 104t-86.5 81t-92 64.5t-94 54.5l124 86q52 -23 93.5 -47.5t76 -50.5t63 -52t55.5 -52h14z" />
    <glyph glyph-name="scaron" unicode="&#x161;" horiz-adv-x="1005" 
d="M214 360q7 -79 36 -133.5t71 -89t92 -50t100 -15.5q40 0 73.5 9.5t57.5 27.5t37 44.5t13 61.5q0 43 -20 74.5t-54.5 57t-80.5 47t-97 44.5q-61 25 -121 53t-108 65.5t-77.5 89t-29.5 125.5q0 81 36.5 146.5t98 112t143 71.5t172.5 25q76 0 138.5 -17.5t107 -46.5
t68.5 -66.5t24 -77.5q0 -29 -12 -49.5t-32 -33.5t-45.5 -19t-52.5 -6q-10 0 -23 1t-23 3q-26 97 -79 149.5t-143 52.5q-79 0 -124.5 -37.5t-45.5 -102.5q0 -42 20 -74t56 -58t87 -49.5t113 -48.5q59 -26 118 -54.5t106 -67t76.5 -90.5t29.5 -124q0 -77 -34 -140
t-96.5 -108.5t-150.5 -70.5t-195 -25q-57 0 -114 8t-102.5 25t-73.5 45t-28 68q0 5 0.5 20t2.5 44q1 29 3 73t6 107zM552 1460q40 62 73 109.5t62 79.5t57 48.5t57 16.5q15 0 30.5 -4.5t34.5 -13.5q-75 -75 -150.5 -184t-141.5 -258l-102 -18q-26 79 -57.5 140t-66.5 110
t-71 87t-71 71l124 86q38 -34 68 -66.5t55 -65.5t46.5 -67t42.5 -71h10z" />
    <glyph glyph-name="Umacron" unicode="&#x16a;" horiz-adv-x="1883" 
d="M557 1482q-3 -14 -5.5 -55t-4 -97t-3 -120t-1.5 -123q-1 -59 -1 -108q-1 -49 -1 -74q0 -201 23.5 -350t79 -247.5t147.5 -147t229 -48.5q116 0 196 32.5t133 90.5t82.5 137t43.5 171.5t17 194.5t3 207q0 116 -1 193.5t-3 129t-4.5 84.5t-5.5 60q-3 28 -8 44t-27 25
t-67.5 14.5t-129.5 12.5l26 88q7 -2 37 -4t71 -4t88 -3t88 -1q65 0 123 3t101.5 6t69.5 6t28 3q0 -12 -4 -29.5t-25.5 -35.5t-67.5 -33t-129 -22q-8 -73 -11.5 -148t-5 -145.5t-1.5 -132.5q-1 -63 -2 -110q-2 -137 -12 -263t-36 -235.5t-73.5 -198.5t-125 -152.5t-188.5 -98
t-266 -34.5q-166 0 -290 43.5t-207 138t-124.5 244t-41.5 361.5q0 19 1 66v106q0 58 1 121v116q0 64 -0.5 108t-1.5 72.5t-2 45t-2 26.5q-2 28 -6.5 44t-26 25t-66 14.5t-125.5 12.5l34 88q9 -2 45 -4t85.5 -4t106 -3t105.5 -1q79 0 143.5 3t110 6t71.5 6t29 3
q0 -12 -5 -29.5t-26 -35.5t-64.5 -33t-120.5 -22zM1341 1756q-135 3 -217 3.5t-121 0.5q-45 0 -127 -0.5t-211 -3.5l-16 120q66 2 156.5 3t209.5 1q120 0 207 -1t147 -3z" />
    <glyph glyph-name="umacron" unicode="&#x16b;" horiz-adv-x="1430" 
d="M952 198q-44 -48 -91.5 -90.5t-100 -74t-112 -49.5t-126.5 -18q-88 0 -148 31.5t-97 91t-53 144.5t-16 192q0 51 3 112l6 122q3 61 6 117q3 55 3 93q0 37 -5 58.5t-24.5 33t-58 14.5t-104.5 3l20 82q69 6 134.5 14.5t121 17.5t97.5 18t65 16l16 -12q-6 -66 -11 -142.5
t-9 -157.5t-6 -161.5t-2 -153.5q0 -66 4.5 -128.5t24.5 -111t61 -78t113 -29.5q87 0 161 41.5t128 104.5q1 32 2 70t1.5 72t0.5 60v37q0 73 -0.5 128.5t-1.5 98t-2 72.5t-2 52q-2 33 -7.5 51t-23.5 27t-53 10.5t-96 1.5l20 82q69 6 133.5 14.5t118.5 17.5t95.5 18t64.5 16
l18 -12q-6 -68 -10 -134t-6.5 -139t-3 -156t-0.5 -185v-81q0 -43 0.5 -83t1.5 -73.5t2 -52.5q2 -32 7.5 -53t16 -33t25 -17t34.5 -5q53 0 131 30l24 -64q-36 -22 -82 -40.5t-92.5 -32t-90 -21.5t-73.5 -8q-40 0 -67.5 13.5t-44.5 38t-24.5 58t-7.5 73.5v19q0 5 0.5 11.5
t1.5 16.5zM1034 1376q-130 3 -210 3.5t-118 0.5q-45 0 -124 -0.5t-204 -3.5l-16 120q63 2 147.5 3t200.5 1q117 0 205 -1t147 -3z" />
    <glyph glyph-name="Ubreve" unicode="&#x16c;" horiz-adv-x="1883" 
d="M557 1482q-3 -14 -5.5 -55t-4 -97t-3 -120t-1.5 -123q-1 -59 -1 -108q-1 -49 -1 -74q0 -201 23.5 -350t79 -247.5t147.5 -147t229 -48.5q116 0 196 32.5t133 90.5t82.5 137t43.5 171.5t17 194.5t3 207q0 116 -1 193.5t-3 129t-4.5 84.5t-5.5 60q-3 28 -8 44t-27 25
t-67.5 14.5t-129.5 12.5l26 88q7 -2 37 -4t71 -4t88 -3t88 -1q65 0 123 3t101.5 6t69.5 6t28 3q0 -12 -4 -29.5t-25.5 -35.5t-67.5 -33t-129 -22q-8 -73 -11.5 -148t-5 -145.5t-1.5 -132.5q-1 -63 -2 -110q-2 -137 -12 -263t-36 -235.5t-73.5 -198.5t-125 -152.5t-188.5 -98
t-266 -34.5q-166 0 -290 43.5t-207 138t-124.5 244t-41.5 361.5q0 19 1 66v106q0 58 1 121v116q0 64 -0.5 108t-1.5 72.5t-2 45t-2 26.5q-2 28 -6.5 44t-26 25t-66 14.5t-125.5 12.5l34 88q9 -2 45 -4t85.5 -4t106 -3t105.5 -1q79 0 143.5 3t110 6t71.5 6t29 3
q0 -12 -5 -29.5t-26 -35.5t-64.5 -33t-120.5 -22zM1337 2082q2 -7 2 -15v-18q0 -53 -18 -113t-58.5 -110t-104.5 -83t-155 -33q-61 0 -119.5 16.5t-104 51t-72.5 87.5t-24 127l132 96l16 -12q-3 -12 -4.5 -21t-1.5 -22q0 -31 11 -62t35 -55.5t63.5 -40t96.5 -15.5
q58 0 96 14.5t62 35t36 41.5t18 35q7 18 13 35q7 17 17 30.5t25 22t39 8.5z" />
    <glyph glyph-name="ubreve" unicode="&#x16d;" horiz-adv-x="1430" 
d="M952 198q-44 -48 -91.5 -90.5t-100 -74t-112 -49.5t-126.5 -18q-88 0 -148 31.5t-97 91t-53 144.5t-16 192q0 51 3 112l6 122q3 61 6 117q3 55 3 93q0 37 -5 58.5t-24.5 33t-58 14.5t-104.5 3l20 82q69 6 134.5 14.5t121 17.5t97.5 18t65 16l16 -12q-6 -66 -11 -142.5
t-9 -157.5t-6 -161.5t-2 -153.5q0 -66 4.5 -128.5t24.5 -111t61 -78t113 -29.5q87 0 161 41.5t128 104.5q1 32 2 70t1.5 72t0.5 60v37q0 73 -0.5 128.5t-1.5 98t-2 72.5t-2 52q-2 33 -7.5 51t-23.5 27t-53 10.5t-96 1.5l20 82q69 6 133.5 14.5t118.5 17.5t95.5 18t64.5 16
l18 -12q-6 -68 -10 -134t-6.5 -139t-3 -156t-0.5 -185v-81q0 -43 0.5 -83t1.5 -73.5t2 -52.5q2 -32 7.5 -53t16 -33t25 -17t34.5 -5q53 0 131 30l24 -64q-36 -22 -82 -40.5t-92.5 -32t-90 -21.5t-73.5 -8q-40 0 -67.5 13.5t-44.5 38t-24.5 58t-7.5 73.5v19q0 5 0.5 11.5
t1.5 16.5zM1012 1698q2 -8 2 -17v-22q0 -62 -17 -130t-54.5 -126t-96.5 -95.5t-142 -37.5q-55 0 -107.5 19t-93.5 59.5t-65 104.5t-22 153l134 100l16 -12q-3 -17 -4.5 -28t-1.5 -28q0 -39 9.5 -76.5t30 -67.5t53.5 -48t80 -18q48 0 81 17.5t54 41.5t32 49.5t16 41.5
q7 23 12 45q6 21 15.5 38t25 27t43.5 10z" />
    <glyph glyph-name="Ydieresis" unicode="&#x178;" horiz-adv-x="1620" 
d="M680 480q0 44 -1 75t-6.5 57.5t-15.5 54t-28.5 64t-45.5 86.5q-28 50 -67 123q-22 41 -47.5 88t-56 102t-67 118.5t-81.5 137.5q-20 33 -36 54t-44 34t-76 20.5t-130 13.5l40 90q10 -2 42.5 -4.5t77.5 -4.5t99 -3.5t108 -1.5q69 0 133 2t115 5t84 5.5t39 3.5
q0 -10 -3.5 -26.5t-22 -33.5t-59 -32t-113.5 -22q22 -45 49 -98.5t56 -109t59 -110.5t58 -104q27 -49 48 -85q20 -37 36 -66t29 -53t25 -48h6q57 93 109.5 181.5t96.5 163.5t77 133t51 92q15 29 21.5 46t6.5 28q0 12 -9.5 20t-33 13t-63 8.5t-100.5 8.5l40 90q8 -2 39.5 -4
t73.5 -4t87.5 -3t80.5 -1q43 0 93 2t93 4t73.5 4.5t35.5 3.5q0 -10 -3.5 -26.5t-24 -34t-64.5 -32.5t-124 -21q-81 -114 -189.5 -277.5t-236.5 -386.5q-18 -30 -30 -52.5t-20.5 -43t-13 -41t-7 -47t-3 -61.5t-0.5 -84q0 -54 0.5 -103t1 -89.5t1.5 -71.5t3 -49q3 -27 9 -44
t33 -27.5t83.5 -16.5t160.5 -12l-40 -94q-11 1 -45.5 3.5t-86.5 5.5t-118 5t-139 2q-79 0 -148.5 -2.5t-122 -5.5t-84.5 -6t-36 -4q0 9 4 26.5t28 35.5t76.5 34t149.5 22q3 37 5 86.5t3 101.5t1.5 102t0.5 90zM1437 1490zM1291 1506zM510 1493zM199 1508zM1178 1968v-24
q0 -44 10.5 -77.5t43.5 -68.5q-24 -38 -66 -59t-90 -21q-27 0 -51.5 7.5t-43.5 23.5t-30 40.5t-11 58.5q0 24 5.5 46t14.5 46l214 34zM532 1934l210 24q24 -54 24 -107q0 -36 -11.5 -62.5t-30.5 -43.5t-43.5 -25t-51.5 -8q-43 0 -84 19.5t-65 52.5q15 14 24.5 27t14.5 27
t7 30.5t2 39.5v20z" />
    <glyph glyph-name="Zcaron" unicode="&#x17d;" horiz-adv-x="1594" 
d="M684 0q-68 0 -138 -0.5t-136 -2.5q-66 -1 -125 -2t-103.5 -2.5t-72 -2.5t-31.5 -2l-10 30q20 25 58 75t87.5 116t106.5 143.5t114.5 157t112 157t99.5 143.5l25 37q19 29 48 71q28 42 62.5 93.5t71.5 106.5q36 54 73 108q36 54 67 101q30 46 54 82q24 35 35 53
q-53 1 -98 1.5t-88 0.5h-172q-112 0 -189.5 -2.5t-130.5 -13.5t-85 -32.5t-53 -59.5t-34 -96t-28 -140l-94 8q2 30 5 70t9 127t8 122.5t3.5 60t2.5 30.5q3 33 17 41.5t34 8.5q28 0 187 -6t461 -6q131 0 243.5 1.5t196.5 3.5t135 4t60 3l10 -30q-24 -30 -62 -82t-86.5 -120
t-104.5 -148t-114 -165q-59 -85 -119 -172t-116 -169q-56 -83 -112 -164.5t-108 -156.5q-53 -76 -100 -144t-84 -123q97 -2 189 -2h178q105 0 181.5 2.5t132.5 14t95.5 34t71.5 62t61 99t63 144.5l90 -20q-24 -108 -42 -184.5t-33.5 -128t-30 -81.5t-31.5 -45.5t-38.5 -20
t-50.5 -4.5q-33 0 -84 2.5t-126.5 5.5t-178.5 5.5t-239 2.5zM814 1880q46 40 87.5 74t80.5 59t76.5 39t74.5 14q20 0 42 -5.5t41 -20.5q-103 -54 -197.5 -135t-178.5 -195l-102 -18q-36 59 -77.5 104t-86.5 81t-92 64.5t-94 54.5l124 86q52 -23 93.5 -47.5t76 -50.5t63 -52
t55.5 -52h14z" />
    <glyph glyph-name="zcaron" unicode="&#x17e;" horiz-adv-x="1223" 
d="M94 684q3 40 7 92t7 103t6 95q2 43 4 66q1 16 9.5 32t37.5 16q21 0 142 -7t336 -7q103 0 187.5 2t147 5t99.5 6t45 5l10 -36q-32 -39 -84 -107t-116 -153.5t-134 -181t-137 -188t-126.5 -175.5t-100.5 -143q66 -2 127 -2h125q70 0 120 2t86 11.5t61 28t45 51t37.5 82.5
t38.5 121l86 -16q-17 -92 -29 -157q-12 -66 -22 -110.5t-20 -70.5t-22.5 -40t-29 -18t-40.5 -4q-48 0 -163 7t-305 7q-91 0 -172.5 -2t-144.5 -5t-102.5 -5.5t-45.5 -3.5l-10 36q47 55 109 134.5t130.5 170.5t138 186.5t132 183t113.5 159.5t81 116q-54 1 -113 1.5t-119 0.5
q-70 0 -119 -2t-83 -11t-56 -27.5t-36.5 -51.5t-25 -82t-22.5 -120zM644 1460q40 62 73 109.5t62 79.5t57 48.5t57 16.5q15 0 30.5 -4.5t34.5 -13.5q-75 -75 -150.5 -184t-141.5 -258l-102 -18q-26 79 -57.5 140t-66.5 110t-71 87t-71 71l124 86q38 -34 68 -66.5t55 -65.5
t46.5 -67t42.5 -71h10z" />
    <glyph glyph-name="florin" unicode="&#x192;" horiz-adv-x="729" 
d="M465 964q0 -160 1 -291v-230q0 -99 1 -162v-86q0 -186 -23 -326t-62 -241.5t-91 -168.5t-110 -107t-119 -56t-118 -16t-98 13t-68 34t-40 47.5t-13 54.5q0 26 11.5 51t34 44.5t57 32.5t81.5 15q9 -65 40 -105.5t95 -40.5q67 0 103.5 44.5t53.5 122.5t20.5 183t3.5 226
q0 168 -1 308t-2 257t-2 214t-1 179q-69 -2 -110 -6t-58 -6q0 10 5.5 28.5t23 37t50.5 34.5t89 22v12q0 141 28 253.5t75.5 198.5t110.5 147.5t133 100.5t142.5 57.5t138.5 18.5q61 0 103.5 -13.5t69 -36t38 -51t11.5 -58.5q0 -62 -48 -100t-150 -41q-10 66 -51.5 109
t-122.5 43q-56 0 -94.5 -21.5t-64.5 -58.5t-40.5 -87t-21.5 -107t-9 -118.5t-2 -121.5v-118h212q61 0 124 -2l-32 -116q-47 1 -86 2t-75 1.5t-71 0.5h-72z" />
    <glyph glyph-name="Gcaron" unicode="&#x1e6;" horiz-adv-x="1806" 
d="M1449 1152q-30 175 -146 259.5t-333 84.5q-157 0 -265.5 -42.5t-175.5 -122.5t-96.5 -195t-29.5 -260q0 -102 14.5 -200t45.5 -185.5t80 -161.5t119 -127.5t161.5 -83.5t206.5 -30q26 0 60 2t70 6.5t71 11.5t64 18q0 82 -0.5 147t-1.5 115.5t-2.5 88t-3.5 65.5t-7 44
t-30.5 25t-78 14t-148.5 13l32 88q9 -2 50 -4t96.5 -3.5t117.5 -3t113 -1.5q77 0 139 3t106 6t68 6t26 3q0 -12 -4 -29.5t-23.5 -35.5t-62 -33t-118.5 -22q-6 -102 -6 -262q0 -40 0.5 -75t1.5 -71t3 -74t5 -84q-35 -3 -99 -16t-146.5 -27t-177.5 -25.5t-192 -11.5
q-197 0 -352 53.5t-263 154.5t-165 245.5t-57 326.5q0 143 34.5 264t97 218.5t149 171.5t190.5 124t221.5 75t241.5 25q61 0 124.5 -5.5t121.5 -15t106.5 -22.5t79.5 -27q12 -5 21 -9.5t15 -11.5t9.5 -17t4.5 -26q1 -17 1.5 -54t1 -83.5t1.5 -97.5q0 -51 2 -95zM981 1880
q46 40 87.5 74t80.5 59t76.5 39t74.5 14q20 0 42 -5.5t41 -20.5q-103 -54 -197.5 -135t-178.5 -195l-102 -18q-36 59 -77.5 104t-86.5 81t-92 64.5t-94 54.5l124 86q52 -23 93.5 -47.5t76 -50.5t63 -52t55.5 -52h14z" />
    <glyph glyph-name="gcaron" unicode="&#x1e7;" horiz-adv-x="1186" 
d="M566 1122q47 0 90 -7t97 -15t126.5 -15t178.5 -7h60q28 0 63 2l-34 -116q-34 -3 -58.5 -3.5t-33.5 -0.5q-28 0 -56.5 1t-75.5 7l-4 -6q42 -69 61 -137t19 -131q0 -90 -34.5 -168.5t-97 -136.5t-149.5 -91.5t-191 -33.5q-73 0 -136 18q-29 -29 -43.5 -50t-14.5 -41
q0 -23 19 -37t53.5 -22.5t83 -13t106.5 -8.5q61 -4 125.5 -9t126 -16.5t116.5 -31t96.5 -53t65.5 -83t24 -119.5t-25 -136t-69.5 -123.5t-107 -105t-138 -81.5t-161 -53t-177.5 -19q-105 0 -190 24.5t-145 67t-92.5 100t-32.5 123.5q0 81 51.5 161.5t160.5 161.5
q-57 17 -86.5 42.5t-29.5 70.5q0 27 12 56.5t36.5 63t62.5 73t89 86.5q-105 51 -157.5 147.5t-52.5 218.5q0 115 42 199t108.5 139t150.5 81.5t168 26.5zM309 -100q-45 -54 -62.5 -111t-17.5 -100q0 -60 27.5 -110t76.5 -86t117.5 -55.5t151.5 -19.5q90 0 154.5 22.5
t106.5 59t62 83.5t20 95q0 57 -26.5 93.5t-72 57.5t-107.5 31t-132.5 15.5t-146.5 9.5q-76 5 -151 15zM775 624q0 62 -13.5 129.5t-44 123.5t-81 92.5t-124.5 36.5q-55 0 -92 -21t-59 -56t-31 -80t-9 -93q0 -62 14.5 -129t46.5 -122.5t83 -91t125 -35.5q54 0 90 20.5
t57 54.5t29.5 78.5t8.5 92.5zM603 1460q40 62 73 109.5t62 79.5t57 48.5t57 16.5q15 0 30.5 -4.5t34.5 -13.5q-75 -75 -150.5 -184t-141.5 -258l-102 -18q-26 79 -57.5 140t-66.5 110t-71 87t-71 71l124 86q38 -34 68 -66.5t55 -65.5t46.5 -67t42.5 -71h10z" />
    <glyph glyph-name="uni0237" unicode="&#x237;" horiz-adv-x="651" 
d="M-14 -640q73 54 119.5 116t73.5 146.5t37 200t10 277.5q0 96 -2 193t-2 201q0 58 -1 117t-2 110t-2.5 90.5t-2.5 58.5q-2 33 -8 51t-24.5 27t-54.5 10.5t-97 1.5l20 82q69 7 134 18t120 23t97.5 23.5t66.5 19.5l16 -12q-5 -63 -8 -119t-5 -111t-2.5 -112.5t-0.5 -123.5
v-81q0 -45 1 -93v-96t1 -90v-74v-48q0 -122 -10 -220t-31.5 -179t-55 -147t-81.5 -123.5t-110.5 -109t-141.5 -103.5z" />
    <glyph glyph-name="uni02B0" unicode="&#x2b0;" horiz-adv-x="1065" 
d="M215 1096v316q0 52 -0.5 97t-1.5 81.5t-2 61.5q-2 28 -6.5 43.5t-21 22t-48.5 7.5t-88 1l16 68q55 4 109 11t100.5 15t82.5 16.5t56 15.5l16 -10q-4 -45 -6.5 -108.5t-3.5 -131t-1.5 -132t-0.5 -112.5l4 -2q29 24 58.5 45.5t62 37.5t67.5 25.5t75 9.5q55 0 92.5 -18
t59.5 -49t31.5 -74t9.5 -92q0 -30 -2.5 -68t-5.5 -76q-3 -39 -5.5 -73.5t-2.5 -55.5q0 -24 5.5 -40t23.5 -26.5t51 -17.5t88 -12l-28 -68q-7 1 -29.5 2.5t-54.5 2.5t-71 2t-80 1q-38 0 -66 -1t-51 -3q14 93 18 173.5t4 157.5q0 33 -2 65.5t-12.5 59t-33 42.5t-63.5 16
q-38 0 -77.5 -13.5t-65.5 -30.5v-160q0 -66 0.5 -143.5t5.5 -164.5q-29 2 -54 2h-55q-47 0 -88 -1.5t-72.5 -3.5t-51.5 -4t-25 -3q0 7 2 19.5t14.5 26.5t39 27t76.5 21q6 48 7 101t1 101z" />
    <glyph glyph-name="uni02BC" unicode="&#x2bc;" horiz-adv-x="524" 
d="M108 1459q0 29 10.5 55.5t30.5 46.5t48.5 31.5t65.5 11.5q39 0 69.5 -13.5t51.5 -38.5t31.5 -59t10.5 -74q0 -44 -12 -94.5t-33 -100.5t-49 -96t-60.5 -81.5t-68 -57t-70.5 -21.5q-13 0 -21.5 3t-19.5 9q75 69 116.5 156.5t41.5 177.5q-29 4 -55 15.5t-45.5 30
t-30.5 43.5t-11 56z" />
    <glyph glyph-name="uni02BD" unicode="&#x2bd;" horiz-adv-x="524" 
d="M418 1459q0 -31 -11 -56t-30.5 -43.5t-45.5 -30t-55 -15.5q0 -90 41.5 -177.5t116.5 -156.5q-8 -4 -16.5 -8t-24.5 -4q-35 0 -70.5 21.5t-68 57t-60.5 81.5t-49 96t-33 100.5t-12 94.5q0 40 10.5 74t31 58.5t51 38.5t70.5 14q37 0 65.5 -11.5t48.5 -31.5t30.5 -46.5
t10.5 -55.5z" />
    <glyph glyph-name="uni02BE" unicode="&#x2be;" horiz-adv-x="544" 
d="M130 1610q30 8 58 11t49 3q73 0 128.5 -24t92.5 -64.5t55.5 -92.5t18.5 -108q0 -63 -23.5 -125.5t-67 -111.5t-105.5 -79.5t-138 -30.5q-58 0 -86 18t-28 50q0 26 20 58q22 -8 41.5 -10t28.5 -2q49 0 85 17t60 45.5t35.5 65t11.5 76.5t-11.5 78t-35.5 68t-61.5 48
t-89.5 18q-11 0 -28 -1.5t-32 -6.5z" />
    <glyph glyph-name="uni02BF" unicode="&#x2bf;" horiz-adv-x="544" 
d="M424 1002q-30 -8 -58 -11t-49 -3q-73 0 -128.5 24t-92.5 64.5t-55.5 92.5t-18.5 108q0 63 23.5 125.5t67 111.5t105 79.5t138.5 30.5q58 0 86 -18t28 -50q0 -26 -20 -58q-22 8 -41.5 10t-28.5 2q-50 0 -86 -17.5t-59.5 -46t-35 -65.5t-11.5 -76t11 -76.5t35 -67.5
t61.5 -48.5t90.5 -18.5q11 0 28 1.5t32 6.5z" />
    <glyph glyph-name="circumflex" unicode="&#x2c6;" horiz-adv-x="800" 
d="M386 1502q-40 -62 -73.5 -109.5t-63.5 -79.5t-58 -48.5t-58 -16.5q-14 0 -29.5 4t-35.5 14q75 75 153.5 184t144.5 258l102 18q26 -79 57 -140t65.5 -109.5t70.5 -87t71 -71.5l-124 -86q-38 34 -68 66.5t-55 65.5t-46.5 67t-42.5 71h-10z" />
    <glyph glyph-name="tilde" unicode="&#x2dc;" horiz-adv-x="800" 
d="M790 1566q-69 -125 -137 -190.5t-124 -65.5q-32 0 -75.5 18t-89.5 39t-88.5 39t-72.5 18q-40 0 -84.5 -36.5t-86.5 -99.5q-11 6 -15.5 16t-4.5 20q0 18 11.5 44.5t31 55t45 57.5t54.5 51.5t59.5 37t59.5 14.5q33 0 72.5 -16.5t80.5 -36.5q42 -20 82 -36.5t73 -16.5
q16 0 31.5 6t33 20t37 38t45.5 60z" />
    <glyph glyph-name="gravecomb" unicode="&#x300;" 
d="M-776 1740q27 -65 60.5 -131.5t70.5 -130.5t76 -122.5t77 -107.5q-20 -14 -52 -14t-74.5 16.5t-94 63.5t-110.5 130.5t-123 217.5z" />
    <glyph glyph-name="acutecomb" unicode="&#x301;" 
d="M-354 1670q-63 -133 -121 -218t-108 -133.5t-91.5 -66.5t-72.5 -18q-15 0 -26.5 3.5t-22.5 10.5q38 49 77 106.5t75.5 120.5t70.5 129t61 132z" />
    <glyph glyph-name="uni0302" unicode="&#x302;" 
d="M-648 1502q-40 -62 -73.5 -109.5t-63.5 -79.5t-58 -48.5t-58 -16.5q-14 0 -29.5 4t-35.5 14q75 75 153.5 184t144.5 258l102 18q26 -79 57 -140t65.5 -109.5t70.5 -87t71 -71.5l-124 -86q-38 34 -68 66.5t-55 65.5t-46.5 67t-42.5 71h-10z" />
    <glyph glyph-name="tildecomb" unicode="&#x303;" 
d="M-238 1566q-69 -125 -137 -190.5t-124 -65.5q-32 0 -75.5 18t-89.5 39t-88.5 39t-72.5 18q-40 0 -84.5 -36.5t-86.5 -99.5q-11 6 -15.5 16t-4.5 20q0 18 11.5 44.5t31 55t45 57.5t54.5 51.5t59.5 37t59.5 14.5q33 0 72.5 -16.5t80.5 -36.5q42 -20 82 -36.5t73 -16.5
q16 0 31.5 6t33 20t37 38t45.5 60z" />
    <glyph glyph-name="uni0304" unicode="&#x304;" 
d="M-316 1376q-130 3 -210 3.5t-118 0.5q-45 0 -124 -0.5t-204 -3.5l-16 120q63 2 147.5 3t200.5 1q117 0 205 -1t147 -3z" />
    <glyph glyph-name="uni0306" unicode="&#x306;" 
d="M-338 1698q2 -8 2 -17v-22q0 -62 -17 -130t-54.5 -126t-96.5 -95.5t-142 -37.5q-55 0 -107.5 19t-93.5 59.5t-65 104.5t-22 153l134 100l16 -12q-3 -17 -4.5 -28t-1.5 -28q0 -39 9.5 -76.5t30 -67.5t53.5 -48t80 -18q48 0 81 17.5t54 41.5t32 49.5t16 41.5q7 23 12 45
q6 21 15.5 38t25 27t43.5 10z" />
    <glyph glyph-name="uni0307" unicode="&#x307;" 
d="M-536 1598v-24q0 -48 11.5 -88t46.5 -76q-13 -21 -32 -36.5t-40.5 -26t-45.5 -16t-47 -5.5q-29 0 -56.5 8.5t-48.5 26t-33.5 44.5t-12.5 65q0 21 4.5 47.5t13.5 50.5l236 36z" />
    <glyph glyph-name="uni0308" unicode="&#x308;" 
d="M-334 1596v-24q0 -45 11.5 -80.5t44.5 -71.5q-24 -39 -67 -60.5t-90 -21.5q-27 0 -51.5 7.5t-43.5 24t-30.5 42t-11.5 61.5q0 25 5.5 47.5t14.5 45.5l214 36zM-942 1560l210 26q24 -57 24 -110q0 -38 -11.5 -65.5t-30.5 -45t-44 -25.5t-52 -8q-45 0 -85.5 19.5
t-64.5 54.5q15 14 24.5 27t15.5 28t8 32.5t2 40.5v20z" />
    <glyph glyph-name="uni030A" unicode="&#x30a;" 
d="M-880 1456q0 51 20 93t54 72.5t80 47.5t97 17q50 0 90.5 -15.5t69 -43.5t44 -65.5t15.5 -82.5q0 -48 -18.5 -90t-51.5 -73t-78.5 -48.5t-100.5 -17.5q-52 0 -93 16t-69.5 44t-43.5 65.5t-15 80.5zM-526 1460q0 29 -7 55t-22.5 45.5t-39.5 30.5t-57 11q-54 0 -83 -30
t-29 -93q0 -27 6.5 -53.5t21 -46.5t38.5 -32.5t59 -12.5q55 0 84 33t29 93z" />
    <glyph glyph-name="uni030C" unicode="&#x30c;" 
d="M-620 1460q40 62 73 109.5t62 79.5t57 48.5t57 16.5q15 0 30.5 -4.5t34.5 -13.5q-75 -75 -150.5 -184t-141.5 -258l-102 -18q-26 79 -57.5 140t-66.5 110t-71 87t-71 71l124 86q38 -34 68 -66.5t55 -65.5t46.5 -67t42.5 -71h10z" />
    <glyph glyph-name="dotbelowcomb" unicode="&#x323;" 
d="M-748 -256l224 28q14 -30 20 -59.5t6 -56.5q0 -42 -12 -73t-32.5 -50.5t-47.5 -29t-57 -9.5q-47 0 -90 21t-69 59q16 15 26.5 30t16.5 31.5t8.5 36t2.5 44.5v22z" />
    <glyph glyph-name="uni0327" unicode="&#x327;" 
d="M-542 20q-25 -36 -40.5 -60t-23.5 -40t-11 -26.5t-3 -20.5q0 -29 21 -49.5t65 -55.5q19 -15 37.5 -30.5t32.5 -32.5t23 -35t9 -38q0 -32 -22.5 -72.5t-59.5 -84t-84 -86.5t-96 -79l-50 46q23 21 48 45t46 49t34.5 49t13.5 47q0 25 -20.5 46.5t-65.5 57.5
q-14 11 -30.5 24.5t-31 29t-24.5 32t-10 33.5t10 39t25.5 46t35 48.5t38.5 46.5t35 40q16 19 26 31h72z" />
    <glyph glyph-name="uni032E" unicode="&#x32e;" 
d="M-338 -144q2 -8 2 -17v-22q0 -62 -17.5 -130.5t-55 -126t-96.5 -95t-143 -37.5q-54 0 -107 18.5t-93.5 59t-64.5 104t-21 154.5l134 100l16 -12q-3 -17 -4.5 -28t-1.5 -28q0 -39 9.5 -76.5t30 -67.5t53.5 -48t80 -18q48 0 81 17.5t54 41.5t32 49.5t16 41.5q7 23 12 44
q6 22 15.5 39t25 27t43.5 10z" />
    <glyph glyph-name="uni0331" unicode="&#x331;" 
d="M-316 -406q-130 3 -210 3.5t-118 0.5q-45 0 -124 -0.5t-204 -3.5l-16 120q63 2 147.5 3t200.5 1q117 0 205 -1t147 -3z" />
    <glyph glyph-name="uni060C" unicode="&#x60c;" horiz-adv-x="653" 
d="M533 630q-63 -28 -106.5 -60.5t-69.5 -67.5t-37.5 -71.5t-11.5 -73.5q0 -57 32.5 -95t103.5 -38q6 0 13 0.5t13 1.5q18 -26 27 -54t9 -57t-10 -56t-30 -47.5t-50 -33t-70 -12.5q-37 0 -74 14.5t-66 46.5t-47.5 83t-18.5 125q0 61 14.5 117.5t39.5 105.5t57.5 88.5
t68 67.5t72 43.5t68.5 15.5q45 0 73 -43z" />
    <glyph glyph-name="uni0615" unicode="&#x615;" 
d="M200 362q-10 -50 -23 -86t-29.5 -63t-37 -46.5t-44.5 -35.5q-80 -54 -155.5 -80.5t-150.5 -26.5q-32 0 -54.5 4t-40.5 9t-33 9t-32 4q-8 0 -19 -1q-10 -1 -15 -1t-8.5 3t-3.5 5q0 3 2 6.5t8 5.5q39 9 71 19q33 10 71 20q67 18 129.5 39t118 48t103.5 61t87 77
q15 17 21.5 29.5t6.5 30.5q0 10 -5.5 20.5t-16 19.5t-26 14.5t-34.5 5.5q-35 0 -71.5 -21.5t-66.5 -54.5q-20 -26 -36.5 -50t-30 -49.5t-24.5 -53t-21 -59.5l-4 -2l-22 56q0 5 4 17q5 12 10 28t9.5 34.5t4.5 38.5q0 22 -3 53t-8.5 63.5t-13.5 64.5t-18 57t-21.5 40.5
t-23.5 15.5t-18.5 -21t-11.5 -59q-2 -9 -3.5 -10.5t-6.5 -1.5q-8 0 -8 16q0 11 1 29t3.5 38t7.5 41t12 38q11 27 22.5 42.5t25.5 15.5q17 0 32.5 -16t28.5 -39q17 -31 26 -65.5t13.5 -70t5 -71.5t0.5 -70q0 -15 -2 -29.5t-4 -26.5l4 -2q39 94 97 147t123 53q28 0 48.5 -9.5
t34 -25t19.5 -36.5t6 -43q0 -9 -1 -21.5t-2.5 -25.5t-3.5 -25t-3 -20z" />
    <glyph glyph-name="uni061B" unicode="&#x61b;" horiz-adv-x="574" 
d="M285 282q75 0 112 -39t37 -111q0 -78 -42 -122t-120 -44q-72 0 -112 39.5t-40 113.5q0 79 44 121t121 42zM494 1400q-63 -28 -106.5 -60.5t-69.5 -67.5t-37.5 -71.5t-11.5 -73.5q0 -57 32.5 -95t103.5 -38q6 0 13 0.5t13 1.5q18 -26 27 -54t9 -57t-10 -56t-30 -47.5
t-50 -33t-70 -12.5q-37 0 -74 14.5t-66 46.5t-47.5 83t-18.5 125q0 61 14.5 117.5t39.5 105.5t57.5 88.5t68 67.5t72 43.5t68.5 15.5q45 0 73 -43z" />
    <glyph glyph-name="uni061F" unicode="&#x61f;" horiz-adv-x="1066" 
d="M726 1255q22 32 29 62.5t7 47.5q0 27 -11.5 49.5t-32 38t-48.5 24t-61 8.5q-44 0 -87 -15t-78 -46t-56.5 -78.5t-21.5 -111.5t21 -117.5t52.5 -102.5t68.5 -94q37 -46 68.5 -93t52.5 -97.5t21 -108.5q0 -30 -6.5 -59.5t-19 -53t-32 -37.5t-45.5 -14q-22 0 -45 10
q18 37 25.5 67t7.5 61q0 65 -30.5 114.5t-77 92.5t-99.5 84q-54 40 -100.5 86.5t-77 103.5t-30.5 132q0 60 20.5 111t56.5 92t84.5 73t104 53t115 32t118.5 11q55 0 116.5 -13t112.5 -41t84.5 -72.5t33.5 -107.5q0 -29 -11 -51.5t-29 -37.5t-42 -23t-50 -8q-58 0 -108 29z
M573 275q74 0 110.5 -38.5t36.5 -110.5q0 -73 -41.5 -116.5t-114.5 -43.5t-112 38.5t-39 111.5q0 76 43.5 117.5t116.5 41.5z" />
    <glyph glyph-name="uni0621" unicode="&#x621;" horiz-adv-x="948" 
d="M848 418q-20 -36 -34 -67t-28 -59q-9 -19 -17 -31.5t-15.5 -21t-16.5 -14.5t-19 -12q-36 -22 -78 -43t-86 -42q-50 -24 -94 -54.5t-79 -63.5t-61 -67t-40 -65q-2 -5 -5 -9.5t-9 -4.5t-7 6t-1 12q0 4 2.5 20t6 37t8 42.5t9.5 36.5q9 33 24 65.5t44 68.5l-2 6
q-80 34 -125 88.5t-45 141.5q0 35 11 82.5t41 107.5q33 68 82 102t118 34q39 0 75.5 -9.5t65 -25t47.5 -36.5t23 -43q3 -17 4.5 -35t3 -39t3.5 -45q1 -24 6 -53q0 -6 -2 -11t-8 -5t-9 6t-5 12q-11 32 -36 55.5t-59.5 38.5t-74.5 22.5t-80 7.5q-25 0 -48 -5t-41 -14
t-28.5 -21t-10.5 -26q0 -39 27 -72t68.5 -57t90 -37.5t92.5 -13.5q48 0 121.5 27.5t182.5 90.5z" />
    </font>
</defs>
</svg>
